<svg xmlns="http://www.w3.org/2000/svg" xmlns:xlink="http://www.w3.org/1999/xlink" width="1080" zoomAndPan="magnify" viewBox="0 0 810 809.999993" height="1080" preserveAspectRatio="xMidYMid meet" version="1.0"><defs><clipPath id="8a801d70f4"><path d="M 13.359375 13.359375 L 796.359375 13.359375 L 796.359375 796.359375 L 13.359375 796.359375 Z M 13.359375 13.359375 " clip-rule="nonzero"/></clipPath></defs><g clip-path="url(#8a801d70f4)"><path fill="#000000" d="M 359.5625 13.359375 Z M 311.039062 249.101562 C 314.050781 250.316406 317.320312 251.273438 320.84375 251.941406 L 316.558594 262.589844 C 314.269531 268.304688 317.046875 274.804688 322.761719 277.09375 C 328.480469 279.386719 334.976562 276.605469 337.269531 270.890625 L 343.6875 254.917969 L 345.941406 255.210938 C 358.46875 256.796875 371.386719 254.347656 382.054688 249.140625 C 393.292969 243.679688 402.394531 234.988281 406.640625 224.457031 C 407.777344 221.640625 408.519531 218.722656 408.894531 215.824219 L 408.894531 215.785156 C 409.910156 207.722656 407.894531 200.046875 403.414062 193.527344 C 399.242188 187.480469 392.960938 182.507812 385.050781 179.335938 C 381.058594 177.730469 376.59375 176.578125 371.738281 175.949219 L 350.148438 173.230469 C 347.308594 172.878906 344.6875 172.191406 342.339844 171.253906 C 338.597656 169.746094 335.742188 167.59375 334.039062 165.105469 C 332.648438 163.070312 332.003906 160.703125 332.316406 158.273438 L 332.355469 158.234375 C 332.472656 157.21875 332.746094 156.179688 333.15625 155.140625 C 335.234375 149.976562 340.320312 145.414062 346.820312 142.242188 C 353.886719 138.816406 362.285156 137.191406 370.351562 138.191406 L 380.527344 139.484375 C 380.941406 139.5625 381.332031 139.601562 381.742188 139.640625 L 391.941406 140.929688 C 394.78125 141.285156 397.402344 141.96875 399.75 142.90625 C 403.492188 144.414062 406.328125 146.570312 408.050781 149.054688 C 409.441406 151.070312 410.085938 153.441406 409.773438 155.886719 C 409.65625 156.84375 409.363281 157.902344 408.914062 159.019531 C 406.621094 164.734375 409.402344 171.234375 415.117188 173.523438 C 420.832031 175.8125 427.332031 173.035156 429.625 167.316406 C 430.757812 164.480469 431.503906 161.582031 431.875 158.6875 L 431.875 158.644531 C 432.890625 150.582031 430.875 142.90625 426.394531 136.410156 C 422.222656 130.359375 415.941406 125.386719 408.03125 122.21875 C 405.015625 121.003906 401.75 120.042969 398.226562 119.378906 L 402.511719 108.710938 C 404.800781 102.996094 402.023438 96.496094 396.304688 94.207031 C 390.589844 91.914062 384.089844 94.695312 381.800781 100.410156 L 375.359375 116.382812 L 373.050781 116.089844 C 360.542969 114.523438 347.664062 116.953125 336.976562 122.160156 C 325.738281 127.640625 316.636719 136.3125 312.386719 146.84375 C 311.214844 149.757812 310.449219 152.675781 310.136719 155.535156 C 309.121094 163.617188 311.15625 171.273438 315.617188 177.789062 C 319.789062 183.839844 326.089844 188.8125 333.980469 191.984375 C 337.972656 193.585938 342.4375 194.742188 347.289062 195.347656 L 368.882812 198.070312 C 371.71875 198.421875 374.34375 199.109375 376.691406 200.046875 C 380.429688 201.554688 383.269531 203.707031 384.992188 206.195312 C 386.382812 208.210938 387.027344 210.578125 386.714844 213.027344 C 386.597656 213.984375 386.304688 215.042969 385.851562 216.15625 C 383.777344 221.324219 378.6875 225.886719 372.191406 229.058594 C 365.125 232.503906 356.707031 234.128906 348.660156 233.109375 L 338.5 231.835938 C 338.070312 231.757812 337.660156 231.699219 337.230469 231.679688 L 327.070312 230.390625 C 324.230469 230.035156 321.609375 229.351562 319.257812 228.410156 C 315.519531 226.90625 312.683594 224.75 310.960938 222.265625 C 309.570312 220.25 308.921875 217.878906 309.238281 215.433594 C 309.355469 214.472656 309.648438 213.417969 310.097656 212.300781 C 312.386719 206.585938 309.609375 200.085938 303.894531 197.796875 C 298.175781 195.507812 291.679688 198.285156 289.386719 204 C 288.253906 206.839844 287.507812 209.738281 287.136719 212.632812 L 287.136719 212.671875 C 286.117188 220.738281 288.136719 228.410156 292.617188 234.910156 C 296.847656 240.960938 303.148438 245.929688 311.039062 249.101562 Z M 359.5625 58.246094 Z M 66.253906 185.640625 C 66.253906 148.585938 100.488281 115.933594 155.828125 93.148438 C 208.191406 71.578125 280.246094 58.226562 359.5625 58.226562 C 438.882812 58.226562 510.9375 71.578125 563.300781 93.148438 C 618.640625 115.933594 652.875 148.585938 652.875 185.640625 C 652.875 222.695312 618.640625 255.347656 563.300781 278.132812 C 510.9375 299.703125 438.882812 313.054688 359.5625 313.054688 C 280.246094 313.054688 208.191406 299.703125 155.828125 278.132812 C 100.488281 255.347656 66.253906 222.695312 66.253906 185.640625 Z M 88.605469 185.640625 C 88.605469 212.769531 117.539062 238.257812 164.304688 257.519531 C 214.042969 278.015625 283.066406 290.679688 359.5625 290.679688 C 436.0625 290.679688 505.085938 277.996094 554.824219 257.519531 C 601.589844 238.257812 630.519531 212.769531 630.519531 185.640625 C 630.519531 158.507812 601.589844 133.023438 554.824219 113.761719 C 505.085938 93.265625 436.0625 80.601562 359.5625 80.601562 C 283.066406 80.601562 214.042969 93.285156 164.304688 113.761719 C 117.539062 133.023438 88.605469 158.507812 88.605469 185.640625 Z M 796.359375 344.355469 L 796.359375 465.347656 C 796.359375 493.496094 783.226562 519.902344 759.871094 543.15625 C 759.363281 543.785156 758.777344 544.371094 758.128906 544.878906 C 753.355469 549.5 748.1875 553.984375 742.609375 558.347656 L 742.628906 624.082031 C 742.628906 673.214844 702.695312 717.003906 638.136719 748.03125 C 576.0625 777.902344 490.578125 796.359375 396.445312 796.359375 C 302.308594 796.359375 216.824219 777.882812 154.75 748.03125 C 90.191406 716.984375 50.257812 673.214844 50.257812 624.082031 L 50.257812 503.109375 C 50.257812 503.109375 50.257812 503.109375 50.257812 503.089844 C 50.257812 485.332031 55.523438 468.207031 65.3125 452.074219 C 72.59375 440.097656 82.382812 428.722656 94.363281 418.09375 C 77.820312 408.34375 63.433594 397.636719 51.570312 386.148438 C 50.945312 385.636719 50.378906 385.089844 49.867188 384.464844 C 26.496094 361.207031 13.359375 334.800781 13.359375 306.652344 L 13.359375 185.640625 C 13.359375 136.507812 53.3125 92.738281 117.851562 61.671875 C 179.945312 31.839844 265.429688 13.359375 359.5625 13.359375 C 453.699219 13.359375 539.183594 31.839844 601.257812 61.691406 C 665.816406 92.738281 705.75 136.527344 705.75 185.660156 L 705.75 227.511719 C 732.917969 242.171875 754.941406 259.261719 770.425781 278.09375 C 787.160156 298.429688 796.359375 320.785156 796.359375 344.355469 Z M 705.75 253.097656 L 705.75 280.695312 C 716.847656 289.210938 725.753906 298.429688 732.078125 308.199219 C 739.515625 319.632812 743.46875 331.769531 743.46875 344.375 C 743.46875 380.726562 710.5625 412.808594 657.144531 435.515625 C 606.71875 456.929688 537.128906 470.59375 460.003906 471.652344 C 459.515625 471.730469 459.003906 471.789062 458.496094 471.867188 C 457.558594 472.003906 456.617188 472.140625 455.675781 472.277344 C 451.761719 472.824219 447.808594 473.355469 443.835938 473.84375 C 443.542969 473.882812 443.246094 473.921875 442.953125 473.960938 C 442.933594 473.960938 442.914062 473.960938 442.894531 473.960938 C 442.835938 473.960938 442.777344 473.980469 442.699219 473.980469 C 442.191406 474.039062 441.660156 474.097656 441.152344 474.15625 C 437.628906 474.566406 434.105469 474.957031 430.542969 475.332031 C 429.957031 475.390625 429.367188 475.449219 428.78125 475.507812 C 424.730469 475.917969 420.65625 476.269531 416.566406 476.601562 C 416.175781 476.640625 415.785156 476.679688 415.390625 476.699219 C 414.785156 476.738281 414.160156 476.800781 413.550781 476.839844 C 412.203125 476.9375 410.871094 477.035156 409.519531 477.132812 C 408.894531 477.171875 408.265625 477.210938 407.640625 477.25 C 391.921875 478.324219 375.871094 478.894531 359.5625 478.894531 C 343.375 478.894531 327.441406 478.324219 311.839844 477.269531 C 311.039062 477.210938 310.214844 477.171875 309.433594 477.113281 C 308.199219 477.035156 306.964844 476.9375 305.734375 476.839844 C 305.066406 476.78125 304.382812 476.738281 303.714844 476.679688 L 300.703125 476.425781 C 299.957031 476.367188 299.195312 476.308594 298.449219 476.230469 L 296.984375 476.113281 C 297.355469 476.210938 297.707031 476.308594 298.078125 476.386719 C 301.425781 477.230469 304.792969 478.050781 308.21875 478.835938 C 308.21875 478.835938 308.238281 478.835938 308.238281 478.835938 C 310.566406 479.363281 312.9375 479.890625 315.285156 480.402344 C 315.597656 480.460938 315.890625 480.519531 316.1875 480.597656 C 333.097656 484.21875 350.792969 487.171875 369.097656 489.40625 C 369.214844 489.425781 369.3125 489.425781 369.429688 489.445312 C 395.25 492.558594 422.28125 494.238281 450.175781 494.238281 C 477.953125 494.238281 504.910156 492.597656 530.648438 489.484375 C 530.902344 489.445312 531.140625 489.425781 531.394531 489.40625 C 542.21875 488.09375 552.847656 486.527344 563.203125 484.707031 C 570.269531 483.472656 577.21875 482.105469 584.03125 480.65625 C 584.460938 480.539062 584.890625 480.441406 585.34375 480.382812 C 585.363281 480.382812 585.402344 480.363281 585.421875 480.363281 C 592.683594 478.796875 599.808594 477.09375 606.777344 475.273438 C 617.308594 472.53125 627.46875 469.515625 637.253906 466.246094 C 637.824219 465.992188 638.429688 465.796875 639.054688 465.640625 C 654.5 460.414062 668.945312 454.582031 682.238281 448.199219 C 685.058594 446.847656 687.796875 445.460938 690.5 444.070312 C 691.046875 443.71875 691.632812 443.421875 692.242188 443.167969 C 712.304688 432.617188 729.277344 420.8125 742.472656 408.089844 C 743 407.445312 743.605469 406.855469 744.253906 406.328125 C 763.300781 387.320312 773.96875 366.296875 773.96875 344.335938 C 773.96875 326.109375 766.585938 308.492188 753.199219 292.207031 C 741.589844 278.09375 725.5 264.917969 705.75 253.097656 Z M 672.902344 259.710938 C 672.53125 260.125 672.136719 260.515625 671.765625 260.925781 L 671.765625 345.941406 C 672.429688 344.863281 673.058594 343.765625 673.644531 342.671875 C 674.035156 341.945312 674.410156 341.222656 674.78125 340.5 C 675.015625 340.027344 675.269531 339.578125 675.484375 339.109375 C 675.953125 338.148438 676.40625 337.210938 676.816406 336.25 C 676.914062 336.054688 676.992188 335.859375 677.089844 335.664062 C 677.539062 334.644531 677.953125 333.609375 678.363281 332.589844 C 678.421875 332.414062 678.5 332.257812 678.558594 332.082031 C 678.949219 331.0625 679.320312 330.027344 679.65625 328.988281 C 679.714844 328.792969 679.792969 328.597656 679.851562 328.382812 C 680.183594 327.382812 680.476562 326.382812 680.75 325.386719 C 680.828125 325.113281 680.886719 324.859375 680.964844 324.582031 C 681.21875 323.644531 681.457031 322.703125 681.671875 321.765625 C 681.75 321.414062 681.828125 321.039062 681.886719 320.6875 C 682.0625 319.828125 682.238281 318.964844 682.394531 318.085938 C 682.472656 317.59375 682.53125 317.125 682.609375 316.636719 C 682.726562 315.871094 682.84375 315.109375 682.921875 314.347656 C 683 313.679688 683.039062 313.035156 683.101562 312.367188 C 683.160156 311.761719 683.21875 311.15625 683.257812 310.527344 C 683.316406 309.394531 683.355469 308.257812 683.355469 307.121094 C 683.355469 306.964844 683.375 306.828125 683.375 306.671875 L 683.375 247.417969 C 683.140625 247.730469 682.882812 248.046875 682.628906 248.359375 C 681.867188 249.355469 681.082031 250.355469 680.261719 251.355469 C 679.890625 251.824219 679.496094 252.273438 679.105469 252.742188 C 678.324219 253.683594 677.519531 254.640625 676.679688 255.5625 C 676.269531 256.03125 675.835938 256.519531 675.40625 256.992188 C 674.605469 257.890625 673.761719 258.8125 672.902344 259.710938 Z M 428.097656 453.132812 C 428.898438 453.054688 429.683594 452.957031 430.464844 452.878906 L 430.464844 354.355469 C 419.855469 355.433594 409.050781 356.296875 398.085938 356.882812 L 398.085938 455.480469 C 401.730469 455.285156 405.371094 455.050781 408.992188 454.796875 C 409.558594 454.757812 410.144531 454.71875 410.714844 454.660156 C 412.125 454.5625 413.53125 454.445312 414.941406 454.328125 C 418.894531 454.011719 422.8125 453.660156 426.707031 453.269531 C 427.175781 453.230469 427.625 453.171875 428.097656 453.132812 Z M 309.707031 454.777344 C 313.445312 455.050781 317.222656 455.285156 321 455.5 L 321 356.902344 C 310.058594 356.316406 299.253906 355.453125 288.644531 354.375 L 288.644531 452.898438 C 289.289062 452.957031 289.9375 453.054688 290.582031 453.113281 C 291.246094 453.171875 291.914062 453.25 292.578125 453.328125 C 296.316406 453.699219 300.09375 454.03125 303.894531 454.347656 C 305.617188 454.484375 307.320312 454.621094 309.042969 454.757812 C 309.257812 454.738281 309.492188 454.757812 309.707031 454.777344 Z M 598.183594 500.386719 L 598.183594 598.457031 C 609.359375 595.757812 620.167969 592.742188 630.539062 589.453125 L 630.539062 491.773438 C 620.109375 494.925781 609.320312 497.804688 598.183594 500.386719 Z M 652.894531 484.472656 L 652.894531 581.761719 C 663.210938 577.863281 673 573.695312 682.238281 569.25 C 683.257812 568.761719 684.253906 568.253906 685.253906 567.765625 L 685.253906 471.414062 C 675.054688 476.074219 664.25 480.441406 652.894531 484.472656 Z M 575.808594 505.105469 C 565.257812 507.121094 554.453125 508.902344 543.433594 510.410156 L 543.433594 608.851562 C 554.472656 607.285156 565.277344 605.464844 575.808594 603.371094 Z M 521.078125 611.613281 L 521.078125 513.089844 C 510.46875 514.167969 499.664062 515.027344 488.71875 515.617188 L 488.71875 614.214844 C 499.683594 613.589844 510.46875 612.726562 521.078125 611.613281 Z M 450.15625 516.652344 C 444.734375 516.652344 439.332031 516.574219 433.96875 516.457031 L 433.96875 615.019531 C 438.292969 615.136719 442.621094 615.214844 446.945312 615.273438 C 448.023438 615.273438 449.082031 615.292969 450.15625 615.292969 C 455.578125 615.292969 460.980469 615.234375 466.347656 615.097656 L 466.347656 516.476562 C 460.980469 516.59375 455.597656 516.652344 450.15625 516.652344 Z M 619.734375 299.976562 C 618.835938 300.488281 617.933594 300.976562 617.015625 301.484375 L 617.015625 396.71875 C 621.4375 394.015625 625.707031 391.257812 629.71875 388.4375 C 636.960938 383.347656 643.519531 378.0625 649.390625 372.621094 L 649.390625 280.636719 C 649.3125 280.695312 649.234375 280.753906 649.175781 280.792969 C 648.765625 281.109375 648.335938 281.402344 647.921875 281.714844 C 646.691406 282.632812 645.4375 283.574219 644.144531 284.472656 C 643.558594 284.90625 642.953125 285.316406 642.34375 285.746094 C 641.230469 286.53125 640.09375 287.332031 638.9375 288.097656 C 638.253906 288.566406 637.546875 289.015625 636.863281 289.484375 C 635.765625 290.210938 634.671875 290.933594 633.535156 291.660156 C 632.792969 292.128906 632.046875 292.617188 631.285156 293.085938 C 630.1875 293.773438 629.074219 294.457031 627.9375 295.144531 C 627.15625 295.613281 626.371094 296.082031 625.570312 296.570312 C 624.433594 297.257812 623.277344 297.921875 622.125 298.589844 C 621.339844 299.078125 620.558594 299.527344 619.734375 299.976562 Z M 594.660156 312.703125 C 584.441406 317.359375 573.636719 321.726562 562.28125 325.757812 L 562.28125 423.007812 C 566.707031 421.324219 571.089844 419.582031 575.4375 417.761719 C 582.09375 414.960938 588.511719 412.042969 594.640625 409.011719 L 594.640625 312.703125 Z M 539.929688 333.058594 C 529.496094 336.191406 518.6875 339.070312 507.550781 341.671875 L 507.550781 439.722656 C 512.230469 438.589844 516.886719 437.394531 521.527344 436.121094 L 522.171875 435.984375 C 522.429688 435.925781 522.683594 435.847656 522.917969 435.789062 C 526.714844 434.730469 530.492188 433.65625 534.210938 432.519531 C 534.664062 432.382812 535.132812 432.246094 535.582031 432.109375 C 537.050781 431.660156 538.460938 431.1875 539.910156 430.71875 L 539.910156 333.058594 Z M 485.195312 346.390625 C 474.644531 348.40625 463.859375 350.1875 452.820312 351.695312 L 452.820312 450.136719 C 453.855469 449.980469 454.914062 449.84375 455.953125 449.6875 C 456.929688 449.550781 457.890625 449.394531 458.847656 449.257812 C 460.316406 449.042969 461.785156 448.808594 463.234375 448.570312 C 464.230469 448.414062 465.25 448.257812 466.226562 448.082031 C 467.011719 447.945312 467.792969 447.808594 468.597656 447.691406 C 474.175781 446.75 479.695312 445.714844 485.175781 444.617188 L 485.175781 346.390625 Z M 375.734375 456.363281 L 375.734375 357.742188 C 370.371094 357.859375 364.988281 357.941406 359.542969 357.941406 C 354.121094 357.941406 348.71875 357.878906 343.355469 357.742188 L 343.355469 456.363281 C 348.71875 456.480469 354.121094 456.558594 359.542969 456.558594 C 364.988281 456.558594 370.371094 456.5 375.734375 456.363281 Z M 324.503906 602.863281 C 335.132812 604.976562 345.941406 606.835938 356.882812 608.421875 L 356.882812 510.429688 C 345.863281 508.921875 335.054688 507.140625 324.503906 505.125 Z M 379.238281 513.070312 L 379.238281 611.238281 C 389.945312 612.414062 400.75 613.335938 411.613281 614 L 411.613281 515.617188 C 400.652344 515.007812 389.867188 514.148438 379.238281 513.070312 Z M 137.722656 504.183594 L 137.957031 504.554688 L 137.957031 439.546875 C 137.347656 439.292969 136.722656 439.058594 136.117188 438.804688 C 134.628906 438.195312 133.179688 437.53125 131.710938 436.886719 C 130.773438 436.472656 129.832031 436.082031 128.890625 435.671875 C 128.050781 435.300781 127.167969 434.949219 126.328125 434.554688 L 126.328125 465.347656 C 126.328125 467.8125 126.464844 470.261719 126.738281 472.707031 C 126.816406 473.296875 126.894531 473.882812 126.972656 474.46875 C 127.03125 474.9375 127.089844 475.410156 127.167969 475.859375 C 127.269531 476.445312 127.367188 477.015625 127.464844 477.601562 C 127.621094 478.441406 127.757812 479.285156 127.953125 480.125 C 128.402344 481.964844 128.871094 483.6875 129.363281 485.332031 C 129.714844 486.449219 130.066406 487.566406 130.4375 488.699219 C 131.164062 490.796875 131.964844 492.792969 132.867188 494.808594 C 133.238281 495.589844 133.609375 496.394531 133.980469 497.15625 C 134 497.175781 134 497.214844 134.019531 497.234375 C 134.175781 497.566406 134.355469 497.902344 134.511719 498.234375 C 135.332031 499.878906 136.234375 501.5625 137.25 503.34375 C 137.40625 503.636719 137.5625 503.910156 137.722656 504.183594 Z M 211.539062 341.671875 C 200.398438 339.089844 189.613281 336.191406 179.160156 333.058594 L 179.160156 430.71875 L 181.707031 431.542969 L 192.316406 434.671875 C 192.394531 434.691406 192.453125 434.730469 192.511719 434.75 C 193.097656 434.910156 193.667969 435.085938 194.253906 435.242188 C 196.230469 435.789062 198.1875 436.316406 200.105469 436.828125 C 200.339844 436.886719 200.574219 436.945312 200.792969 437.003906 C 201.925781 437.296875 203.042969 437.589844 204.160156 437.882812 C 205.761719 438.292969 207.367188 438.707031 208.992188 439.097656 C 209.835938 439.3125 210.695312 439.507812 211.558594 439.703125 L 211.558594 341.671875 Z M 170.390625 540.007812 C 171.625 540.984375 172.859375 541.964844 174.109375 542.921875 C 174.601562 543.199219 175.011719 543.53125 175.402344 543.882812 L 180.921875 547.835938 C 182.976562 549.265625 185.210938 550.753906 187.617188 552.300781 L 192.414062 555.292969 C 192.492188 555.351562 192.589844 555.390625 192.667969 555.449219 L 192.667969 460.199219 C 191.90625 459.769531 191.121094 459.359375 190.359375 458.925781 C 189.300781 458.339844 188.261719 457.734375 187.226562 457.125 C 186.441406 456.675781 185.640625 456.226562 184.878906 455.773438 L 175.148438 452.839844 C 171.820312 451.800781 168.433594 450.707031 165.007812 449.570312 C 164.539062 449.433594 164.070312 449.296875 163.636719 449.101562 C 163.167969 448.945312 162.71875 448.785156 162.25 448.628906 C 161.835938 448.492188 161.425781 448.335938 160.996094 448.199219 C 160.761719 448.121094 160.527344 448.042969 160.308594 447.964844 L 160.308594 531.042969 C 163.207031 533.917969 166.4375 536.816406 170.390625 540.007812 Z M 247.417969 581.308594 L 247.417969 484.472656 C 246.96875 484.316406 246.5 484.160156 246.050781 483.984375 C 244.816406 483.53125 243.601562 483.082031 242.367188 482.632812 C 241.078125 482.144531 239.765625 481.671875 238.472656 481.183594 C 237.257812 480.714844 236.085938 480.242188 234.871094 479.773438 C 233.597656 479.285156 232.328125 478.777344 231.074219 478.285156 C 229.898438 477.816406 228.726562 477.328125 227.570312 476.839844 C 226.316406 476.328125 225.085938 475.820312 223.851562 475.292969 C 222.695312 474.800781 221.558594 474.292969 220.425781 473.804688 C 219.210938 473.277344 217.976562 472.746094 216.785156 472.199219 C 216.195312 471.945312 215.628906 471.671875 215.042969 471.394531 L 215.042969 567.46875 C 225.320312 572.460938 236.125 577.082031 247.417969 581.308594 Z M 266.269531 450.136719 L 266.269531 351.695312 C 255.25 350.1875 244.445312 348.40625 233.894531 346.390625 L 233.894531 444.617188 C 235.203125 444.871094 236.515625 445.164062 237.828125 445.421875 C 237.984375 445.460938 238.140625 445.480469 238.296875 445.519531 C 242.25 446.28125 246.246094 446.984375 250.257812 447.652344 C 251.214844 447.808594 252.15625 447.984375 253.117188 448.140625 C 253.917969 448.277344 254.71875 448.394531 255.523438 448.53125 C 257.1875 448.785156 258.832031 449.0625 260.496094 449.316406 C 261.277344 449.433594 262.0625 449.550781 262.84375 449.667969 C 264 449.824219 265.132812 449.980469 266.269531 450.136719 Z M 124.429688 312.683594 L 124.429688 409.011719 C 124.742188 409.167969 125.054688 409.324219 125.367188 409.480469 C 125.878906 409.734375 126.367188 409.96875 126.875 410.222656 C 132.496094 412.925781 138.425781 415.589844 144.671875 418.191406 C 148.644531 419.855469 152.714844 421.441406 156.804688 422.988281 L 156.804688 325.738281 C 145.472656 321.707031 134.648438 317.339844 124.429688 312.683594 Z M 294.652344 498.605469 C 293.480469 498.3125 292.324219 498.019531 291.167969 497.703125 C 289.503906 497.273438 287.839844 496.863281 286.195312 496.433594 C 284.886719 496.082031 283.59375 495.726562 282.300781 495.375 C 280.832031 494.964844 279.347656 494.574219 277.878906 494.160156 C 276.546875 493.789062 275.234375 493.398438 273.921875 493.007812 C 272.535156 492.597656 271.144531 492.203125 269.773438 491.792969 L 269.773438 588.964844 C 280.265625 592.253906 291.070312 595.246094 302.152344 597.910156 L 302.152344 500.386719 C 299.644531 499.800781 297.140625 499.210938 294.652344 498.605469 Z M 599.574219 431.464844 C 617.386719 426.746094 633.769531 421.226562 648.414062 415 C 693.414062 395.875 721.113281 370.898438 721.113281 344.394531 C 721.113281 336.191406 718.433594 328.105469 713.382812 320.355469 C 711.230469 317.027344 708.644531 313.757812 705.667969 310.546875 C 705.667969 310.644531 705.648438 310.765625 705.648438 310.863281 C 705.628906 311.136719 705.628906 311.410156 705.609375 311.683594 C 705.589844 312.132812 705.53125 312.566406 705.511719 313.015625 C 705.492188 313.425781 705.453125 313.835938 705.414062 314.25 C 705.375 314.660156 705.355469 315.070312 705.316406 315.480469 C 705.277344 315.910156 705.21875 316.324219 705.179688 316.753906 C 705.121094 317.203125 705.0625 317.632812 705.003906 318.085938 C 704.847656 319.375 704.652344 320.648438 704.4375 321.921875 C 704.378906 322.273438 704.320312 322.625 704.242188 322.980469 C 703.964844 324.425781 703.671875 325.855469 703.339844 327.304688 C 703.300781 327.480469 703.261719 327.636719 703.222656 327.8125 C 701.207031 336.269531 697.996094 344.511719 693.671875 352.515625 C 693.554688 352.753906 693.414062 352.988281 693.277344 353.222656 C 692.59375 354.476562 691.871094 355.726562 691.125 356.980469 C 690.871094 357.410156 690.617188 357.839844 690.363281 358.253906 C 689.734375 359.25 689.109375 360.25 688.445312 361.246094 C 688.050781 361.835938 687.679688 362.441406 687.269531 363.027344 C 686.800781 363.714844 686.289062 364.417969 685.800781 365.105469 C 680.925781 371.996094 675.230469 378.667969 668.75 385.070312 C 668.496094 385.34375 668.242188 385.597656 667.96875 385.832031 C 660.453125 393.15625 651.957031 400.164062 642.558594 406.738281 C 632.96875 413.472656 622.476562 419.816406 611.199219 425.6875 C 611.179688 425.707031 611.160156 425.707031 611.121094 425.726562 C 611.082031 425.746094 611.042969 425.765625 610.984375 425.804688 C 608.929688 426.882812 606.855469 427.941406 604.742188 428.976562 C 604.347656 429.171875 603.957031 429.367188 603.566406 429.542969 C 602.253906 430.152344 600.925781 430.816406 599.574219 431.464844 Z M 69.699219 372.738281 C 78.859375 381.214844 89.722656 389.257812 102.074219 396.777344 L 102.074219 301.484375 C 101.15625 300.976562 100.253906 300.488281 99.355469 299.976562 C 98.570312 299.527344 97.808594 299.097656 97.023438 298.648438 C 95.832031 297.960938 94.65625 297.277344 93.480469 296.589844 C 92.71875 296.140625 91.972656 295.691406 91.210938 295.222656 C 90.035156 294.515625 88.882812 293.792969 87.746094 293.085938 C 87.042969 292.636719 86.316406 292.1875 85.613281 291.738281 C 84.4375 290.992188 83.28125 290.230469 82.148438 289.464844 C 81.5 289.035156 80.855469 288.605469 80.210938 288.175781 C 78.996094 287.351562 77.800781 286.53125 76.628906 285.6875 C 76.078125 285.316406 75.53125 284.925781 75.003906 284.554688 C 73.632812 283.574219 72.300781 282.59375 70.96875 281.597656 C 70.636719 281.34375 70.304688 281.109375 69.972656 280.851562 C 69.894531 280.792969 69.796875 280.714844 69.699219 280.65625 Z M 106.597656 690.1875 C 115.757812 698.660156 126.621094 706.707031 138.953125 714.222656 L 138.953125 618.914062 C 138.074219 618.425781 137.191406 617.933594 136.3125 617.445312 C 135.449219 616.957031 134.609375 616.464844 133.765625 615.976562 C 132.652344 615.332031 131.554688 614.703125 130.457031 614.039062 C 129.636719 613.550781 128.8125 613.058594 128.011719 612.570312 C 126.914062 611.90625 125.820312 611.238281 124.742188 610.554688 C 123.960938 610.066406 123.195312 609.574219 122.433594 609.085938 C 121.335938 608.382812 120.242188 607.65625 119.164062 606.953125 C 118.460938 606.484375 117.734375 606.011719 117.050781 605.542969 C 115.914062 604.78125 114.796875 603.996094 113.683594 603.214844 C 113.074219 602.785156 112.449219 602.351562 111.84375 601.921875 C 110.570312 601.023438 109.335938 600.101562 108.105469 599.183594 C 107.671875 598.867188 107.242188 598.554688 106.832031 598.242188 C 106.753906 598.183594 106.675781 598.125 106.617188 598.085938 L 106.617188 690.1875 Z M 216.039062 650.488281 L 216.039062 748.167969 C 226.433594 751.457031 237.238281 754.449219 248.417969 757.171875 L 248.417969 659.101562 C 237.277344 656.515625 226.492188 653.640625 216.039062 650.488281 Z M 270.792969 762.085938 C 281.304688 764.179688 292.109375 766 303.167969 767.566406 L 303.167969 669.125 C 292.148438 667.617188 281.34375 665.835938 270.792969 663.820312 Z M 325.523438 770.324219 C 336.132812 771.441406 346.917969 772.304688 357.902344 772.929688 L 357.902344 674.332031 C 346.957031 673.742188 336.152344 672.882812 325.523438 671.804688 Z M 434.988281 674.3125 L 434.988281 772.910156 C 445.949219 772.304688 456.753906 771.421875 467.34375 770.304688 L 467.34375 671.785156 C 456.734375 672.882812 445.929688 673.722656 434.988281 674.3125 Z M 489.71875 767.566406 C 500.757812 766 511.5625 764.179688 522.09375 762.085938 L 522.09375 663.820312 C 511.542969 665.835938 500.757812 667.617188 489.71875 669.125 Z M 544.449219 757.171875 C 555.628906 754.46875 566.433594 751.457031 576.808594 748.167969 L 576.808594 650.527344 C 576.632812 650.585938 576.476562 650.625 576.316406 650.683594 C 566.042969 653.757812 555.414062 656.554688 544.449219 659.101562 Z M 653.914062 618.914062 L 653.914062 714.222656 C 666.246094 706.707031 677.109375 698.660156 686.289062 690.1875 L 686.289062 598.105469 C 686.25 598.144531 686.191406 598.183594 686.132812 598.222656 C 684.960938 599.105469 683.746094 599.984375 682.550781 600.84375 C 681.535156 601.589844 680.535156 602.332031 679.5 603.058594 C 678.1875 603.976562 676.835938 604.878906 675.503906 605.777344 C 674.507812 606.445312 673.546875 607.109375 672.550781 607.773438 C 671.101562 608.714844 669.59375 609.65625 668.105469 610.59375 C 667.144531 611.179688 666.226562 611.789062 665.265625 612.375 C 663.660156 613.355469 662.019531 614.3125 660.375 615.273438 C 659.472656 615.800781 658.59375 616.328125 657.671875 616.859375 C 656.417969 617.542969 655.167969 618.226562 653.914062 618.914062 Z M 725.207031 543.707031 C 730.53125 539.734375 735.484375 535.660156 740.023438 531.472656 L 740.023438 439.390625 C 739.945312 439.449219 739.847656 439.507812 739.769531 439.585938 C 739.4375 439.839844 739.085938 440.097656 738.75 440.351562 C 737.441406 441.328125 736.109375 442.328125 734.738281 443.285156 C 734.191406 443.679688 733.640625 444.050781 733.09375 444.441406 C 731.921875 445.261719 730.726562 446.105469 729.511719 446.925781 C 728.867188 447.359375 728.21875 447.789062 727.574219 448.21875 C 726.417969 448.984375 725.285156 449.726562 724.109375 450.488281 C 723.40625 450.941406 722.699219 451.390625 721.976562 451.839844 C 720.820312 452.566406 719.667969 453.269531 718.492188 453.992188 C 717.746094 454.445312 717.003906 454.894531 716.261719 455.34375 C 715.085938 456.050781 713.871094 456.734375 712.679688 457.4375 C 711.914062 457.871094 711.171875 458.320312 710.40625 458.75 C 709.488281 459.257812 708.566406 459.769531 707.648438 460.277344 L 707.648438 555.234375 C 713.34375 551.867188 718.980469 548.363281 724.851562 543.980469 C 724.972656 543.824219 725.089844 543.785156 725.207031 543.707031 Z M 35.714844 185.640625 C 35.714844 197.796875 39.003906 209.679688 45.152344 221.070312 C 50.101562 230.25 56.914062 239.121094 65.410156 247.59375 C 66.078125 248.125 66.683594 248.730469 67.230469 249.394531 C 80.425781 262.121094 97.375 273.921875 117.441406 284.472656 C 118.046875 284.730469 118.636719 285.023438 119.183594 285.375 C 121.902344 286.785156 124.644531 288.175781 127.464844 289.523438 C 140.773438 295.925781 155.261719 301.777344 170.722656 307.003906 C 171.292969 307.140625 171.859375 307.339844 172.386719 307.554688 C 188.695312 312.996094 206.097656 317.753906 224.417969 321.707031 C 224.828125 321.765625 225.242188 321.863281 225.632812 321.960938 C 242.503906 325.582031 260.164062 328.519531 278.425781 330.75 C 278.582031 330.769531 278.738281 330.789062 278.894531 330.808594 C 304.675781 333.921875 331.691406 335.585938 359.542969 335.585938 C 387.378906 335.585938 414.375 333.921875 440.15625 330.828125 C 440.332031 330.808594 440.507812 330.789062 440.683594 330.769531 C 458.964844 328.558594 476.621094 325.601562 493.515625 321.980469 C 493.886719 321.882812 494.261719 321.804688 494.632812 321.746094 C 512.953125 317.773438 530.355469 313.035156 546.683594 307.59375 C 547.230469 307.359375 547.777344 307.179688 548.363281 307.023438 C 563.828125 301.796875 578.316406 295.945312 591.625 289.542969 C 594.445312 288.195312 597.203125 286.804688 599.925781 285.394531 C 600.453125 285.0625 601.023438 284.769531 601.609375 284.535156 C 621.691406 273.980469 638.664062 262.179688 651.859375 249.433594 C 652.386719 248.769531 652.992188 248.183594 653.660156 247.671875 C 664.328125 237.003906 672.371094 225.730469 677.382812 213.984375 C 681.300781 204.785156 683.375 195.328125 683.375 185.679688 C 683.375 145.84375 648.316406 109.0625 591.625 81.796875 C 532.46875 53.351562 450.410156 35.753906 359.542969 35.753906 C 268.65625 35.753906 186.621094 53.351562 127.464844 81.796875 C 70.792969 109.023438 35.714844 145.804688 35.714844 185.640625 Z M 35.714844 306.652344 C 35.714844 320.179688 39.765625 333.351562 47.324219 345.921875 L 47.324219 260.90625 C 46.953125 260.515625 46.597656 260.144531 46.226562 259.75 C 45.347656 258.8125 44.464844 257.871094 43.625 256.914062 C 43.210938 256.460938 42.800781 256.011719 42.410156 255.542969 C 41.570312 254.582031 40.746094 253.625 39.945312 252.664062 C 39.570312 252.214844 39.199219 251.765625 38.828125 251.335938 C 38.003906 250.335938 37.222656 249.316406 36.441406 248.300781 C 36.203125 247.988281 35.949219 247.691406 35.714844 247.378906 Z M 84.339844 463.605469 C 76.707031 476.171875 72.613281 489.425781 72.613281 503.089844 C 72.613281 509.722656 73.613281 516.28125 75.492188 522.722656 C 84.925781 554.921875 117.128906 584.246094 164.363281 606.972656 C 223.519531 635.414062 305.558594 653.011719 396.445312 653.011719 C 460.21875 653.011719 519.667969 644.320312 569.9375 629.289062 C 571.328125 628.878906 572.675781 628.445312 574.046875 628.015625 C 575.59375 627.527344 577.160156 627.054688 578.707031 626.566406 C 580.15625 626.097656 581.582031 625.609375 583.03125 625.136719 C 584.1875 624.746094 585.363281 624.375 586.515625 623.984375 C 578.019531 625.804688 569.800781 627.332031 561.714844 628.621094 C 552.59375 630.148438 543.296875 631.480469 533.839844 632.636719 C 533.625 632.675781 533.410156 632.695312 533.195312 632.714844 C 509.292969 635.609375 484.433594 637.273438 458.867188 637.589844 C 458.847656 637.589844 458.847656 637.589844 458.828125 637.589844 C 455.953125 637.628906 453.074219 637.648438 450.175781 637.648438 C 421.578125 637.648438 393.761719 635.925781 367.179688 632.714844 C 366.945312 632.695312 366.710938 632.65625 366.472656 632.636719 C 354.632812 631.1875 343.023438 629.445312 331.710938 627.429688 C 267.171875 621.300781 210.734375 606.152344 170.507812 585.34375 C 128.34375 563.515625 103.152344 534.996094 103.152344 503.089844 C 103.152344 499.507812 103.503906 495.804688 104.207031 492.046875 L 104.207031 492.007812 C 104.660156 489.523438 105.304688 487.035156 106.066406 484.589844 C 105.421875 481.652344 104.933594 478.699219 104.601562 475.703125 C 104.601562 475.644531 104.582031 475.566406 104.582031 475.507812 C 104.582031 475.488281 104.582031 475.449219 104.582031 475.429688 C 104.207031 472.121094 104.011719 468.773438 103.992188 465.425781 C 103.992188 465.40625 103.992188 465.386719 103.992188 465.367188 L 103.992188 439.507812 C 95.988281 447.222656 89.390625 455.285156 84.339844 463.605469 Z M 72.613281 624.082031 C 72.613281 637.609375 76.667969 650.78125 84.222656 663.367188 L 84.222656 578.355469 C 83.832031 577.960938 83.457031 577.550781 83.085938 577.140625 C 82.226562 576.238281 81.382812 575.320312 80.5625 574.398438 C 80.132812 573.910156 79.699219 573.441406 79.269531 572.953125 C 78.449219 572.03125 77.664062 571.089844 76.882812 570.152344 C 76.488281 569.683594 76.078125 569.191406 75.6875 568.722656 C 74.90625 567.765625 74.140625 566.785156 73.378906 565.804688 C 73.125 565.472656 72.847656 565.140625 72.59375 564.808594 L 72.59375 624.082031 Z M 164.34375 727.945312 C 173.582031 732.390625 183.371094 736.558594 193.6875 740.453125 L 193.6875 643.167969 C 182.351562 639.132812 171.527344 634.769531 161.308594 630.109375 L 161.308594 726.4375 C 162.328125 726.96875 163.324219 727.457031 164.34375 727.945312 Z M 412.632812 773.808594 L 412.632812 675.171875 C 407.269531 675.289062 401.886719 675.367188 396.445312 675.367188 C 391.019531 675.367188 385.617188 675.308594 380.253906 675.171875 L 380.253906 773.789062 C 385.617188 773.910156 391.019531 773.988281 396.445312 773.988281 C 401.867188 774.007812 407.269531 773.929688 412.632812 773.808594 Z M 628.523438 727.945312 C 629.542969 727.457031 630.539062 726.949219 631.539062 726.457031 L 631.539062 630.128906 C 629.542969 631.050781 627.507812 631.949219 625.453125 632.832031 C 625.058594 633.007812 624.667969 633.183594 624.277344 633.359375 C 621.398438 634.613281 618.464844 635.828125 615.507812 637.019531 C 615.429688 637.058594 615.332031 637.097656 615.253906 637.117188 C 610.027344 639.210938 604.664062 641.230469 599.183594 643.1875 L 599.183594 740.453125 C 609.476562 736.578125 619.285156 732.390625 628.523438 727.945312 Z M 720.273438 573.910156 C 716.652344 576.238281 712.617188 578.550781 708.644531 580.703125 L 708.644531 663.367188 C 716.222656 650.800781 720.273438 637.609375 720.273438 624.082031 Z M 773.339844 406.9375 C 772.539062 407.992188 771.695312 409.050781 770.855469 410.085938 C 770.503906 410.519531 770.148438 410.929688 769.796875 411.359375 C 768.976562 412.359375 768.132812 413.335938 767.273438 414.316406 C 766.878906 414.746094 766.488281 415.195312 766.097656 415.628906 C 765.238281 416.585938 764.355469 417.546875 763.457031 418.503906 C 763.101562 418.875 762.730469 419.269531 762.378906 419.640625 L 762.378906 504.652344 C 769.933594 492.085938 774.007812 478.894531 774.007812 465.367188 L 774.007812 406.113281 C 773.789062 406.386719 773.554688 406.660156 773.339844 406.9375 Z M 773.339844 406.9375 " fill-opacity="1" fill-rule="nonzero"/></g></svg>