<svg xmlns="http://www.w3.org/2000/svg" xmlns:xlink="http://www.w3.org/1999/xlink" width="1080" zoomAndPan="magnify" viewBox="0 0 810 809.999993" height="1080" preserveAspectRatio="xMidYMid meet" version="1.0"><defs><clipPath id="a23cbd2c85"><path d="M 21.292969 21.292969 L 788.542969 21.292969 L 788.542969 788.542969 L 21.292969 788.542969 Z M 21.292969 21.292969 " clip-rule="nonzero"/></clipPath></defs><g clip-path="url(#a23cbd2c85)"><path fill="#000000" d="M 731.253906 203.035156 C 731.285156 202.964844 731.316406 202.910156 731.332031 202.859375 C 731.789062 201.640625 731.171875 200.277344 729.953125 199.8125 C 729.707031 199.71875 729.464844 199.855469 729.199219 199.835938 C 661.039062 92.765625 541.378906 21.527344 405.320312 21.527344 C 318.058594 21.527344 237.550781 50.863281 172.996094 100.101562 C 172.25 100.246094 171.722656 100.703125 171.394531 101.371094 C 80.339844 171.617188 21.527344 281.703125 21.527344 405.335938 C 21.527344 616.949219 193.695312 789.113281 405.320312 789.113281 C 616.925781 789.113281 789.097656 616.941406 789.097656 405.335938 C 789.097656 331.113281 767.867188 261.820312 731.253906 203.035156 Z M 722.875 594.199219 C 701.011719 607.371094 674.554688 618.859375 644.5625 628.441406 C 652.890625 591.578125 657.933594 556.675781 660.234375 523.636719 C 692.039062 513.101562 719.675781 500.460938 741.898438 486.148438 C 742.742188 512.269531 742.082031 537.402344 740.472656 560.949219 C 735.15625 572.351562 729.296875 583.453125 722.875 594.199219 Z M 249.800781 737.867188 C 241.132812 729.0625 233.070312 720.058594 225.550781 710.855469 C 249.375 717.359375 277.398438 723.621094 308.429688 728.40625 C 317.28125 742.796875 327.585938 756.402344 339.546875 768.964844 C 308.152344 763.3125 278.132812 753.699219 250.007812 740.640625 C 250.523438 739.726562 250.554688 738.628906 249.800781 737.867188 Z M 242.617188 737.113281 C 219.367188 725.664062 197.519531 711.8125 177.332031 695.929688 C 188.605469 699.890625 202.273438 704.289062 217.875 708.707031 C 225.5 718.386719 233.734375 727.851562 242.617188 737.113281 Z M 220.632812 704.585938 C 202.917969 681.945312 188.621094 658.222656 177.734375 633.417969 C 207.75 642.847656 241.269531 650.34375 276.996094 655.761719 C 283.714844 679.535156 292.980469 702.140625 305.222656 723.125 C 273.226562 718.039062 244.636719 711.335938 220.632812 704.585938 Z M 62.511719 473.714844 C 62.519531 504.667969 66.464844 537.308594 75.328125 571.550781 C 56.378906 534.042969 43.621094 492.941406 38.425781 449.535156 C 44.847656 457.960938 52.9375 466.011719 62.511719 473.714844 Z M 83.667969 584.160156 C 72.628906 546.640625 67.625 511.066406 67.304688 477.433594 C 88.183594 493.125 115.375 507.074219 147.46875 518.804688 C 148.535156 556.179688 155.847656 591.847656 169.308594 625.671875 C 135.210938 614.191406 105.996094 600.226562 83.667969 584.160156 Z M 87.636719 354.714844 C 108.84375 368.578125 135.46875 380.921875 166.132812 391.320312 C 155.40625 426.371094 148.550781 462.371094 147.4375 498.640625 C 147.292969 503.523438 147.292969 508.382812 147.339844 513.199219 C 114.960938 501.207031 87.691406 487.03125 67.234375 471.171875 C 67.519531 429.203125 75.144531 390.320312 87.636719 354.714844 Z M 70.152344 249.738281 C 78.105469 237.023438 86.761719 225.035156 95.941406 213.675781 C 104.121094 227.457031 117.660156 240.308594 135.605469 251.917969 C 115.769531 280.476562 98.195312 312.40625 85.230469 347.5625 C 68.910156 336.179688 56.257812 323.816406 48.023438 310.699219 C 53.621094 289.566406 61.066406 269.195312 70.152344 249.738281 Z M 88.078125 215.878906 C 89.648438 213.257812 91.300781 210.691406 92.929688 208.105469 C 93.113281 208.488281 93.289062 208.875 93.457031 209.25 C 91.667969 211.445312 89.832031 213.628906 88.078125 215.878906 Z M 212.65625 90.007812 C 213.289062 89.890625 214.101562 89.832031 215.488281 89.769531 C 218.734375 89.609375 215.9375 91.082031 215.488281 92.269531 C 215.054688 93.449219 211.960938 97.28125 210.027344 99.054688 C 208.121094 100.824219 206.789062 102.003906 205.457031 106.269531 C 204.144531 110.542969 205.457031 109.515625 206.789062 107.007812 C 208.121094 104.503906 210.910156 102.445312 215.785156 98.757812 C 220.640625 95.078125 219.03125 96.984375 221.539062 95.804688 C 224.042969 94.628906 225.957031 93.457031 229.203125 91.675781 C 232.453125 89.90625 230.824219 90.507812 233.179688 87.835938 C 235.539062 85.191406 237.023438 85.488281 239.8125 83.265625 C 242.617188 81.0625 244.085938 80.765625 245.261719 79.585938 C 246.449219 78.417969 247.042969 77.960938 248.382812 76.042969 C 249.695312 74.128906 251.476562 73.847656 253.097656 71.480469 C 254.714844 69.117188 255.597656 69.117188 256.9375 67.34375 C 257.105469 67.121094 257.128906 66.953125 257.234375 66.757812 C 264.382812 63.617188 271.632812 60.625 279.015625 57.933594 C 280.90625 61.5 283.617188 64.933594 287.066406 68.195312 C 273.628906 74.167969 259.582031 80.949219 245.238281 88.582031 C 244.816406 88.671875 244.359375 88.773438 243.804688 88.871094 C 242.511719 89.09375 243.105469 89.015625 242.097656 90.234375 C 236.773438 93.113281 231.394531 96.125 226.015625 99.253906 C 224.867188 99.582031 223.707031 100.695312 221.980469 101.273438 C 220.203125 101.851562 219.914062 102.445312 218.140625 103.621094 C 218.011719 103.703125 218.078125 103.894531 217.980469 104 C 206.5625 110.847656 195.125 118.191406 183.761719 126.175781 C 181.117188 122.328125 179.144531 118.359375 177.796875 114.332031 C 188.941406 105.59375 200.542969 97.441406 212.65625 90.007812 Z M 218.398438 109.195312 C 218.589844 110.109375 218.710938 110.984375 218.4375 111.585938 C 217.546875 113.644531 218.4375 111.585938 216.371094 111.871094 C 214.628906 112.121094 214.035156 112.59375 211.816406 113.269531 C 214.019531 111.886719 216.21875 110.527344 218.398438 109.195312 Z M 574.386719 83.988281 C 576.640625 86.257812 578.757812 88.261719 580.304688 88.871094 C 583.246094 90.058594 585.59375 91.820312 588.257812 93.882812 C 590.902344 95.964844 606.246094 114.535156 606.246094 114.535156 C 606.246094 114.535156 607.136719 126.921875 616.863281 129.566406 C 623.550781 131.402344 627.886719 133.214844 630.691406 134.84375 C 626.105469 139.554688 620.589844 144.085938 614.199219 148.382812 C 608.058594 142.121094 601.925781 136.1875 595.882812 130.6875 C 571.300781 108.34375 546.269531 90.789062 523.054688 76.910156 C 527.207031 74.398438 530.910156 71.738281 534.027344 68.957031 C 547.753906 73.605469 561.4375 78.632812 574.386719 83.988281 Z M 640.464844 136.941406 C 645.773438 135.46875 645.476562 137.238281 651.65625 141.078125 C 657.855469 144.917969 656.980469 143.148438 659.625 149.929688 C 662.289062 156.714844 662.867188 152 662.867188 160.832031 C 662.867188 169.683594 669.046875 175.28125 668.171875 181.183594 C 667.300781 187.082031 670.691406 190.921875 668.269531 195.933594 C 665.808594 200.945312 661.976562 202.714844 664.355469 205.667969 C 666.707031 208.617188 665.527344 208.023438 671.140625 209.210938 C 676.726562 210.378906 687.648438 213.035156 690.605469 215.390625 C 693.546875 217.75 694.445312 221.886719 692.953125 223.945312 C 691.480469 226.007812 690.292969 225.710938 682.933594 230.726562 C 681.351562 231.785156 680.023438 232.507812 678.765625 233.164062 C 671.667969 221.058594 664.277344 209.675781 656.667969 199.058594 C 658.328125 198.089844 659.769531 196.824219 660.316406 195.164062 C 660.910156 193.382812 659.144531 194.554688 660.316406 191.417969 C 661.503906 188.269531 660.515625 190.828125 661.503906 188.269531 C 662.488281 185.710938 662.671875 184.539062 662.671875 184.539062 C 662.671875 184.539062 664.238281 183.144531 664.628906 182.367188 C 665.039062 181.582031 665.207031 181.199219 664.628906 178.640625 C 664.050781 176.074219 664.628906 176.851562 662.859375 174.894531 C 661.085938 172.933594 660.101562 172.144531 658.535156 171.5625 C 656.972656 170.96875 656.171875 170.574219 655.183594 170.390625 C 654.214844 170.191406 654.214844 170.96875 652.441406 169.796875 C 650.671875 168.617188 650.191406 168.015625 648.074219 167.433594 C 645.957031 166.847656 646.164062 167.039062 643.59375 165.859375 C 641.019531 164.683594 640.058594 164.082031 639.070312 163.6875 C 638.085938 163.304688 640.828125 165.660156 638.085938 163.304688 C 635.34375 160.9375 636.144531 161.917969 635.34375 160.9375 C 634.539062 159.960938 635.125 161.53125 633.371094 158.582031 C 631.597656 155.628906 631.597656 155.628906 631.597656 155.628906 L 629.03125 154.25 C 629.03125 154.25 629.835938 153.097656 627.871094 153.464844 C 627.054688 153.617188 626.097656 154.25 624.910156 153.464844 C 623.742188 152.6875 623.140625 150.699219 622.546875 151.5 C 622.050781 152.191406 619.949219 152.808594 620.496094 154.980469 C 619.429688 153.867188 618.378906 152.726562 617.328125 151.628906 C 623.902344 147.179688 629.585938 142.5 634.347656 137.617188 C 635.6875 138.84375 635.847656 138.234375 640.464844 136.941406 Z M 704.761719 219.230469 C 703.578125 216.578125 703.578125 210.378906 708.882812 210.082031 C 712.628906 209.882812 717.605469 212.417969 720.285156 213.949219 C 716.789062 219.253906 712.46875 224.433594 707.351562 229.4375 C 706.953125 222.742188 705.855469 221.726562 704.761719 219.230469 Z M 709.832031 310.4375 C 710.175781 313.792969 709.46875 317.660156 709.46875 320.089844 C 709.46875 322.75 706.527344 325.988281 705.347656 331.601562 C 704.164062 337.195312 701.796875 334.253906 701.796875 345.464844 C 701.796875 351.035156 701.453125 359.542969 702.0625 367.847656 C 687.542969 374.917969 671.484375 381.460938 654.039062 387.351562 C 647.417969 348.179688 636.984375 312.882812 624.414062 281.390625 C 646.976562 273.492188 666.753906 264.335938 683.148438 254.148438 C 684.90625 256.511719 686.324219 258.8125 687.046875 261.707031 C 687.953125 265.242188 689.113281 267.3125 691.199219 268.496094 C 691.65625 268.753906 692.074219 268.851562 692.511719 268.898438 C 699.015625 282.601562 704.796875 296.476562 709.832031 310.4375 Z M 529.402344 503.347656 C 528.792969 503.128906 528.273438 502.96875 527.527344 502.65625 C 522.515625 500.589844 521.328125 504.117188 521.328125 501.488281 C 521.328125 498.808594 521.328125 499.714844 519.855469 497.644531 C 518.363281 495.578125 515.71875 494.984375 511.886719 493.492188 C 508.042969 492.019531 509.519531 493.210938 508.042969 493.210938 C 506.570312 493.210938 504.804688 494.085938 501.558594 491.441406 C 498.3125 488.796875 501.558594 491.441406 501.261719 490.566406 C 500.964844 489.675781 502.738281 487.890625 502.738281 487.890625 C 502.738281 487.890625 502.738281 487.890625 500.964844 487.890625 C 499.195312 487.890625 498.617188 486.726562 497.429688 485.539062 C 496.257812 484.355469 494.191406 482.582031 491.546875 482.582031 C 488.882812 482.582031 490.054688 483.175781 487.703125 484.074219 C 485.339844 484.945312 476.792969 484.945312 476.792969 484.945312 C 476.792969 484.945312 473.851562 484.945312 471.484375 484.945312 C 469.121094 484.945312 469.699219 484.945312 467.644531 484.945312 C 465.578125 484.945312 461.746094 484.074219 461.746094 484.074219 C 461.746094 484.074219 459.972656 482.886719 456.734375 481.722656 C 453.496094 480.554688 455.257812 479.953125 452.300781 479.65625 C 449.359375 479.359375 449.65625 481.722656 448.179688 483.777344 C 446.703125 485.84375 448.179688 483.777344 446.113281 484.945312 C 444.042969 486.132812 444.636719 488.203125 444.941406 489.082031 C 445.222656 489.972656 444.941406 492.621094 444.941406 492.621094 C 444.941406 492.621094 441.984375 493.804688 440.210938 492.917969 C 438.4375 492.027344 441.101562 485.257812 441.101562 482.878906 C 441.101562 480.546875 441.101562 482.878906 441.382812 480.824219 C 441.695312 478.757812 444.042969 477.882812 443.746094 476.984375 C 443.464844 476.097656 439.03125 479.351562 437.863281 479.648438 C 436.675781 479.945312 433.132812 482.308594 428.714844 485.53125 C 424.28125 488.789062 426.050781 487.007812 423.6875 487.601562 C 421.339844 488.195312 421.339844 488.195312 419.285156 491.136719 C 417.203125 494.078125 418.097656 493.203125 417.203125 493.796875 C 416.328125 494.375 413.082031 501.46875 413.082031 501.46875 L 409.238281 500.300781 C 409.238281 500.300781 409.238281 500.300781 406.882812 497.917969 C 404.527344 495.570312 406.882812 491.433594 405.320312 489.667969 C 404.96875 489.292969 404.179688 489.292969 403.195312 489.484375 C 403.082031 474.386719 403.027344 459.21875 403.050781 443.996094 C 403.554688 444.1875 404.199219 444.371094 405.320312 444.683594 C 409.238281 445.734375 406.882812 445.421875 409.238281 445.734375 C 411.605469 446.03125 410.417969 448.082031 413.65625 445.734375 C 416.914062 443.371094 416.914062 444.84375 416.914062 443.371094 C 416.914062 441.894531 413.074219 439.234375 410.570312 440.425781 C 407.492188 441.871094 403.933594 439.554688 403.058594 440.425781 C 403.058594 436.089844 403.082031 431.753906 403.089844 427.414062 C 403.757812 427.429688 404.421875 427.429688 405.070312 427.429688 C 404.75 427.871094 404.4375 428.25 405.3125 428.921875 C 406.875 430.109375 400.46875 429.21875 405.441406 431.863281 C 410.417969 434.527344 410.113281 434.527344 413.65625 434.230469 C 417.203125 433.933594 417.191406 435.671875 420.457031 434.375 C 423.679688 433.058594 426.636719 431.269531 426.636719 431.269531 C 426.636719 431.269531 430.460938 430.695312 425.164062 429.21875 C 421.320312 428.136719 418.742188 428.136719 416.488281 427.464844 C 456.429688 427.214844 495.144531 424.503906 531.574219 419.613281 C 532.082031 445.917969 531.421875 473.859375 529.402344 503.347656 Z M 361.464844 454.585938 C 359.117188 453.992188 345.839844 453.992188 342.898438 453.992188 C 339.945312 453.992188 343.492188 446.898438 343.78125 445.429688 C 344.074219 443.972656 344.957031 441.308594 345.558594 439.546875 C 346.160156 437.78125 347.027344 436.304688 347.90625 434.238281 C 348.796875 432.183594 348.484375 432.464844 349.398438 430.414062 C 350.273438 428.34375 350.867188 427.75 351.15625 426.277344 C 351.21875 425.996094 351.265625 425.78125 351.324219 425.570312 C 366.765625 426.558594 382.480469 427.183594 398.410156 427.390625 C 398.3125 448.683594 398.351562 469.96875 398.519531 491.070312 C 395.546875 492.308594 392.410156 493.8125 390.976562 494.09375 C 388.035156 494.6875 386.246094 494.390625 384.195312 494.09375 C 382.125 493.8125 377.996094 491.449219 376.820312 490.269531 C 375.648438 489.082031 373.875 487.609375 373.875 487.609375 C 373.875 487.609375 372.097656 484.945312 371.222656 483.769531 C 370.324219 482.582031 370.636719 482.011719 370.042969 481.121094 C 369.449219 480.234375 370.324219 474.042969 370.324219 471.992188 C 370.324219 469.90625 372.394531 468.144531 372.105469 466.964844 C 371.800781 465.777344 363.832031 455.164062 361.464844 454.585938 Z M 329.621094 435.992188 C 328.136719 437.179688 326.382812 437.46875 322.542969 437.46875 C 318.710938 437.46875 316.34375 437.46875 313.988281 437.1875 C 311.636719 436.890625 310.75 436.59375 309.265625 436 C 307.796875 435.425781 302.769531 434.832031 299.53125 432.175781 C 296.292969 429.515625 299.53125 432.175781 298.363281 429.21875 C 297.175781 426.277344 296.292969 425.082031 293.929688 422.734375 C 292.878906 421.683594 291.988281 420.632812 291.28125 419.628906 C 306.722656 421.714844 322.574219 423.390625 338.761719 424.65625 C 336.820312 425.578125 337.902344 425.957031 336.113281 426.847656 C 333.742188 428.015625 334.335938 429.210938 331.097656 434.816406 C 327.839844 440.425781 331.097656 434.824219 329.621094 435.992188 Z M 656.371094 198.105469 C 656.371094 198.105469 656.257812 198.234375 656.1875 198.355469 C 652.898438 193.816406 649.597656 189.390625 646.261719 185.125 C 645.980469 183.875 645.835938 183.378906 644.417969 182.777344 C 640.066406 177.253906 635.648438 171.921875 631.230469 166.847656 C 633.796875 167.558594 633.972656 167.183594 635.140625 168.015625 C 636.535156 168.996094 636.929688 171.160156 638.308594 171.953125 C 639.6875 172.738281 642.035156 172.730469 644.007812 173.125 C 645.980469 173.515625 645.980469 174.09375 646.765625 174.894531 C 647.550781 175.691406 648.035156 177.453125 648.097656 178.046875 C 648.128906 178.640625 648.539062 180.492188 649.117188 181.140625 C 649.710938 181.773438 649.132812 182.367188 650.695312 183.746094 C 652.257812 185.125 651.867188 185.261719 654.046875 185.785156 C 656.210938 186.3125 656.210938 186.3125 656.210938 186.3125 C 656.210938 186.3125 656.605469 186.890625 656.210938 189.253906 C 655.792969 191.628906 656.371094 198.105469 656.371094 198.105469 Z M 633.386719 176.613281 C 632.320312 178.269531 631.132812 179.929688 632.007812 181.140625 C 633.195312 182.761719 632.207031 183.949219 634.371094 185.519531 C 636.535156 187.089844 636.160156 187.089844 637.113281 188.277344 C 638.101562 189.449219 636.34375 191.425781 638.300781 193.390625 C 640.273438 195.355469 640.074219 197.527344 642.804688 196.34375 C 645.5625 195.171875 644.023438 197.519531 645.667969 193.976562 C 645.886719 193.496094 646.140625 193.144531 646.359375 192.863281 C 656.804688 206.660156 666.242188 220.8125 674.683594 235.21875 C 672.742188 236.203125 671.859375 237.023438 672.285156 238.992188 C 672.992188 242.015625 677.113281 246.8125 680.007812 250.179688 C 663.972656 260.015625 644.554688 268.890625 622.492188 276.59375 C 608.820312 243.339844 592.851562 214.429688 576.59375 189.832031 C 573.425781 185.023438 570.203125 180.378906 566.980469 175.800781 C 584.921875 169.621094 600.492188 162.363281 613.3125 154.300781 C 620.359375 161.59375 627.058594 169.035156 633.386719 176.613281 Z M 349.886719 420.761719 C 349.871094 420.761719 349.839844 420.761719 349.816406 420.761719 C 329.261719 419.398438 309.191406 417.363281 289.808594 414.730469 C 289.808594 414.621094 289.808594 414.53125 289.808594 414.171875 C 289.808594 413.28125 289.808594 410.035156 289.808594 407.109375 C 289.808594 404.148438 290.390625 402.371094 289.808594 399.425781 C 289.222656 396.484375 290.984375 396.78125 291.578125 395.296875 C 292.15625 393.824219 293.054688 394.425781 296.292969 392.058594 C 299.53125 389.695312 296.292969 387.625 295.699219 386.75 C 295.121094 385.863281 295.410156 384.980469 295.410156 383.511719 C 295.410156 382.023438 296.894531 382.328125 296.894531 381.445312 C 296.894531 380.554688 306.917969 375.246094 312.230469 373.476562 C 317.53125 371.710938 314.292969 372.304688 317.53125 372.007812 C 320.769531 371.710938 321.371094 373.1875 327.921875 376.433594 C 334.449219 379.671875 331.097656 376.714844 333.453125 376.433594 C 335.816406 376.121094 337.589844 376.433594 339.652344 376.433594 C 341.710938 376.433594 342.59375 375.246094 342.890625 374.363281 C 343.1875 373.476562 341.117188 372.296875 341.117188 371.414062 C 341.117188 370.53125 344.957031 371.125 346.714844 371.125 C 348.46875 371.125 350.851562 371.125 354.089844 371.125 C 357.328125 371.125 358.8125 371.414062 360.285156 372.890625 C 361.753906 374.375 362.941406 375.246094 366.476562 377.035156 C 370.011719 378.796875 368.824219 377.316406 370.894531 377.316406 C 372.960938 377.316406 372.960938 377.316406 375.03125 377.316406 C 377.089844 377.316406 376.199219 379.679688 376.503906 382.328125 C 376.800781 384.988281 377.683594 386.761719 377.683594 386.761719 C 377.683594 386.761719 377.683594 386.761719 377.683594 390.289062 C 377.683594 393.832031 378.558594 392.949219 379.464844 393.535156 C 380.335938 394.113281 384.761719 402.691406 388.308594 402.097656 C 391.84375 401.503906 390.070312 400.910156 391.257812 399.128906 C 392.429688 397.367188 392.722656 392.347656 392.722656 392.347656 C 392.722656 392.347656 390.664062 389.695312 390.070312 388.515625 C 389.484375 387.34375 388.308594 383.503906 388.019531 381.726562 C 387.722656 379.945312 387.425781 377.300781 386.832031 376.425781 C 386.238281 375.535156 386.832031 371.40625 386.550781 368.167969 C 386.238281 364.921875 387.722656 364.625 388.027344 363.445312 C 388.316406 362.273438 390.671875 360.503906 391.265625 359.605469 C 391.851562 358.714844 394.503906 356.960938 395.683594 355.179688 C 396.453125 354.050781 397.75 353.34375 399.164062 352.636719 C 398.816406 374.636719 398.5625 396.964844 398.449219 419.390625 C 395.785156 418.203125 391.859375 416.167969 391.859375 416.167969 C 391.859375 416.167969 388.898438 413.585938 386.558594 413 C 384.195312 412.40625 380.957031 413 377.996094 413 C 375.054688 413 368.558594 414.050781 367.679688 416.167969 C 366.804688 418.300781 365.609375 420.960938 365.609375 420.960938 C 365.609375 420.960938 366.796875 420.960938 368.558594 420.960938 C 370.324219 420.960938 370.324219 420.070312 372.097656 419.484375 C 373.875 418.894531 373.578125 415.976562 375.9375 416.839844 C 378.292969 417.707031 381.539062 415.679688 383.601562 416.839844 C 385.652344 418.003906 388.898438 420.960938 388.898438 420.960938 C 388.898438 420.960938 389.492188 419.484375 390.390625 420.960938 C 390.703125 421.492188 391.59375 422.042969 392.652344 422.574219 C 378.171875 422.308594 363.933594 421.683594 349.886719 420.761719 Z M 321.546875 130.753906 C 326.382812 130.167969 325.789062 128.394531 330.496094 126.921875 C 335.226562 125.445312 335.511719 123.378906 337.582031 124.554688 C 339.652344 125.726562 336.988281 128.089844 339.9375 128.691406 C 342.890625 129.277344 343.484375 131.84375 346.722656 131 C 349.976562 130.167969 347.308594 132.226562 349.976562 130.167969 C 352.621094 128.097656 353.503906 131.042969 352.621094 128.097656 C 351.742188 125.15625 348.476562 123.378906 347.898438 120.730469 C 347.308594 118.078125 346.144531 120.644531 346.722656 117.003906 C 347.308594 113.363281 347.019531 112.769531 347.605469 110.992188 C 348.195312 109.21875 348.195312 108.640625 348.195312 106.863281 C 348.195312 105.089844 349.070312 105.691406 344.363281 105.089844 C 344.042969 105.058594 343.746094 105.074219 343.441406 105.074219 C 345.527344 102.691406 347.5625 100.433594 349.59375 98.171875 C 353.960938 96.953125 350.152344 97.972656 354.386719 96.839844 C 355.484375 96.550781 356.09375 96.464844 356.46875 96.449219 C 356.640625 96.480469 356.816406 96.527344 357 96.550781 C 357.078125 96.609375 357.136719 96.625 357.242188 96.589844 C 359.902344 97.066406 362.667969 97.433594 365.410156 97.835938 C 365.265625 98.453125 366.050781 98.21875 366.957031 99.117188 C 367.960938 100.078125 365.59375 99.78125 367.960938 100.078125 C 370.308594 100.375 367.664062 100.078125 370.308594 100.375 C 372.96875 100.671875 372.375 101.851562 374.148438 100.375 C 374.347656 100.207031 374.476562 100.109375 374.636719 99.976562 C 371.109375 107.855469 367.359375 116.472656 363.507812 125.460938 C 362.171875 126.96875 362.402344 126.746094 362.828125 127.082031 C 360.558594 132.355469 358.289062 137.832031 355.957031 143.453125 C 354.921875 143.515625 355.566406 142.25 355.566406 142.25 C 355.566406 142.25 355.566406 139.308594 353.800781 138.410156 C 352.035156 137.535156 353.800781 138.410156 351.148438 139.003906 C 348.484375 139.597656 349.390625 139.300781 347.90625 138.707031 C 346.433594 138.113281 344.074219 137.535156 341.40625 136.0625 C 338.761719 134.578125 339.652344 135.46875 337.886719 134.578125 C 336.121094 133.6875 335.816406 133.09375 334.34375 131.035156 C 332.875 128.980469 330.816406 133.101562 329.917969 133.695312 C 329.042969 134.289062 322.550781 136.0625 322.550781 136.0625 C 322.550781 136.0625 322.550781 136.0625 322.550781 134.875 C 322.550781 133.703125 320.488281 133.703125 320.488281 133.703125 C 320.488281 133.703125 319.855469 133.847656 318.910156 133.976562 C 319.785156 132.910156 320.671875 131.820312 321.546875 130.753906 Z M 389.203125 82.097656 C 388.890625 84.757812 390.671875 85.632812 391.554688 85.785156 C 392.4375 85.9375 392.4375 88.878906 392.4375 88.878906 C 392.4375 88.878906 386.238281 92.414062 385.636719 91.539062 C 385.429688 91.195312 384.820312 90.789062 384.144531 90.378906 C 385.742188 86.867188 387.296875 83.492188 388.796875 80.269531 C 389.050781 80.902344 389.261719 81.496094 389.203125 82.097656 Z M 416.03125 74.722656 C 416.921875 74.128906 418.972656 68.820312 419.285156 67.34375 C 419.566406 65.871094 419.285156 63.519531 419.285156 61.75 C 419.285156 59.976562 416.609375 59.382812 414.539062 58.796875 C 414.179688 58.703125 413.867188 58.734375 413.554688 58.75 C 413.976562 50.066406 414.324219 43.355469 414.539062 39.019531 C 417.859375 42.964844 423.199219 49.675781 429.789062 59.128906 C 429.019531 59.609375 428.175781 60.226562 427.71875 60.667969 C 427.125 61.257812 423.597656 62.238281 423.382812 63.023438 C 423.199219 63.808594 422.597656 65.582031 422.597656 65.582031 C 422.597656 65.582031 424.160156 67.144531 422.597656 68.136719 C 421.035156 69.109375 420.449219 73.445312 421.21875 74.230469 C 422.003906 75.015625 422.613281 75.402344 422.203125 76.394531 C 421.8125 77.382812 419.460938 79.53125 418.867188 79.933594 C 418.277344 80.324219 416.109375 82.097656 415.910156 83.675781 C 415.726562 85.238281 416.710938 87.605469 417.304688 88.984375 C 417.882812 90.347656 419.246094 88.582031 419.0625 91.925781 C 418.964844 93.554688 419.191406 95.101562 419.832031 96.117188 C 417.152344 96.183594 414.476562 96.261719 411.78125 96.261719 C 412.09375 89.359375 412.375 82.988281 412.65625 77.085938 C 413.503906 76.234375 415.308594 75.195312 416.03125 74.722656 Z M 410.578125 218.054688 C 411.066406 220.25 409.160156 221.347656 406.964844 222.300781 C 407.148438 216.554688 407.339844 210.871094 407.523438 205.289062 C 409.382812 206.300781 409.054688 206.84375 410.570312 210.972656 C 412.191406 215.398438 409.824219 214.804688 410.578125 218.054688 Z M 382.117188 94.796875 C 382.277344 94.875 382.382812 94.90625 382.519531 94.972656 C 382.359375 94.964844 382.230469 94.941406 382.078125 94.917969 C 382.085938 94.882812 382.101562 94.835938 382.117188 94.796875 Z M 406.835938 100.914062 C 406.722656 103.589844 406.625 106.316406 406.480469 109.121094 C 406.089844 108.867188 405.738281 108.601562 405.320312 108.335938 C 403.460938 107.160156 398.914062 106.855469 395.386719 106.855469 C 391.851562 106.855469 387.128906 110.390625 384.773438 111.863281 C 382.40625 113.355469 384.773438 111.863281 381.53125 119.242188 C 378.285156 126.617188 382.40625 121.605469 383 124.546875 C 383.59375 127.5 383 124.546875 383.59375 126.023438 C 384.1875 127.507812 386.550781 128.386719 388.027344 131.332031 C 389.492188 134.289062 388.316406 133.398438 388.027344 136.0625 C 387.730469 138.707031 386.839844 139.300781 385.066406 141.945312 C 383.296875 144.605469 383.898438 144.015625 381.539062 144.902344 C 379.167969 145.777344 380.058594 144.605469 380.058594 144.605469 C 380.058594 144.605469 380.652344 138.105469 380.355469 137.230469 C 380.058594 136.355469 380.355469 134.289062 379.167969 134.867188 C 377.996094 135.460938 376.523438 136.636719 375.648438 135.164062 C 374.757812 133.6875 375.054688 133.09375 375.054688 133.09375 C 375.054688 133.09375 372.105469 131.324219 371.511719 130.449219 C 370.925781 129.558594 372.105469 127.792969 372.105469 127.792969 C 372.105469 127.792969 373.882812 125.140625 373.882812 124.25 C 373.882812 123.371094 373.882812 121.308594 373.882812 121.308594 L 373.289062 117.46875 L 373.289062 114.726562 C 373.507812 114.222656 373.730469 113.691406 373.949219 113.195312 L 375.945312 111.863281 L 380.371094 110.101562 L 381.261719 106.261719 L 383.015625 103.613281 C 383.015625 103.613281 390.398438 103.902344 391.570312 103.902344 C 392.742188 103.902344 399.53125 104.199219 400.726562 104.199219 C 401.824219 104.199219 402.386719 101.234375 402.449219 100.808594 C 403.902344 100.855469 405.367188 100.890625 406.835938 100.914062 Z M 410.578125 130.464844 C 411.894531 131.042969 412.488281 133.109375 413.664062 136.367188 C 414.851562 139.605469 414.257812 139.011719 415.140625 139.011719 C 416.03125 139.011719 417.800781 141.078125 417.800781 141.078125 C 417.800781 141.078125 422.21875 144.917969 422.21875 147.269531 C 422.21875 149.617188 421.347656 149.625 419.871094 150.804688 C 418.378906 151.984375 417.800781 153.753906 417.507812 155.527344 C 417.210938 157.296875 418.691406 160.242188 416.929688 160.539062 C 415.140625 160.824219 415.140625 160.824219 410.585938 160.824219 C 409.992188 160.824219 409.503906 160.859375 409.121094 160.921875 C 409.503906 150.203125 409.929688 139.980469 410.324219 130.320312 C 410.378906 130.351562 410.515625 130.433594 410.578125 130.464844 Z M 346.777344 190.921875 C 346.761719 190.640625 346.722656 190.449219 346.722656 190.03125 C 346.722656 187.089844 348.203125 185.320312 349.078125 182.078125 C 349.976562 178.839844 350.859375 180.011719 357.054688 175.28125 C 363.238281 170.574219 360.582031 173.8125 362.949219 173.230469 C 365.304688 172.636719 364.71875 172.933594 366.1875 169.691406 C 367.664062 166.445312 370.027344 167.914062 373.5625 166.148438 C 377.089844 164.386719 373.5625 166.148438 377.089844 164.386719 C 380.632812 162.613281 377.089844 164.386719 376.800781 161.136719 C 376.503906 157.898438 374.4375 158.78125 378.277344 158.78125 C 382.117188 158.78125 381.234375 157.304688 381.234375 157.304688 C 381.234375 157.304688 381.234375 157.304688 382.40625 155.238281 C 383.585938 153.167969 384.476562 155.824219 385.355469 155.824219 C 386.230469 155.824219 388.019531 155.824219 390.664062 154.347656 C 393.308594 152.863281 395.097656 151.992188 396.558594 150.8125 C 398.039062 149.632812 398.335938 149.328125 398.914062 146.386719 C 399.507812 143.445312 397.742188 143.734375 397.445312 141.671875 C 397.140625 139.605469 398.328125 139.308594 398.03125 137.535156 C 397.734375 135.765625 397.734375 134.875 397.734375 134.875 C 397.734375 134.875 397.734375 133.398438 398.617188 131.339844 C 399.5 129.277344 400.101562 131.042969 401.863281 130.167969 C 403.621094 129.285156 404.519531 129.871094 405.3125 128.691406 C 405.375 128.582031 405.550781 128.628906 405.65625 128.582031 C 404.839844 148.292969 403.996094 170.421875 403.164062 194.363281 C 383.671875 194.105469 364.800781 192.933594 346.777344 190.921875 Z M 384.449219 99.957031 C 384.417969 102.074219 383.824219 101.851562 382.117188 101.851562 C 380.707031 101.851562 379.738281 102.332031 378.421875 103.070312 C 378.933594 101.867188 379.472656 100.71875 379.992188 99.535156 C 381.492188 99.679688 382.945312 99.847656 384.449219 99.957031 Z M 365.183594 133.558594 C 365.648438 133.984375 366.082031 134.394531 366.195312 135.179688 C 366.492188 137.246094 366.195312 135.179688 365.3125 136.652344 C 364.433594 138.121094 364.117188 138.714844 362.433594 140.148438 C 363.339844 137.929688 364.261719 135.714844 365.183594 133.558594 Z M 403.019531 199.074219 C 402.738281 207.40625 402.457031 215.929688 402.175781 224.644531 C 400.828125 225.597656 400.550781 226.597656 400.109375 229.253906 C 399.515625 232.78125 401.582031 231.3125 401.296875 236.621094 C 400.980469 241.929688 400.980469 239.28125 398.625 242.226562 C 396.269531 245.167969 395.097656 243.699219 393.308594 243.394531 C 391.546875 243.105469 389.789062 237.496094 389.195312 233.664062 C 388.605469 229.832031 389.78125 229.832031 389.476562 225.996094 C 389.195312 222.164062 388.011719 222.46875 385.050781 220.394531 C 382.109375 218.324219 381.226562 219.222656 378.269531 218.324219 C 375.320312 217.453125 375.03125 217.742188 371.199219 215.976562 C 367.359375 214.203125 370.613281 213.613281 368.535156 211.253906 C 366.476562 208.898438 364.398438 208.304688 361.746094 206.828125 C 359.101562 205.355469 357.039062 204.175781 355.261719 203.589844 C 353.488281 202.996094 353.199219 201.226562 352.894531 198.28125 C 352.796875 197.34375 352.492188 196.71875 352.101562 196.183594 C 368.496094 197.859375 385.515625 198.84375 403.019531 199.074219 Z M 354.683594 264.648438 C 355.871094 264.648438 359.398438 261.996094 364.136719 258.925781 C 364.136719 258.925781 364.136719 258.925781 365.898438 259.925781 C 367.671875 260.921875 365.898438 259.925781 365.601562 260.808594 C 365.3125 261.691406 367.078125 261.691406 368.550781 264.054688 C 370.035156 266.414062 377.699219 271.421875 377.097656 272.90625 C 376.515625 274.382812 377.097656 272.90625 367.070312 274.382812 C 357.054688 275.855469 367.070312 274.382812 364.136719 274.085938 C 361.167969 273.796875 361.167969 271.726562 359.398438 271.144531 C 357.632812 270.550781 357.921875 269.074219 354.386719 268.777344 C 350.859375 268.488281 354.386719 268.777344 351.148438 269.074219 C 347.910156 269.371094 349.671875 269.667969 347.019531 269.074219 C 344.371094 268.488281 344.371094 267.597656 344.371094 267.597656 C 344.371094 267.597656 353.511719 264.648438 354.683594 264.648438 Z M 455.28125 192.75 C 454.3125 191.121094 453.4375 189.695312 452.292969 188.558594 C 450.535156 186.785156 452.292969 188.558594 450.242188 191.515625 C 448.171875 194.457031 450.242188 191.515625 450.695312 192.6875 C 450.746094 192.78125 450.695312 192.925781 450.648438 193.046875 C 446.496094 193.34375 442.289062 193.542969 438.0625 193.746094 C 436.84375 193.078125 435.570312 192.171875 434.316406 190.914062 C 431.953125 188.550781 434.019531 187.957031 433.429688 185.015625 C 432.851562 182.070312 433.132812 183.539062 431.0625 182.65625 C 429.011719 181.773438 428.417969 181.773438 427.542969 180.300781 C 426.652344 178.824219 424.289062 178.230469 422.53125 177.644531 C 420.746094 177.054688 418.691406 177.054688 414.265625 176.46875 C 409.832031 175.875 411.902344 177.347656 410.585938 179.121094 C 409.847656 180.097656 408.992188 181.621094 408.269531 183.957031 C 408.4375 179.273438 408.589844 174.671875 408.765625 170.15625 C 409.359375 170.109375 409.96875 169.964844 410.578125 169.683594 C 412.488281 168.796875 414.851562 166.140625 414.851562 166.140625 C 414.851562 166.140625 417.792969 167.625 421.035156 170.574219 C 424.273438 173.515625 426.355469 175.28125 428.410156 177.941406 C 430.460938 180.597656 432.25 181.78125 438.132812 179.121094 C 444.035156 176.46875 439.921875 178.832031 444.035156 177.941406 C 448.171875 177.0625 445.207031 175.28125 444.035156 173.8125 C 442.863281 172.339844 440.796875 172.042969 437.855469 170.863281 C 434.894531 169.691406 435.191406 168.796875 437.855469 169.089844 C 440.5 169.386719 443.738281 169.386719 447.578125 168.203125 C 451.417969 167.03125 449.054688 164.980469 449.054688 164.980469 C 449.054688 164.980469 444.339844 163.191406 439.625 159.367188 C 434.894531 155.535156 436.667969 156.121094 436.089844 154.355469 C 435.496094 152.585938 439.929688 153.472656 441.101562 153.472656 C 442.269531 153.472656 443.746094 155.542969 446.703125 158.195312 C 449.648438 160.84375 448.460938 157.609375 448.460938 156.714844 C 448.460938 155.832031 447.289062 150.820312 446.113281 147.566406 C 444.941406 144.328125 440.804688 146.089844 439.328125 145.214844 C 437.855469 144.328125 431.953125 139.019531 431.359375 138.121094 C 430.78125 137.246094 430.46875 126.328125 428.417969 124.859375 C 426.363281 123.378906 423.6875 122.792969 421.929688 121.324219 C 420.144531 119.851562 417.792969 118.367188 416.03125 116.898438 C 414.433594 115.558594 412.597656 113.589844 411.066406 112.335938 C 411.238281 108.441406 411.398438 104.648438 411.566406 101 C 421.898438 100.984375 431.9375 100.457031 441.644531 99.542969 C 443.820312 101.675781 446.015625 103.960938 447.578125 105.304688 C 450.128906 107.472656 453.101562 107.847656 453.480469 113.554688 C 453.871094 119.257812 455.644531 118.671875 458.378906 118.671875 C 461.136719 118.671875 463.292969 119.851562 463.894531 120.242188 C 464.472656 120.644531 462.53125 122.414062 461.9375 123.777344 C 461.34375 125.15625 459.179688 126.738281 461.136719 129.871094 C 463.109375 133.023438 459.589844 134.996094 463.996094 134.394531 C 467.171875 133.96875 469.058594 131.636719 470.242188 130.425781 C 470.730469 131.507812 471.246094 132.636719 471.75 133.734375 C 471.636719 134.84375 471.503906 136.011719 471.359375 137.152344 C 470.964844 140.484375 467.742188 146.003906 471.902344 149.546875 C 476.078125 153.082031 476.867188 154.652344 480.199219 156.222656 C 480.824219 156.503906 481.300781 156.816406 481.78125 157.113281 C 485.773438 166.96875 489.667969 177.445312 493.429688 188.515625 C 481.15625 190.34375 468.40625 191.757812 455.28125 192.75 Z M 424.984375 95.941406 C 427.960938 94.273438 431.109375 92.023438 433.429688 92.519531 C 435.777344 93.015625 435.136719 93.601562 436.84375 95.210938 C 432.921875 95.527344 428.980469 95.78125 424.984375 95.941406 Z M 490.832031 167.253906 C 493.035156 169.171875 493.332031 169.988281 496.546875 171.160156 C 500.277344 172.539062 498.898438 173.71875 501.054688 175.488281 C 503.21875 177.269531 504.796875 177.054688 508.132812 177.054688 C 511.484375 177.054688 512.863281 180.210938 514.636719 180.589844 C 516.390625 180.988281 517 181.582031 518.363281 180.589844 C 519.742188 179.609375 519.742188 181.976562 519.742188 178.230469 C 519.742188 174.496094 520.542969 176.667969 519.742188 172.339844 C 518.957031 168.007812 516.015625 157 513.253906 152.09375 C 510.496094 147.179688 511.875 147.382812 514.242188 145.214844 C 516.589844 143.050781 519.140625 143.644531 519.140625 139.910156 C 519.140625 136.164062 516.976562 135.386719 519.140625 130.464844 C 520.015625 128.492188 520.929688 127.777344 521.65625 127.144531 C 534.292969 141.007812 547.105469 156.351562 559.523438 173.476562 C 541.109375 179.378906 520.488281 184.226562 498.207031 187.753906 C 495.792969 180.667969 493.339844 173.835938 490.832031 167.253906 Z M 407.058594 96.183594 C 400.4375 96.117188 393.917969 95.855469 387.546875 95.382812 C 386.445312 93.707031 392.523438 94.425781 393.902344 93.59375 C 395.386719 92.703125 400.390625 94.46875 400.390625 94.46875 C 400.390625 94.46875 403.058594 95.058594 405.320312 94.765625 C 406.355469 94.621094 406.652344 94.746094 406.746094 94.90625 C 406.859375 94.628906 407.011719 94.15625 407.179688 93.640625 C 407.140625 94.507812 407.097656 95.324219 407.058594 96.183594 Z M 383.875 79.707031 C 381.886719 78.617188 380.761719 77.710938 379.398438 77.695312 C 377.691406 77.671875 379.753906 78.257812 377.691406 77.671875 C 375.632812 77.085938 373.265625 77.695312 373.265625 77.695312 C 372.089844 79.152344 372.671875 77.382812 372.089844 79.152344 C 371.496094 80.925781 371.496094 84.101562 372.671875 83.996094 C 373.859375 83.867188 372.089844 82.988281 373.859375 83.867188 C 375.632812 84.757812 374.140625 84.757812 375.632812 84.757812 C 377.097656 84.757812 376.914062 83.8125 378.046875 83.988281 C 379.160156 84.15625 376.808594 82.691406 379.160156 84.15625 C 380.195312 84.796875 380.785156 85.09375 381.277344 85.304688 C 379.984375 88.109375 378.621094 91.15625 377.265625 94.136719 C 377.226562 94.121094 377.15625 94.058594 377.15625 94.058594 C 377.15625 94.058594 377.027344 94.210938 376.890625 94.402344 C 376.273438 94.324219 375.65625 94.273438 375.046875 94.210938 C 375.046875 94.15625 375.03125 94.121094 375.046875 94.058594 C 375.335938 90.644531 375.335938 90.644531 375.335938 90.644531 L 374.15625 89.136719 C 374.15625 89.136719 373.324219 88.824219 371.679688 89.136719 C 370.035156 89.472656 367.6875 91.539062 367.832031 92.414062 C 367.941406 93.152344 368.867188 92.398438 368.296875 93.328125 C 366.363281 93.054688 364.390625 92.792969 362.476562 92.496094 C 362.546875 92.199219 362.613281 91.941406 362.660156 91.492188 C 362.957031 88.878906 362.660156 85.984375 362.660156 85.984375 C 362.660156 85.984375 363.085938 84.347656 364.199219 82.144531 C 379.648438 65.515625 392.429688 52.769531 400.574219 44.898438 C 396.566406 52.914062 390.753906 64.851562 383.875 79.707031 Z M 427.824219 308 C 429.613281 305.632812 431.960938 309.183594 438.140625 304.757812 C 444.339844 300.324219 440.507812 302.980469 441.101562 301.519531 C 441.695312 300.039062 441.101562 299.742188 441.101562 298.28125 C 441.101562 296.796875 442.269531 294.441406 442.269531 293.550781 C 442.269531 292.660156 444.042969 291.484375 445.808594 290.015625 C 447.570312 288.546875 448.171875 288.84375 450.832031 287.652344 C 453.480469 286.480469 454.65625 285.292969 455.53125 284.722656 C 456.4375 284.132812 457.320312 282.0625 462.921875 278.519531 C 468.511719 274.984375 463.203125 280.578125 462.609375 282.0625 C 462.035156 283.539062 457.023438 287.652344 457.898438 291.796875 C 458.785156 295.917969 459.371094 292.964844 462.609375 292.382812 C 465.851562 291.796875 470.875 286.777344 471.757812 285.292969 C 472.648438 283.808594 480.023438 278.222656 479.726562 277.050781 C 479.429688 275.867188 479.429688 274.390625 479.429688 274.390625 C 479.429688 274.390625 476.785156 273.507812 473.25 271.738281 C 469.699219 269.964844 473.25 271.738281 467.941406 270.253906 C 462.617188 268.777344 467.941406 270.253906 465.578125 267.609375 C 463.210938 264.960938 465.578125 267.609375 462.339844 266.429688 C 459.097656 265.25 462.339844 266.429688 462.339844 264.367188 C 462.339844 262.300781 465.296875 262.878906 467.644531 258.933594 C 470.011719 254.972656 469.121094 256.09375 467.644531 254.332031 C 466.171875 252.566406 465.859375 254.042969 462.617188 254.042969 C 459.378906 254.042969 459.097656 254.332031 454.089844 255.804688 C 449.0625 257.296875 454.089844 255.804688 452.019531 258.941406 C 449.953125 262.066406 450.546875 261.121094 449.0625 262.308594 C 447.585938 263.480469 446.121094 264.375 440.515625 264.96875 C 434.910156 265.546875 440.515625 264.96875 441.390625 263.183594 C 442.277344 261.410156 441.390625 263.183594 444.347656 258.941406 C 447.289062 254.683594 447.007812 256.40625 448.46875 254.339844 C 449.960938 252.269531 452.902344 251.695312 454.96875 250.210938 C 457.039062 248.726562 458.507812 249.328125 461.457031 248.726562 C 464.414062 248.148438 470.621094 248.726562 476.503906 248.4375 C 482.390625 248.148438 481.515625 247.554688 482.992188 245.785156 C 484.464844 244.011719 486.230469 240.476562 486.832031 238.410156 C 487.433594 236.339844 488.898438 236.636719 489.492188 235.761719 C 490.070312 234.875 493.316406 231.921875 493.027344 230.152344 C 492.714844 228.386719 492.433594 226.625 490.960938 225.726562 C 489.484375 224.851562 488.015625 224.851562 485.058594 223.664062 C 482.117188 222.496094 482.710938 223.070312 482.710938 219.535156 C 482.710938 216 482.710938 219.535156 481.820312 219.238281 C 480.945312 218.941406 476.511719 216.882812 472.96875 215.398438 C 469.433594 213.925781 471.214844 215.109375 467.382812 214.230469 C 463.550781 213.347656 463.828125 207.148438 462.355469 205.675781 C 461.085938 204.414062 459.597656 200.421875 457.921875 197.242188 C 470.636719 196.207031 483.070312 194.796875 495.015625 192.984375 C 497.207031 199.558594 499.371094 206.308594 501.4375 213.308594 C 505.085938 225.53125 508.566406 238.753906 511.835938 252.847656 C 510.738281 251.726562 510.570312 251.78125 509.535156 250.660156 C 508.222656 249.183594 511.902344 249.328125 507.628906 248.445312 C 503.355469 247.566406 501.878906 247.269531 500.707031 247.566406 C 499.523438 247.859375 498.785156 247.71875 498.785156 247.71875 C 498.785156 247.71875 498.34375 247.566406 497.75 246.972656 C 497.15625 246.394531 496.417969 244.902344 496.417969 243.730469 C 496.417969 242.5625 496.417969 241.085938 496.417969 240.195312 C 496.417969 239.324219 497.011719 238.28125 496.273438 238.425781 C 495.539062 238.585938 494.800781 238.425781 494.800781 238.425781 C 492.433594 241.824219 489.789062 243.292969 489.917969 244.324219 C 490.078125 245.359375 489.621094 246.972656 489.917969 247.71875 C 490.230469 248.453125 490.015625 249.335938 489.804688 250.515625 C 489.636719 251.703125 489.035156 251.550781 488.617188 253.769531 C 488.160156 255.972656 487.273438 257.609375 487.273438 258.1875 C 487.273438 258.78125 486.679688 259.078125 487.273438 260.6875 C 487.863281 262.316406 483.296875 261.578125 487.863281 262.316406 C 492.433594 263.054688 490.96875 262.019531 495.683594 262.316406 C 500.394531 262.605469 499.082031 261.867188 503.203125 261.28125 C 507.339844 260.6875 508.507812 259.65625 509.398438 259.796875 C 510.273438 259.949219 508.363281 261.371094 507.628906 262.582031 C 506.890625 263.792969 509.535156 263.785156 511.46875 263.785156 C 512.847656 263.785156 513.535156 264.375 514.378906 264.273438 C 516.855469 275.808594 519.140625 287.929688 521.191406 300.628906 C 491.640625 304.960938 460.207031 307.613281 427.664062 308.304688 C 427.710938 308.167969 427.742188 308.109375 427.824219 308 Z M 518.347656 260.328125 C 518.441406 259.976562 518.363281 259.597656 518.082031 259.117188 C 514.339844 242.128906 510.234375 226.390625 505.960938 211.960938 C 503.941406 205.152344 501.839844 198.621094 499.714844 192.199219 C 522.417969 188.535156 543.433594 183.484375 562.210938 177.332031 C 565.777344 182.320312 569.320312 187.339844 572.792969 192.605469 C 588.777344 216.851562 604.546875 245.359375 618.03125 278.132812 C 590.742188 287.3125 559.578125 294.714844 525.835938 299.917969 C 523.574219 286.023438 521.074219 272.835938 518.347656 260.328125 Z M 564.238281 171.984375 C 550.832031 153.386719 536.960938 136.679688 523.292969 121.863281 C 523.277344 121.5 523.292969 121.230469 523.277344 120.828125 C 522.867188 113.15625 524.65625 115.914062 525.828125 113.75 C 527.011719 111.574219 523.886719 108.433594 520.71875 106.476562 C 517.570312 104.503906 510.683594 99.78125 508.535156 96.839844 C 507.300781 95.164062 503.820312 90.941406 500.5 87.316406 C 507.027344 84.984375 512.984375 82.371094 518.304688 79.53125 C 541.933594 93.464844 567.554688 111.320312 592.699219 134.167969 C 598.757812 139.683594 604.507812 145.3125 610.113281 151.011719 C 597.5 158.894531 582.074219 165.972656 564.238281 171.984375 Z M 496.8125 83.5625 C 495.746094 82.578125 494.808594 81.792969 494.183594 81.496094 C 491.242188 80.132812 493.210938 83.667969 488.28125 77.960938 C 483.382812 72.277344 481.019531 72.851562 478.835938 72.066406 C 476.6875 71.289062 474.925781 70.304688 472.351562 68.148438 C 469.800781 65.972656 471.582031 67.167969 468.816406 65.589844 C 466.058594 64.019531 465.496094 63.046875 460.566406 59.695312 C 457.65625 57.714844 455.128906 57.757812 453.488281 58.09375 C 442.246094 49.523438 432.738281 42.996094 425.835938 38.523438 C 427.117188 38.828125 428.683594 39.195312 430.125 39.550781 C 446.160156 44.574219 477.058594 55.816406 513.503906 76.742188 C 508.476562 79.195312 502.921875 81.496094 496.8125 83.5625 Z M 447.242188 59.296875 C 446.816406 59.214844 445.832031 58.71875 443.65625 57.324219 C 438.140625 53.789062 434.824219 52.410156 433.4375 53.003906 C 432.875 53.234375 432.304688 53.546875 431.792969 53.820312 C 428.722656 49.515625 425.90625 45.707031 423.527344 42.652344 C 429.605469 46.597656 437.652344 52.113281 447.242188 59.296875 Z M 408.742188 60.347656 C 406.371094 60.761719 402.722656 63.535156 400.980469 64.402344 C 399.578125 65.109375 397.535156 66.625 393.816406 69.558594 C 401.90625 52.535156 407.726562 41.121094 409.929688 36.839844 C 409.707031 41.226562 409.296875 49.226562 408.742188 60.347656 Z M 350.378906 90.265625 C 348.773438 89.9375 347.234375 89.5625 345.679688 89.199219 C 345.847656 89.054688 345.921875 89.039062 346.152344 88.871094 C 349.390625 86.226562 348.203125 88.101562 350.859375 85.984375 C 353.511719 83.867188 349.390625 85.632812 353.511719 83.859375 C 357.640625 82.089844 357.640625 82.089844 357.640625 82.089844 L 357.640625 78.847656 L 352.96875 79.144531 C 352.628906 79.722656 354.691406 75.609375 349.679688 79.144531 C 344.660156 82.683594 342.601562 82.089844 342.007812 82.976562 C 341.414062 83.867188 339.363281 85.984375 339.363281 85.984375 C 339.363281 85.984375 336.121094 83.972656 336.417969 85.984375 C 336.46875 86.386719 336.484375 86.632812 336.5 86.898438 C 332.355469 85.761719 328.433594 84.527344 324.65625 83.21875 C 355.660156 63.410156 381.582031 49.707031 396.386719 42.363281 C 386.34375 52.113281 370.011719 68.53125 350.378906 90.265625 Z M 345.742188 94.355469 C 345.3125 94.796875 345.085938 95.230469 344.371094 96.246094 C 342.890625 98.316406 339.058594 97.722656 342.890625 98.316406 C 342.984375 98.332031 343.050781 98.347656 343.136719 98.363281 C 340.964844 100.808594 338.832031 103.191406 336.613281 105.746094 C 336.300781 105.492188 336.113281 105.050781 336.113281 104.214844 C 336.113281 100.382812 334.335938 103.632812 336.113281 100.382812 C 337.886719 97.136719 339.355469 94.484375 338.175781 94.1875 C 336.996094 93.890625 333.453125 94.1875 333.453125 94.1875 C 330.808594 94.78125 325.5 94.78125 322.261719 97.433594 C 319.007812 100.085938 318.421875 99.789062 316.351562 102.445312 C 314.292969 105.097656 313.113281 105.097656 312.519531 105.980469 C 311.925781 106.863281 308.398438 108.554688 310.15625 109.1875 C 311.925781 109.8125 312.519531 108.257812 314.589844 109.1875 C 316.65625 110.109375 318.429688 112.167969 318.429688 112.167969 C 318.429688 112.167969 318.429688 113.355469 318.726562 114.535156 C 319.007812 115.703125 315.171875 118.664062 315.476562 119.546875 C 315.765625 120.425781 314.597656 122.785156 315.476562 124.554688 C 316.320312 126.261719 315.085938 125.855469 317.617188 128.171875 C 315.925781 130.222656 314.25 132.253906 312.527344 134.351562 C 311.839844 134.378906 311.574219 134.34375 311.054688 134 C 310.164062 133.40625 310.164062 131.339844 310.164062 131.339844 C 310.164062 131.339844 312.824219 129.566406 312.824219 128.691406 C 312.824219 127.8125 312.527344 126.625 312.527344 126.625 L 310.460938 123.96875 C 310.460938 123.96875 307.222656 120.730469 306.765625 119.839844 C 306.289062 118.953125 303.972656 118.351562 303.972656 118.351562 C 303.972656 118.351562 303.378906 114.824219 303.378906 111.863281 C 303.378906 108.921875 300.429688 109.507812 300.429688 109.507812 C 300.429688 109.507812 298.082031 109.507812 296.011719 109.507812 C 293.9375 109.507812 292.765625 110.390625 291.289062 110.6875 C 289.902344 110.964844 288.171875 110.71875 284.339844 110.695312 C 296.414062 101.914062 308.183594 93.867188 319.335938 86.609375 C 327.328125 89.609375 336.121094 92.246094 345.742188 94.355469 Z M 280.59375 113.460938 C 280.667969 113.394531 280.730469 113.347656 280.804688 113.300781 C 280.722656 113.347656 280.699219 113.394531 280.59375 113.460938 Z M 405.320312 527.726562 C 404.476562 528.039062 404.140625 528.601562 403.675781 529.121094 C 403.546875 521.21875 403.445312 513.273438 403.347656 505.300781 C 403.515625 505.816406 403.628906 506.191406 403.628906 506.191406 L 406.585938 507.652344 C 406.59375 507.652344 406.890625 527.125 405.320312 527.726562 Z M 410.972656 422.78125 C 410.425781 422.78125 409.90625 422.78125 409.359375 422.765625 C 409.222656 422.652344 409.113281 422.546875 408.953125 422.4375 C 407.1875 420.960938 408.390625 419.496094 404.246094 419.773438 C 403.742188 419.824219 403.507812 419.855469 403.132812 419.902344 C 403.265625 396.339844 403.523438 372.832031 403.902344 349.726562 C 405 348.917969 406.050781 348.125 407.46875 347.226562 C 409.824219 345.75 407.46875 347.226562 410.578125 343.699219 C 413.664062 340.15625 410.417969 340.742188 410.578125 338.382812 C 410.707031 336.035156 412.191406 325.699219 413.960938 326.589844 C 415.734375 327.464844 413.960938 326.589844 417.800781 326.878906 C 421.644531 327.167969 417.800781 326.878906 419.292969 323.632812 C 420.753906 320.386719 422.53125 320.097656 423.117188 318.621094 C 423.695312 317.164062 424.289062 315.6875 425.171875 313.066406 C 459.027344 312.488281 491.511719 309.859375 521.9375 305.488281 C 527.03125 338.191406 530.53125 374.667969 531.472656 414.925781 C 493.445312 420.039062 452.894531 422.78125 410.972656 422.78125 Z M 526.597656 304.808594 C 560.871094 299.628906 592.347656 292.1875 619.925781 282.921875 C 632.496094 314.363281 642.910156 349.65625 649.492188 388.859375 C 615.964844 399.8125 577.667969 408.453125 536.167969 414.28125 C 535.207031 374.035156 531.703125 337.550781 526.597656 304.808594 Z M 518.5 74.152344 C 500.867188 63.898438 484.554688 55.929688 470.316406 49.722656 C 488.121094 54.550781 508.347656 60.433594 528.816406 67.214844 C 525.8125 69.628906 522.402344 71.972656 518.5 74.152344 Z M 398.96875 35.84375 C 384.796875 42.699219 355.101562 57.949219 319.023438 81.222656 C 310.003906 77.71875 302.289062 73.710938 296.15625 69.363281 C 340.1875 50.394531 376.617188 40.148438 393.207031 35.988281 C 395.128906 35.941406 397.039062 35.886719 398.96875 35.84375 Z M 313.957031 84.566406 C 302.296875 92.191406 290.113281 100.566406 277.550781 109.820312 C 277.53125 109.324219 277.597656 108.851562 277.421875 108.335938 C 276.828125 106.558594 276.25 104.496094 275.351562 103.03125 C 274.46875 101.546875 274.183594 99.492188 273.582031 97.425781 C 272.988281 95.363281 273.285156 95.363281 272.097656 93.296875 C 270.925781 91.226562 268.859375 89.160156 268.257812 87.394531 C 267.671875 85.625 267.085938 85.625 265.324219 85.921875 C 263.558594 86.21875 263.550781 85.625 262.066406 86.21875 C 261.3125 86.515625 260.921875 86.28125 260.167969 86.089844 C 270.710938 80.773438 281.035156 75.972656 291.011719 71.585938 C 297.085938 76.394531 304.816406 80.75 313.957031 84.566406 Z M 233.773438 100.382812 C 232.894531 101.554688 232.292969 101.554688 231.113281 102.15625 C 230.824219 102.300781 230.609375 102.25 230.429688 102.074219 C 231.59375 101.417969 232.734375 100.808594 233.894531 100.152344 C 233.847656 100.230469 233.839844 100.289062 233.773438 100.382812 Z M 205.761719 138.714844 C 206.636719 138.714844 204.585938 140.191406 203.101562 140.863281 C 202.105469 141.335938 201.785156 142.898438 201.59375 144.230469 C 200.519531 143.414062 199.46875 142.617188 198.46875 141.800781 C 200.480469 140.847656 205.066406 138.714844 205.761719 138.714844 Z M 207.230469 145.792969 C 208.121094 145.792969 210.765625 144.320312 210.765625 144.320312 C 210.765625 144.320312 214.300781 142.84375 214.605469 141.078125 C 214.910156 139.316406 215.785156 149.328125 215.785156 149.328125 C 215.785156 149.328125 216.296875 151.925781 216.5625 154.125 C 212.105469 151.574219 207.960938 148.929688 204.175781 146.203125 C 205.472656 146.035156 206.820312 145.792969 207.230469 145.792969 Z M 219.9375 163.289062 C 220.523438 165.050781 221.378906 167.640625 221.097656 168.804688 C 220.785156 169.980469 220.507812 171.457031 219.601562 172.644531 C 218.734375 173.820312 218.734375 180.902344 217.539062 182.085938 C 216.371094 183.257812 217.539062 185.03125 216.664062 188.574219 C 215.785156 192.109375 217.539062 193.007812 217.539062 193.007812 L 216.664062 197.425781 C 216.664062 197.425781 215.191406 202.445312 214.300781 204.214844 C 213.425781 205.988281 212.824219 208.046875 212.824219 208.046875 C 212.824219 208.046875 213.707031 213.949219 211.65625 215.71875 C 209.585938 217.492188 211.65625 215.71875 210.765625 216.601562 C 209.882812 217.484375 209.59375 220.128906 209 222.207031 C 208.417969 224.265625 211.65625 228.691406 211.953125 230.160156 C 212.242188 231.640625 212.242188 233.109375 211.953125 234.296875 C 211.65625 235.472656 213.121094 238.722656 212.242188 240.789062 C 211.359375 242.859375 208.695312 253.175781 207.222656 256.117188 C 205.753906 259.078125 202.507812 263.496094 200.4375 266.445312 C 198.5 269.226562 198.042969 270.804688 195.285156 275.65625 C 174.960938 268.359375 157.082031 260.03125 142.121094 250.835938 C 162.300781 222.335938 184.652344 197.25 206.683594 175.785156 C 211.085938 171.503906 215.511719 167.351562 219.9375 163.289062 Z M 197.257812 323.289062 C 198.378906 324.074219 198.691406 324.609375 200.742188 326.878906 C 203.390625 329.828125 203.390625 346.039062 203.984375 349 C 204.574219 351.941406 208.417969 353.710938 208.417969 353.710938 C 208.417969 353.710938 208.695312 355.78125 208.417969 357.257812 C 208.121094 358.722656 208.417969 361.378906 207.269531 362.554688 C 206.117188 363.742188 207.519531 364.34375 207.519531 364.34375 C 207.519531 364.34375 206.925781 365.8125 207.519531 366.988281 C 208.113281 368.167969 207.519531 369.636719 207.519531 369.636719 C 207.519531 369.636719 210.460938 371.710938 212.242188 372.59375 C 214.019531 373.46875 215.480469 374.363281 215.191406 375.238281 C 214.894531 376.113281 215.777344 382.910156 216.066406 385.269531 C 216.359375 387.625 217.25 387.625 217.25 388.804688 C 217.25 389.984375 220.488281 394.695312 220.488281 395.59375 C 220.488281 396.476562 223.136719 397.945312 223.136719 397.945312 L 224.609375 397.945312 C 224.609375 397.945312 225.203125 394.105469 225.203125 393.230469 C 225.203125 392.347656 225.203125 390.585938 225.203125 390.585938 C 225.203125 390.585938 224.609375 389.09375 223.136719 387.929688 C 221.660156 386.75 221.082031 383.191406 221.082031 383.191406 C 221.082031 383.191406 221.082031 379.078125 220.488281 378.199219 C 219.898438 377.308594 218.421875 370.820312 218.421875 370.820312 L 217.53125 365.804688 C 217.53125 365.804688 216.058594 360.785156 215.769531 359.910156 C 215.472656 359.019531 215.472656 357.839844 214.886719 356.671875 C 214.292969 355.484375 214.589844 352.238281 214.589844 352.238281 L 212.234375 344.269531 C 212.234375 344.269531 216.359375 343.105469 218.757812 344.269531 C 221.148438 345.453125 221.363281 351.363281 219.015625 354.898438 C 216.648438 358.433594 231.089844 373.773438 231.089844 373.773438 C 231.089844 373.773438 231.402344 377.027344 231.097656 379.085938 C 230.808594 381.148438 234.046875 381.734375 234.046875 383.792969 C 234.046875 385.863281 244.070312 402.097656 245.558594 406.507812 C 245.65625 406.828125 245.640625 407.15625 245.71875 407.453125 C 219.289062 402.28125 194.53125 395.914062 171.960938 388.507812 C 178.984375 366.277344 187.5625 344.484375 197.257812 323.289062 Z M 246.050781 412.222656 C 245.878906 415.011719 245.390625 418.066406 245.566406 421.835938 C 245.847656 428.335938 252.351562 432.167969 252.351562 432.167969 L 259.429688 437.179688 L 265.332031 439.234375 C 265.332031 439.234375 266.925781 440.121094 269.386719 441.40625 C 264.625 474.871094 261.898438 509.039062 262.179688 542.71875 C 221.675781 535.953125 184.445312 526.5 152.078125 514.890625 C 151.984375 509.566406 151.992188 504.195312 152.175781 498.792969 C 153.273438 463.011719 160.054688 427.472656 170.640625 392.851562 C 193.730469 400.46875 219.0625 406.964844 246.050781 412.222656 Z M 273.8125 443.699219 C 281.15625 447.394531 291.386719 452.210938 296.886719 453.09375 C 306.027344 454.585938 309.859375 451.042969 313.988281 453.09375 C 318.125 455.164062 324.898438 462.539062 328.738281 466.667969 C 332.578125 470.796875 332.273438 468.144531 334.640625 469.609375 C 336.988281 471.070312 337.878906 469.90625 343.1875 471.398438 C 348.476562 472.855469 353.792969 483.175781 353.792969 485.539062 C 353.792969 487.890625 355.558594 489.972656 357.632812 493.492188 C 359.703125 497.046875 361.160156 493.492188 364.414062 493.492188 C 367.671875 493.492188 369.730469 501.476562 371.214844 501.164062 C 372.679688 500.886719 377.402344 500.886719 377.402344 500.886719 C 377.402344 500.886719 382.40625 503.828125 384.769531 506.191406 L 388.613281 502.65625 L 392.734375 499.402344 L 396.277344 497.925781 C 396.277344 497.925781 397.375 498.382812 398.585938 498.914062 C 398.6875 509.886719 398.839844 520.800781 399.035156 531.625 C 397.09375 533.050781 394.945312 535.023438 393.628906 535.976562 C 391.554688 537.46875 390.078125 545.125 387.730469 550.136719 C 387.089844 551.480469 386.664062 552.941406 386.351562 554.375 C 344.683594 553.292969 304.429688 549.582031 266.902344 543.519531 C 266.574219 510.363281 269.1875 476.707031 273.8125 443.699219 Z M 385.734375 559.089844 C 385.636719 560.78125 385.636719 562.175781 385.636719 562.503906 C 385.636719 563.394531 388.019531 565.761719 388.019531 568.140625 C 388.019531 570.457031 388.019531 568.140625 386.832031 568.421875 C 385.644531 568.703125 383.890625 573.136719 382.710938 574.605469 C 381.53125 576.078125 382.710938 581.386719 382.710938 583.148438 C 382.710938 584.914062 385.058594 587.289062 387.722656 588.175781 C 389.644531 588.820312 396.515625 592.464844 400.734375 595.320312 C 401.574219 618.105469 402.640625 640.054688 404.027344 660.835938 C 361.21875 660.507812 319.632812 657.316406 280.707031 651.570312 C 271.785156 618.875 267.609375 584.082031 266.925781 548.613281 C 304.132812 554.441406 344.109375 558.039062 385.734375 559.089844 Z M 405.609375 600.425781 C 407.316406 603.136719 409.328125 606.640625 410.410156 607.949219 C 411.855469 609.703125 411.613281 613.238281 410.578125 615.027344 C 409.527344 616.78125 413.386719 617.375 414.257812 619.742188 C 415.132812 622.089844 416.609375 621.792969 417.203125 623.277344 C 417.792969 624.75 420.144531 626.8125 421.636719 629.175781 C 423.109375 631.527344 430.46875 634.46875 434.316406 634.78125 C 438.140625 635.0625 449.351562 637.722656 450.535156 641.28125 C 450.960938 642.582031 450.503906 650.445312 449.597656 660.074219 C 436.851562 660.605469 423.984375 660.917969 410.972656 660.917969 C 410.234375 660.917969 409.496094 660.902344 408.742188 660.902344 C 407.46875 641.667969 406.441406 621.410156 405.609375 600.425781 Z M 410.972656 665.648438 C 423.832031 665.648438 436.53125 665.304688 449.132812 664.8125 C 447.472656 680.375 444.875 698.292969 442.871094 700.828125 C 439.519531 705.019531 438.550781 703.976562 432.175781 731.40625 C 426.542969 731.566406 420.890625 731.75 415.285156 731.765625 C 412.785156 711.753906 410.714844 689.507812 409.070312 665.609375 C 409.707031 665.617188 410.347656 665.648438 410.972656 665.648438 Z M 485.933594 725.914062 C 486.511719 725.007812 491.242188 724.726562 492.417969 724.4375 C 492.417969 724.4375 492.46875 724.421875 492.5 724.40625 C 492.28125 725.175781 492.074219 725.953125 491.875 726.722656 C 489.710938 727.003906 487.585938 727.179688 485.417969 727.429688 C 485.621094 726.683594 485.804688 726.089844 485.933594 725.914062 Z M 587.464844 537.980469 C 583.894531 536.898438 583.785156 537.148438 581.777344 536.867188 C 579.710938 536.570312 576.472656 536.273438 571.460938 534.203125 C 566.433594 532.136719 561.71875 534.796875 561.71875 534.796875 L 567.027344 530.066406 C 567.027344 530.066406 567.324219 526.226562 564.382812 520.9375 C 560.542969 502.929688 537.523438 504.40625 535.761719 504.40625 C 535.230469 504.40625 534.660156 504.421875 534.070312 504.390625 C 536.136719 474.308594 536.808594 445.789062 536.289062 418.988281 C 577.9375 413.136719 616.460938 404.445312 650.269531 393.414062 C 656.378906 431.960938 658.695312 474.269531 655.722656 520.253906 C 634.667969 527.09375 611.796875 533.050781 587.464844 537.980469 Z M 654.824219 391.929688 C 672.125 386.101562 688.097656 379.65625 702.582031 372.664062 C 703.441406 379.230469 705.078125 385.292969 708.300781 389.101562 C 716.269531 398.546875 716.269531 397.953125 715.957031 405.335938 C 715.675781 412.695312 715.675781 417.113281 717.445312 418.300781 C 719.21875 419.484375 723.050781 426.566406 724.808594 428.914062 C 726.578125 431.261719 726.296875 433.925781 728.945312 437.460938 C 731.492188 440.859375 729.554688 442.375 739.277344 445.101562 C 740.441406 457.128906 741.25 469.023438 741.738281 480.753906 C 719.90625 495.226562 692.417969 507.972656 660.582031 518.667969 C 663.402344 472.730469 660.996094 430.46875 654.824219 391.929688 Z M 738.675781 249.015625 C 738.675781 249.015625 731.878906 244.878906 730.691406 246.371094 C 729.527344 247.84375 723.050781 255.796875 723.050781 255.796875 C 723.050781 255.796875 720.390625 264.648438 719.796875 265.539062 C 719.21875 266.421875 706.816406 276.449219 706.222656 277.332031 C 705.710938 278.148438 704.707031 280.683594 704.296875 283.785156 C 702.078125 278.589844 699.777344 273.492188 697.429688 268.511719 C 697.804688 268.503906 698.132812 268.457031 698.574219 268.496094 C 702.414062 268.785156 707.722656 268.242188 708.613281 268.960938 C 709.484375 269.683594 712.148438 268.496094 714.792969 265.25 C 717.453125 262.011719 716.285156 259.941406 714.792969 254.933594 C 713.300781 249.921875 710.375 247.257812 709.78125 243.417969 C 709.339844 240.582031 708.433594 239.347656 707.859375 235.667969 C 714.121094 229.871094 719.371094 223.832031 723.5625 217.613281 C 729.59375 227.800781 735.164062 238.3125 740.191406 249.105469 Z M 565.945312 75.53125 C 556.726562 71.929688 547.265625 68.492188 537.742188 65.234375 C 538.871094 64.007812 539.808594 62.75 540.714844 61.484375 C 548.292969 64.476562 555.78125 67.664062 563.125 71.152344 C 563.804688 72.570312 564.824219 74.121094 565.945312 75.53125 Z M 532.792969 63.578125 C 498.785156 52.175781 464.945312 43.179688 441.941406 37.511719 C 474.796875 40.769531 506.394531 48.375 536.175781 59.703125 C 535.191406 61.019531 534.070312 62.316406 532.792969 63.578125 Z M 370.414062 37.382812 C 350.667969 43.238281 323.160156 52.496094 291.980469 66.054688 C 288.371094 62.976562 285.519531 59.746094 283.578125 56.386719 C 311.195312 46.714844 340.277344 40.222656 370.414062 37.382812 Z M 188.058594 128.925781 C 187.859375 129.679688 187.683594 130.382812 187.5625 131.097656 C 187.226562 130.714844 186.875 130.335938 186.5625 129.945312 C 187.042969 129.582031 187.5625 129.269531 188.058594 128.925781 Z M 186.175781 136.179688 C 185.871094 137.710938 186.472656 138.417969 186 140.78125 C 185.40625 143.734375 186 140.78125 184.226562 141.671875 C 183.796875 141.875 183.585938 141.976562 183.484375 142.035156 C 183.484375 142.035156 183.425781 142.066406 183.410156 142.074219 C 183.371094 142.097656 183.296875 142.128906 183.035156 142.25 C 181.863281 142.84375 181.277344 144.023438 180.105469 144.023438 C 178.921875 144.023438 175.960938 145.792969 175.960938 145.792969 C 175.960938 145.792969 173.308594 147.277344 171.535156 147.277344 C 169.773438 147.277344 170.0625 148.75 168.007812 149.046875 C 165.949219 149.335938 165.355469 149.335938 163.582031 149.335938 C 161.804688 149.335938 163.582031 152.296875 163.582031 152.296875 C 163.582031 152.296875 169.773438 152.871094 172.121094 152.585938 C 174.488281 152.296875 175.378906 152 177.140625 151.40625 C 178.914062 150.820312 182.449219 150.820312 183.941406 149.929688 C 185.398438 149.046875 188.941406 146.988281 188.941406 146.988281 C 188.941406 146.988281 193.367188 146.097656 194.539062 145.800781 C 194.996094 145.6875 195.339844 145.351562 195.613281 144.984375 C 201.792969 150.042969 209.050781 154.851562 217.226562 159.359375 C 212.625 163.582031 208.046875 167.871094 203.492188 172.289062 C 181.199219 194.023438 158.558594 219.40625 138.136719 248.277344 C 120.097656 236.621094 106.765625 223.671875 99.101562 209.789062 C 124.25 179.464844 153.167969 153.898438 183.019531 132.515625 C 184.019531 133.742188 185.070312 134.96875 186.175781 136.179688 Z M 139.613281 254.425781 C 154.765625 263.734375 172.738281 272.203125 193.121094 279.609375 C 191.851562 282.152344 192.148438 282.34375 192.148438 282.34375 C 192.148438 282.34375 193.070312 294.152344 192.492188 298.875 C 191.902344 303.589844 192.1875 314.492188 192.492188 318.050781 C 192.621094 319.566406 192.886719 320.257812 193.3125 320.746094 C 183.417969 342.289062 174.632812 364.414062 167.488281 387.015625 C 136.742188 376.585938 110.230469 364.222656 89.289062 350.304688 C 102.171875 315.046875 119.730469 283.039062 139.613281 254.425781 Z M 152.273438 520.566406 C 184.644531 532.015625 221.757812 541.253906 262.21875 547.859375 C 262.863281 583.230469 266.933594 618.023438 275.671875 650.800781 C 239.332031 645.179688 205.433594 637.394531 175.226562 627.652344 C 161.1875 593.820312 153.5625 558.039062 152.273438 520.566406 Z M 282.167969 656.546875 C 320.808594 662.152344 362.003906 665.253906 404.359375 665.535156 C 406 689.457031 408.039062 711.746094 410.53125 731.839844 C 375.214844 731.710938 341.824219 728.671875 311.308594 724.085938 C 298.660156 703.121094 289.09375 680.4375 282.167969 656.546875 Z M 431.09375 736.144531 C 431.078125 736.175781 431.078125 736.207031 431.0625 736.238281 C 423.6875 768.667969 431.0625 773.679688 431.0625 773.679688 C 431.0625 773.679688 435.792969 773.085938 436.667969 772.203125 C 437.558594 771.332031 443.167969 771.332031 444.636719 770.417969 C 446.113281 769.558594 446.113281 769.246094 447 767.789062 C 447.859375 766.3125 449.054688 765.140625 449.054688 765.140625 C 449.054688 765.140625 452.605469 761.589844 453.785156 759.816406 C 454.953125 758.0625 456.726562 756.875 457.320312 755.105469 C 457.898438 753.332031 457.320312 753.035156 457.320312 753.035156 C 457.320312 753.035156 458.488281 749.796875 458.792969 748.617188 C 459.089844 747.429688 460.863281 748.023438 462.332031 747.429688 C 463.796875 746.839844 465.570312 745.957031 466.171875 744.769531 C 466.765625 743.597656 467.644531 740.664062 467.644531 738.902344 C 467.644531 737.113281 470.011719 736.238281 471.765625 735.347656 C 473.539062 734.460938 475.605469 736.824219 479.734375 736.519531 C 481.539062 736.390625 482.824219 734.515625 483.746094 732.351562 C 486.027344 732.101562 488.28125 731.894531 490.558594 731.628906 C 487.457031 743.328125 484.136719 755.191406 480.617188 767.21875 C 461.609375 771.164062 442.039062 773.625 422.082031 774.53125 C 419.765625 763.113281 417.730469 750.367188 415.902344 736.480469 C 420.929688 736.472656 426.003906 736.296875 431.09375 736.144531 Z M 495.59375 731.085938 C 536.960938 725.710938 579.277344 716.253906 622.113281 703.089844 C 622.128906 703.089844 622.144531 703.105469 622.179688 703.105469 C 622.675781 703.105469 623.164062 702.9375 623.558594 702.648438 C 624.199219 702.445312 624.824219 702.238281 625.464844 702.054688 C 584.578125 732.464844 537.210938 754.558594 485.867188 766.007812 C 489.285156 754.214844 492.554688 742.558594 495.59375 731.085938 Z M 496.925781 726.105469 C 497.140625 725.214844 497.347656 724.351562 497.566406 723.476562 C 498.832031 723.257812 500.082031 723.066406 500.964844 722.960938 C 503.332031 722.667969 504.203125 721.175781 507.453125 720.003906 C 510.691406 718.84375 509.816406 718.84375 513.953125 715.289062 C 518.089844 711.753906 503.933594 705.269531 507.453125 702.308594 C 511.003906 699.367188 508.042969 703.785156 511.589844 706.160156 C 515.125 708.507812 513.953125 706.734375 516.910156 706.734375 C 519.855469 706.734375 520.132812 706.4375 523.679688 705.550781 C 527.214844 704.691406 527.214844 705.550781 530.179688 703.777344 C 533.121094 702.023438 530.179688 703.777344 534.316406 700.539062 C 538.4375 697.300781 536.089844 699.078125 539.609375 695.527344 C 543.160156 691.992188 542.269531 692.867188 545.804688 687.855469 C 549.339844 682.84375 548.453125 683.734375 560.261719 676.664062 C 572.054688 669.582031 562.03125 671.949219 561.429688 667.21875 C 560.855469 662.503906 562.320312 663.980469 564.390625 659.859375 C 565.703125 657.179688 577.84375 652.25 588.457031 648.015625 C 605.839844 644.320312 622.433594 640.097656 638.171875 635.351562 C 633.304688 655.882812 627.398438 676.984375 620.351562 698.703125 C 578.546875 711.507812 537.292969 720.734375 496.925781 726.105469 Z M 605.832031 639.230469 C 605.597656 638.652344 605.664062 637.621094 607.144531 635.382812 C 611.5625 628.582031 614.226562 627.117188 615.097656 625.0625 C 615.988281 622.964844 619.234375 619.148438 620.109375 615.902344 C 621 612.644531 621.296875 613.832031 621 611.78125 C 620.703125 609.695312 618.929688 596.714844 622.171875 590.535156 C 625.410156 584.351562 629.84375 582.285156 633.683594 576.375 C 637.507812 570.457031 637.507812 571.644531 640.464844 568.421875 C 643.40625 565.183594 644.882812 561.328125 645.476562 557.792969 C 646.054688 554.257812 645.476562 551.023438 643.128906 548.660156 C 640.761719 546.277344 639.285156 548.660156 636.046875 545.71875 C 632.808594 542.757812 631.300781 542.480469 623.644531 540.972656 C 615.988281 539.511719 618.632812 542.757812 610.382812 542.15625 C 602.136719 541.558594 606.550781 543.335938 600.941406 542.757812 C 595.816406 542.230469 600.003906 542.632812 599.183594 540.242188 C 618.996094 535.90625 637.796875 530.878906 655.371094 525.257812 C 652.972656 558.28125 647.847656 593.1875 639.367188 630.058594 C 628.601562 633.355469 617.414062 636.425781 605.832031 639.230469 Z M 746.597656 483.046875 C 755.433594 477.050781 763.335938 470.742188 770.207031 464.191406 C 765.460938 493.675781 757.261719 522.035156 745.957031 548.78125 C 747.199219 525.875 747.335938 504.003906 746.597656 483.046875 Z M 746.347656 477.554688 C 745.90625 467.078125 745.25 456.824219 744.34375 446.847656 C 750.214844 449.671875 747.253906 452.660156 754.300781 448.378906 C 762.550781 443.371094 767.265625 437.1875 771.417969 431.855469 C 772.46875 430.492188 773.375 429.179688 774.191406 427.945312 C 773.617188 437.523438 772.644531 447 771.332031 456.398438 C 764.292969 463.773438 755.929688 470.820312 746.347656 477.554688 Z M 173.917969 117.371094 C 175.433594 121.261719 177.566406 125.0625 180.1875 128.773438 C 150.585938 149.980469 121.863281 175.265625 96.777344 205.183594 C 96.488281 204.574219 96.238281 203.964844 95.984375 203.347656 C 117.324219 170.765625 143.667969 141.738281 173.917969 117.371094 Z M 46.476562 316.785156 C 55.183594 329.285156 67.738281 341.070312 83.613281 351.957031 C 71.066406 387.28125 63.257812 425.804688 62.527344 467.390625 C 51.992188 458.601562 43.507812 449.351562 37.351562 439.707031 C 36.292969 428.386719 35.683594 416.921875 35.683594 405.335938 C 35.683594 374.8125 39.476562 345.175781 46.476562 316.785156 Z M 86.257812 591.59375 C 109.050781 606.984375 138.058594 620.421875 171.699219 631.414062 C 182.121094 656.089844 195.859375 679.796875 212.929688 702.398438 C 196.445312 697.589844 182.425781 692.835938 171.3125 688.792969 C 170.46875 688.511719 169.691406 688.824219 169.066406 689.339844 C 136.109375 661.886719 108.054688 628.785156 86.257812 591.59375 Z M 347.667969 770.417969 C 334.921875 757.765625 323.878906 744.03125 314.5 729.328125 C 344.347656 733.648438 376.851562 736.472656 411.15625 736.542969 C 412.960938 750.445312 415.003906 763.191406 417.28125 774.65625 C 413.304688 774.769531 409.328125 774.945312 405.320312 774.945312 C 385.71875 774.945312 366.460938 773.390625 347.667969 770.417969 Z M 635.984375 693.828125 C 632.585938 694.941406 629.199219 695.929688 625.800781 697.003906 C 632.722656 675.316406 638.597656 654.207031 643.382812 633.707031 C 671.226562 625 696.265625 614.699219 717.464844 602.90625 C 695.457031 637.539062 667.898438 668.277344 635.984375 693.828125 Z M 635.984375 693.828125 " fill-opacity="1" fill-rule="nonzero"/></g><path fill="#000000" d="M 431.65625 437.1875 C 431.359375 438.351562 426.941406 438.0625 425.773438 440.128906 C 424.585938 442.183594 422.53125 443.972656 425.773438 444.25 C 429.011719 444.546875 430.78125 443.972656 434.316406 444.25 C 437.855469 444.546875 434.316406 445.003906 439.03125 444.347656 C 443.746094 443.675781 441.695312 445.148438 446.40625 443.097656 C 451.121094 441.027344 454.082031 440.730469 456.726562 440.730469 C 459.371094 440.730469 459.371094 438.214844 460.566406 439.007812 C 461.738281 439.84375 462.617188 442.03125 462.617188 439.007812 C 462.617188 436 462.339844 434.886719 457.328125 434.855469 C 452.300781 434.824219 450.839844 434.886719 449.0625 434.855469 C 447.289062 434.824219 443.328125 434.855469 443.328125 434.855469 L 439.039062 433.347656 C 433.140625 433.628906 431.664062 434.855469 431.664062 434.855469 C 431.664062 434.855469 434.324219 436.890625 435.34375 437.1875 C 436.386719 437.46875 431.953125 435.992188 431.65625 437.1875 Z M 431.65625 437.1875 " fill-opacity="1" fill-rule="nonzero"/><path fill="#000000" d="M 473.1875 443.480469 C 475.894531 443.371094 474.421875 443.972656 475.894531 443.371094 C 477.371094 442.769531 475.597656 444.242188 477.371094 442.777344 C 479.140625 441.308594 479.140625 441.300781 479.140625 441.300781 C 479.140625 441.300781 479.734375 440.128906 480.617188 440.128906 C 481.507812 440.128906 481.507812 437.894531 480.617188 439 C 479.742188 440.128906 475.328125 439 475.328125 439 C 473.257812 439.234375 471.484375 439.527344 471.207031 440.128906 C 470.894531 440.722656 471.207031 440.722656 471.207031 441.902344 C 471.199219 443.089844 470.460938 443.585938 473.1875 443.480469 Z M 473.1875 443.480469 " fill-opacity="1" fill-rule="nonzero"/><path fill="#000000" d="M 567.699219 127.90625 C 564.382812 127.507812 564.179688 126.921875 562.59375 125.542969 C 561.007812 124.164062 559.195312 123.769531 558.539062 123.769531 C 557.878906 123.769531 556.894531 123.769531 556.894531 123.769531 C 555.515625 125.726562 554.921875 127.121094 554.730469 127.707031 C 554.527344 128.292969 552.179688 129.863281 552.179688 129.863281 C 552.179688 129.863281 551.980469 129.679688 550.601562 129.863281 C 549.238281 130.0625 546.292969 126.328125 545.492188 129.863281 C 544.691406 133.398438 543.535156 133.015625 545.492188 135.378906 C 547.449219 137.746094 552.195312 140.300781 554.34375 141.671875 C 556.507812 143.050781 555.90625 144.429688 560.847656 145.007812 C 565.761719 145.601562 563.789062 147.964844 567.699219 143.835938 C 571.644531 139.699219 571.050781 142.851562 571.855469 137.746094 C 572.640625 132.621094 573.199219 133.238281 571.855469 131.042969 C 570.476562 128.894531 571.050781 128.300781 567.699219 127.90625 Z M 567.699219 127.90625 " fill-opacity="1" fill-rule="nonzero"/><path fill="#000000" d="M 356.917969 119.875 C 356.824219 120.019531 356.839844 120.066406 356.917969 119.875 Z M 356.917969 119.875 " fill-opacity="1" fill-rule="nonzero"/><path fill="#000000" d="M 357.054688 118.953125 C 357.054688 119.449219 356.984375 119.714844 356.917969 119.875 C 357.054688 119.640625 357.480469 119.222656 358.8125 118.953125 C 361.753906 118.359375 360.292969 119.546875 361.753906 118.359375 C 363.230469 117.1875 360.878906 118.359375 363.230469 117.1875 C 365.59375 116.015625 365 118.359375 365.59375 116.015625 C 366.1875 113.652344 364.71875 115.703125 365.59375 112.617188 C 366.484375 109.523438 365.304688 111.59375 366.484375 109.523438 C 367.65625 107.464844 366.78125 109.226562 367.65625 107.464844 C 368.535156 105.691406 365.355469 105.980469 365.355469 105.980469 C 365.355469 105.980469 364.710938 106.269531 363.222656 107.75 C 361.746094 109.226562 358.804688 109.523438 357.625 110.40625 C 356.453125 111.289062 357.625 108.34375 356.453125 111.289062 C 355.269531 114.238281 355.859375 115.054688 356.453125 117.003906 C 357.054688 118.953125 357.054688 116.890625 357.054688 118.953125 Z M 357.054688 118.953125 " fill-opacity="1" fill-rule="nonzero"/><path fill="#000000" d="M 390.664062 164.378906 C 389.195312 162.605469 389.765625 161.128906 387.113281 161.128906 C 384.476562 161.128906 384.476562 161.128906 384.476562 161.128906 C 384.476562 161.128906 381.53125 162.910156 381.242188 164.667969 C 380.949219 166.4375 379.054688 165.554688 379.40625 167.320312 C 379.761719 169.089844 376.996094 167.617188 379.40625 170.566406 C 381.820312 173.507812 383.296875 172.925781 384.484375 174.09375 C 385.652344 175.265625 383.304688 177.042969 384.484375 177.636719 C 385.652344 178.222656 382.703125 179.699219 387.121094 177.636719 C 391.5625 175.570312 388.316406 178.511719 391.5625 175.570312 C 394.808594 172.621094 394.511719 175.265625 394.808594 172.621094 C 395.105469 169.964844 396.878906 170.558594 394.808594 168.492188 C 392.722656 166.4375 392.140625 166.140625 390.664062 164.378906 Z M 390.664062 164.378906 " fill-opacity="1" fill-rule="nonzero"/></svg>