<svg width="1130" height="796" viewBox="0 0 1130 796" fill="none" xmlns="http://www.w3.org/2000/svg">
<rect width="1130" height="796" fill="#1C1D20"/>
<path d="M205.5 0L205.5 796M144.5 0L144.5 796M173.5 0L173.5 796" stroke="#FFC200" stroke-width="2"/>
<path d="M109 0L109 796M48 0L48 796M77 0L77 796" stroke="#FFC200" stroke-width="2"/>
<path d="M1130 95L5.24521e-06 95M1130 34L5.24521e-06 34M1130 63L5.24521e-06 63" stroke="#FFC200" stroke-width="2"/>
<path d="M1130 95L5.24521e-06 95M1130 34L5.24521e-06 34M1130 63L5.24521e-06 63" stroke="#FFC200" stroke-width="2"/>
<path d="M1130 189L5.24521e-06 189M1130 128L5.24521e-06 128M1130 157L5.24521e-06 157" stroke="#FFC200" stroke-width="2"/>
<path d="M1130 250L5.24521e-06 250M1130 189L5.24521e-06 189M1130 218L5.24521e-06 218" stroke="#FFC200" stroke-width="2"/>
<path d="M1130 311L5.24521e-06 311M1130 250L5.24521e-06 250M1130 279L5.24521e-06 279" stroke="#FFC200" stroke-width="2"/>
<path d="M1130 372L0 372M1130 311L0 311M1130 340L0 340" stroke="#FFC200" stroke-width="2"/>
<path d="M1130 433L0 433M1130 372L0 372M1130 401L0 401" stroke="#FFC200" stroke-width="2"/>
<path d="M1130 494L0 494M1130 433L0 433M1130 462L0 462" stroke="#FFC200" stroke-width="2"/>
<path d="M1130 588L0 588M1130 527L0 527M1130 556L0 556" stroke="#FFC200" stroke-width="2"/>
<path d="M1130 649L0 649M1130 588L0 588M1130 617L0 617" stroke="#FFC200" stroke-width="2"/>
<path d="M1130 710L0 710M1130 649L0 649M1130 678L0 678" stroke="#FFC200" stroke-width="2"/>
<path d="M1130 771L0 771M1130 710L0 710M1130 739L0 739" stroke="#FFC200" stroke-width="2"/>
<path d="M302 0L302 796M241 0L241 796M270 0L270 796" stroke="#FFC200" stroke-width="2"/>
<path d="M399 0L399 796M338 0L338 796M367 0L367 796" stroke="#FFC200" stroke-width="2"/>
<path d="M496 0L496 796M435 0L435 796M464 0L464 796" stroke="#FFC200" stroke-width="2"/>
<path d="M593 0V796M532 0V796M561 0V796" stroke="#FFC200" stroke-width="2"/>
<path d="M690 0V796M629 0V796M658 0V796" stroke="#FFC200" stroke-width="2"/>
<path d="M787 0V796M726 0V796M755 0V796" stroke="#FFC200" stroke-width="2"/>
<path d="M884 0V796M823 0V796M852 0V796" stroke="#FFC200" stroke-width="2"/>
<path d="M981 0V796M920 0V796M949 0V796" stroke="#FFC200" stroke-width="2"/>
<path d="M1078 0V796M1017 0V796M1046 0V796" stroke="#FFC200" stroke-width="2"/>
</svg>
