<svg xmlns="http://www.w3.org/2000/svg" xmlns:xlink="http://www.w3.org/1999/xlink" width="1080" zoomAndPan="magnify" viewBox="0 0 810 809.999993" height="1080" preserveAspectRatio="xMidYMid meet" version="1.0"><defs><clipPath id="f429795d82"><path d="M 217 332 L 593 332 L 593 802.363281 L 217 802.363281 Z M 217 332 " clip-rule="nonzero"/></clipPath><clipPath id="d5494a5836"><path d="M 50.773438 389 L 279 389 L 279 762 L 50.773438 762 Z M 50.773438 389 " clip-rule="nonzero"/></clipPath><clipPath id="bde299d61e"><path d="M 530 389 L 759.523438 389 L 759.523438 762 L 530 762 Z M 530 389 " clip-rule="nonzero"/></clipPath></defs><g clip-path="url(#f429795d82)"><path fill="#000000" d="M 260.765625 429.425781 L 234.960938 425.753906 L 234.203125 423.636719 C 260.679688 388.84375 293.625 360.621094 327.132812 332.96875 L 328.460938 333.617188 C 328.03125 335.601562 327.671875 337.605469 327.15625 339.566406 C 320.3125 365.519531 313.347656 391.4375 306.710938 417.433594 C 305.851562 420.96875 305.917969 424.488281 306.910156 427.988281 C 324.765625 487.433594 343.355469 546.660156 360.652344 606.246094 C 376.007812 658.992188 389.980469 712.125 404.589844 765.089844 C 404.773438 765.769531 405.117188 766.40625 405.914062 768.378906 C 407.144531 763.117188 407.957031 758.988281 409.0625 754.933594 C 428.070312 685.886719 446.769531 616.84375 466.261719 548.027344 C 477.492188 508.332031 489.917969 468.976562 502.003906 429.535156 C 502.722656 427.191406 503.09375 424.796875 503.125 422.347656 C 503.160156 419.898438 502.847656 417.492188 502.191406 415.132812 C 495.6875 389.09375 489.449219 363 483.128906 336.914062 C 482.746094 335.550781 482.691406 334.175781 482.964844 332.785156 C 516.964844 360.183594 549.429688 388.960938 576.105469 423.636719 L 575.554688 425.730469 L 551.304688 429.5 L 550.066406 431.1875 C 552.417969 432.808594 554.675781 434.542969 556.84375 436.394531 C 566.332031 445.238281 575.6875 454.226562 585.140625 463.09375 C 591.394531 468.945312 594.167969 476.089844 592.105469 484.386719 C 585.910156 509.339844 580.679688 534.636719 572.738281 559.03125 C 563.035156 589.128906 551.457031 618.488281 538.003906 647.109375 C 524.550781 675.726562 509.332031 703.375 492.34375 730.054688 C 481.113281 747.5 467.953125 763.34375 452.859375 777.585938 C 440.203125 789.640625 425.042969 796.886719 408.539062 801.695312 C 406.046875 802.296875 403.566406 802.253906 401.101562 801.566406 C 379.429688 795.898438 361.617188 784.03125 346.339844 767.820312 C 325.566406 745.902344 309.496094 720.695312 295.238281 694.226562 C 268.464844 644.59375 245.378906 593.402344 230.320312 538.878906 C 225.570312 521.671875 222.347656 504.035156 218.472656 486.578125 C 216.214844 476.386719 219.230469 468.011719 226.996094 460.976562 C 236.066406 452.769531 244.808594 444.199219 253.714844 435.769531 C 255.699219 433.929688 257.730469 432.152344 260.765625 429.425781 Z M 260.765625 429.425781 " fill-opacity="1" fill-rule="nonzero"/></g><path fill="#000000" d="M 314.125 204.636719 C 302.421875 221.074219 307.378906 237.425781 309.628906 253.722656 C 301.578125 244.574219 295.46875 234.273438 291.300781 222.828125 C 289.144531 217.007812 287.5 211.042969 286.367188 204.941406 C 285.269531 199.003906 286.714844 193.378906 291.9375 187.625 L 302.28125 208.449219 C 298.847656 190.542969 294.25 173.136719 285.828125 156.941406 C 283.636719 152.730469 280.980469 148.457031 280.234375 143.929688 C 279.457031 139.175781 279.28125 133.34375 281.332031 129.300781 C 283.585938 124.902344 285.363281 120.320312 286.65625 115.554688 C 287.949219 110.785156 288.734375 105.933594 289.007812 101.003906 C 290.644531 76.890625 301.226562 57.371094 319.652344 41.976562 C 321.902344 40.09375 324.285156 38.402344 326.804688 36.902344 C 329.320312 35.402344 331.945312 34.113281 334.671875 33.035156 C 337.398438 31.957031 340.195312 31.101562 343.058594 30.472656 C 345.921875 29.84375 348.816406 29.449219 351.746094 29.285156 C 369.074219 28.121094 385.40625 23.027344 401.691406 17.449219 C 409.953125 14.621094 418.417969 11.96875 427.007812 10.628906 C 448.59375 7.34375 465.570312 20.933594 466.625 41.414062 C 466.679688 42.511719 466.523438 43.53125 466.449219 45.195312 C 465.265625 44.539062 464.125 43.808594 463.035156 43.003906 C 452.648438 34.238281 440.78125 32.121094 428.082031 36.113281 C 418.332031 39.179688 408.855469 43.09375 399.347656 46.863281 C 393.226562 49.304688 386.929688 51.128906 380.453125 52.339844 C 373.980469 53.550781 367.449219 54.121094 360.859375 54.050781 C 354.460938 53.917969 348.089844 54.261719 341.742188 55.082031 C 319.347656 58.238281 305.03125 79.632812 311.855469 104.398438 C 312.242188 105.148438 312.703125 105.851562 313.238281 106.503906 C 313.609375 103.601562 313.90625 101.496094 314.136719 99.378906 C 316.332031 79.707031 326.882812 68.496094 346.46875 67.09375 C 371.039062 65.363281 394.277344 59.269531 417.101562 50.488281 C 423.492188 48.210938 430.070312 46.886719 436.84375 46.523438 C 441.011719 46.214844 445.621094 47.519531 449.558594 49.152344 C 461.886719 54.195312 463.617188 60.605469 456.203125 71.621094 C 445.113281 88.058594 428.652344 97.988281 411.859375 107.390625 C 407.132812 110.03125 402.21875 112.324219 397.394531 114.777344 L 397.699219 116.300781 C 406.476562 115.457031 415.25 115.207031 423.890625 113.617188 C 433.929688 111.753906 443.777344 108.894531 453.617188 106.140625 C 473.074219 100.664062 484.5 108.136719 486.847656 128.335938 C 487.886719 136.621094 487.917969 144.910156 486.945312 153.203125 C 485.972656 161.5 484.023438 169.554688 481.101562 177.378906 C 479.707031 181.074219 480.53125 183.503906 482.484375 186.355469 C 491.167969 199.058594 498.441406 212.242188 496.246094 228.503906 C 495.785156 231.945312 495.554688 235.421875 495.042969 238.839844 C 492.980469 252.746094 490.785156 266.644531 488.777344 280.550781 C 487.835938 287.128906 485.488281 292.925781 480.652344 297.503906 C 477.230469 300.792969 475.472656 304.5625 476.035156 309.242188 C 477.558594 322.042969 472.414062 330.824219 462.6875 339.632812 C 443.503906 357.003906 426.085938 376.328125 407.921875 394.835938 C 407.320312 395.460938 406.628906 396.019531 407.035156 395.648438 C 383.882812 373.445312 360.96875 351.492188 338.125 329.429688 C 336.804688 327.945312 336.007812 326.222656 335.730469 324.257812 C 335.28125 321.542969 335.136719 318.816406 335.304688 316.070312 C 335.667969 308.136719 334.140625 301.265625 327.945312 295.335938 C 325.058594 292.5625 323.503906 287.730469 322.714844 283.566406 C 319.566406 267.125 316.441406 250.542969 314.34375 233.898438 C 313.183594 224.800781 314.125 215.441406 314.125 204.636719 Z M 442.789062 297.351562 C 417.847656 293.613281 393.589844 293.132812 369.304688 297.605469 C 393.699219 310.21875 417.96875 310.21875 442.789062 297.351562 Z M 440.003906 344.476562 C 415.613281 365.050781 392.050781 361.191406 368.710938 342.417969 C 377.9375 356.3125 388.816406 366.792969 406.671875 366.375 C 422.355469 366.035156 432.863281 358.035156 440.003906 344.476562 Z M 407.441406 214.664062 L 405.621094 214.664062 C 405.433594 216.207031 405.179688 217.765625 405.058594 219.320312 C 403.964844 233.6875 402.867188 248.054688 401.683594 262.414062 C 401.375 266.097656 401.582031 269.472656 405.992188 269.667969 C 410.402344 269.867188 411.082031 266.5 410.820312 262.828125 C 409.875 249.175781 408.988281 235.519531 408.066406 221.875 C 407.902344 219.539062 407.648438 217.085938 407.441406 214.664062 Z M 407.441406 214.664062 " fill-opacity="1" fill-rule="nonzero"/><g clip-path="url(#d5494a5836)"><path fill="#000000" d="M 50.773438 761.738281 C 54.066406 739.160156 57.070312 717.898438 60.152344 696.574219 C 69.578125 631.347656 79.007812 566.121094 88.4375 500.890625 C 90.554688 486.261719 92.542969 471.609375 95.019531 457.054688 C 95.359375 455.046875 97.992188 452.726562 100.097656 451.847656 C 144.890625 433.035156 189.730469 414.332031 234.621094 395.746094 C 238.753906 394.027344 242.84375 392.226562 248.472656 389.816406 L 228.191406 416.21875 C 227.09375 417.675781 225.945312 419.113281 224.957031 420.601562 C 221.019531 426.75 222.402344 429.949219 229.507812 431.277344 C 233.699219 432.054688 237.898438 432.777344 243.644531 433.808594 C 240.75 436.515625 239.183594 438.191406 237.425781 439.585938 C 228.609375 446.699219 219.765625 453.773438 210.894531 460.800781 C 202.855469 467.148438 199.929688 475.050781 202.855469 485.042969 C 211.257812 513.769531 219.164062 542.65625 228.082031 571.207031 C 244.371094 623.121094 261.261719 674.828125 277.886719 726.632812 C 278.261719 727.816406 278.445312 729.078125 278.898438 731.019531 C 277.460938 730.578125 276.054688 730.058594 274.675781 729.460938 C 240.125 711.976562 205.601562 694.441406 171.105469 676.855469 C 167.175781 674.839844 164.523438 674.839844 160.914062 677.625 C 125.386719 705.148438 89.746094 732.519531 53.988281 759.742188 C 53.296875 760.269531 52.519531 760.664062 50.773438 761.738281 Z M 50.773438 761.738281 " fill-opacity="1" fill-rule="nonzero"/></g><g clip-path="url(#bde299d61e)"><path fill="#000000" d="M 759.476562 761.550781 C 755.089844 758.265625 751.515625 755.558594 747.949219 752.785156 C 715.046875 727.519531 682.199219 702.222656 649.402344 676.902344 C 646.53125 674.707031 644.5 674.457031 641.1875 676.167969 C 606.347656 694.265625 571.441406 712.234375 536.46875 730.074219 C 534.867188 730.886719 533.230469 731.621094 530.644531 732.859375 C 531.167969 730.515625 531.398438 729.035156 531.847656 727.621094 C 543.914062 689.132812 556.097656 650.675781 568.042969 612.140625 C 569.335938 607.976562 571.246094 606.003906 575.621094 605.0625 C 597.230469 600.449219 618.746094 595.4375 640.332031 590.539062 C 641.371094 590.230469 642.390625 589.863281 643.394531 589.445312 C 635.550781 580.949219 628.640625 572.203125 618.351562 567.128906 C 616.640625 566.234375 614.84375 565.566406 612.957031 565.132812 C 611.074219 564.695312 609.167969 564.503906 607.234375 564.558594 C 605.300781 564.613281 603.40625 564.910156 601.550781 565.449219 C 599.691406 565.988281 597.933594 566.753906 596.273438 567.746094 C 590.429688 571.03125 585.011719 575.074219 578.441406 579.417969 C 579.109375 577.222656 579.539062 575.613281 580.019531 574.066406 C 588.792969 545.660156 597.492188 517.210938 606.476562 488.859375 C 610.960938 474.742188 606.5625 464.496094 594.542969 456.441406 C 587.117188 451.476562 580.285156 445.621094 573.175781 440.199219 C 571.046875 438.574219 568.789062 437.074219 566.660156 435.507812 L 567.847656 433.316406 C 571.894531 432.789062 575.941406 432.339844 579.976562 431.703125 C 587.652344 430.511719 589.417969 426.683594 584.933594 420.359375 C 579.023438 412.019531 572.683594 403.988281 566.53125 395.8125 C 565.378906 394.277344 564.269531 392.710938 562.144531 389.851562 C 565.222656 390.835938 566.75 391.199219 568.1875 391.789062 C 616.246094 411.773438 664.316406 431.734375 712.390625 451.671875 C 715.847656 453.097656 716.964844 455.167969 717.425781 458.53125 C 724.101562 506.636719 730.824219 554.726562 737.597656 602.804688 C 744.777344 653.949219 751.96875 705.09375 759.171875 756.234375 C 759.300781 757.648438 759.300781 759.054688 759.476562 761.550781 Z M 759.476562 761.550781 " fill-opacity="1" fill-rule="nonzero"/></g><path fill="#000000" d="M 335.304688 459.332031 C 337.617188 447.539062 339.976562 436.515625 341.886719 425.425781 C 342.511719 421.476562 342.496094 417.53125 341.832031 413.589844 C 340.085938 403 337.871094 392.503906 335.675781 381.0625 C 338.289062 381.402344 340.183594 381.566406 342.0625 381.894531 C 349.96875 383.285156 357.820312 385.179688 365.785156 386.015625 C 375.316406 386.988281 382.390625 391.109375 386.800781 399.550781 C 388.464844 402.75 390.867188 403.757812 394.332031 403.679688 C 401.636719 403.515625 408.976562 404.011719 416.269531 403.496094 C 418.890625 403.296875 422.488281 401.609375 423.707031 399.496094 C 428.179688 391.703125 434.324219 387.757812 443.347656 386.738281 C 453.78125 385.554688 464.066406 383.109375 476.460938 380.839844 C 467.578125 407.515625 467.445312 433.117188 476.660156 458.652344 L 474.816406 459.75 C 462.917969 456.769531 450.753906 454.542969 439.257812 450.433594 C 434.652344 448.789062 431.734375 442.761719 427.675781 439.167969 C 425.757812 437.445312 422.925781 436.777344 420.589844 435.484375 C 418.253906 434.191406 415.6875 433.226562 414.109375 431.355469 C 410.226562 426.761719 401.167969 426.058594 397.40625 430.675781 C 394.9375 433.722656 392.84375 436.722656 388.027344 435.8125 C 386.929688 435.59375 384.890625 437.46875 383.980469 438.839844 C 382.585938 441.042969 380.960938 443.0625 379.105469 444.898438 C 377.253906 446.734375 375.214844 448.339844 372.996094 449.710938 C 370.777344 451.085938 368.433594 452.191406 365.960938 453.03125 C 363.488281 453.871094 360.957031 454.421875 358.359375 454.6875 C 350.902344 455.597656 343.617188 457.601562 335.304688 459.332031 Z M 335.304688 459.332031 " fill-opacity="1" fill-rule="nonzero"/><path fill="#000000" d="M 478.140625 89.515625 L 488.976562 79.753906 L 473.347656 77.660156 C 475.078125 71.183594 476.789062 64.824219 478.730469 57.613281 C 488.910156 56.945312 498.472656 60.902344 507.117188 67.300781 C 515.527344 73.570312 519.730469 82.238281 520.433594 92.628906 C 520.792969 97.902344 520.75 103.226562 521.527344 108.445312 C 521.890625 111.746094 523.007812 114.765625 524.882812 117.507812 C 530.257812 124.433594 530.488281 131.972656 528.558594 139.863281 C 527.628906 143.589844 526.324219 147.183594 524.644531 150.636719 C 516.296875 167.878906 512.074219 186.386719 507.632812 204.832031 C 507.523438 205.3125 507.523438 205.796875 507.628906 206.277344 C 507.738281 206.757812 507.941406 207.195312 508.246094 207.582031 C 511.351562 201.3125 514.464844 195.046875 518.390625 187.144531 C 520.265625 191.15625 522.339844 193.71875 522.546875 196.4375 C 522.945312 201.632812 523.097656 207.101562 521.890625 212.097656 C 518.359375 226.621094 511.480469 239.683594 502.640625 251.71875 C 502.015625 252.582031 501.546875 253.546875 500.984375 254.46875 L 499.648438 253.515625 C 500.503906 248.757812 501.941406 244.023438 502.082031 239.265625 C 502.34375 229.863281 502.609375 220.363281 501.578125 211.046875 C 499.296875 190.597656 495.546875 170.289062 493.734375 149.804688 C 492.824219 139.40625 494.832031 128.742188 495.535156 118.199219 C 495.601562 117.300781 495.820312 116.402344 495.941406 115.492188 C 498.1875 98.570312 495.632812 94.601562 478.140625 89.515625 Z M 478.140625 89.515625 " fill-opacity="1" fill-rule="nonzero"/><path fill="#000000" d="M 412.945312 489.144531 C 410.597656 490.898438 408.449219 493.625 405.859375 494.152344 C 402.242188 494.886719 399.71875 492.277344 399.28125 488.429688 C 398.90625 484.867188 402.242188 480.945312 405.542969 481.855469 C 408.207031 482.546875 410.421875 484.988281 412.835938 486.65625 Z M 412.945312 489.144531 " fill-opacity="1" fill-rule="nonzero"/><path fill="#000000" d="M 412.234375 629.28125 C 410.523438 630.378906 408.230469 633.007812 405.652344 633.324219 C 401.78125 633.785156 399.214844 630.957031 399.378906 626.882812 C 399.523438 623.113281 401.945312 620.777344 405.71875 620.886719 C 409.6875 620.996094 411.894531 623.453125 412.234375 629.28125 Z M 412.234375 629.28125 " fill-opacity="1" fill-rule="nonzero"/></svg>