<svg xmlns="http://www.w3.org/2000/svg" xmlns:xlink="http://www.w3.org/1999/xlink" width="1080" zoomAndPan="magnify" viewBox="0 0 810 809.999993" height="1080" preserveAspectRatio="xMidYMid meet" version="1.0"><defs><clipPath id="8cc66a2c9e"><path d="M 230 15.816406 L 578 15.816406 L 578 194 L 230 194 Z M 230 15.816406 " clip-rule="nonzero"/></clipPath><clipPath id="7c4443d400"><path d="M 77 208 L 733 208 L 733 755.316406 L 77 755.316406 Z M 77 208 " clip-rule="nonzero"/></clipPath></defs><g clip-path="url(#8cc66a2c9e)"><path fill="#000000" d="M 333.136719 144.96875 C 330.011719 146.011719 327.929688 147.050781 324.804688 147.050781 C 318.558594 147.050781 312.3125 143.925781 309.1875 137.675781 L 273.78125 72.058594 L 259.203125 78.308594 C 236.292969 87.683594 224.839844 113.722656 234.210938 137.675781 L 235.253906 140.800781 L 292.527344 193.921875 C 366.457031 178.296875 443.515625 178.296875 516.410156 193.921875 L 573.679688 140.800781 L 574.722656 137.675781 C 584.09375 114.761719 572.640625 87.683594 549.730469 78.308594 L 532.027344 71.019531 L 497.664062 134.554688 C 494.539062 140.800781 488.292969 143.925781 482.042969 143.925781 C 478.921875 143.925781 476.839844 142.886719 473.714844 141.84375 C 465.382812 137.675781 462.261719 126.21875 466.425781 117.886719 L 508.078125 40.8125 C 499.746094 26.230469 484.128906 15.816406 465.382812 15.816406 L 343.550781 15.816406 C 323.765625 15.816406 307.105469 27.273438 298.773438 44.980469 L 340.425781 122.054688 C 344.589844 129.34375 341.46875 140.800781 333.136719 144.96875 Z M 333.136719 144.96875 " fill-opacity="1" fill-rule="nonzero"/></g><g clip-path="url(#7c4443d400)"><path fill="#000000" d="M 520.574219 223.085938 C 445.597656 204.335938 365.417969 204.335938 289.402344 222.042969 C 222.757812 276.203125 98.839844 406.398438 80.097656 560.546875 C 72.808594 615.75 84.261719 661.578125 114.460938 694.90625 C 141.535156 725.113281 177.980469 740.734375 208.179688 748.027344 C 379.996094 746.984375 458.09375 703.238281 527.863281 655.328125 C 536.191406 650.121094 546.605469 654.285156 551.8125 662.617188 C 555.976562 670.949219 551.8125 679.28125 544.523438 686.574219 C 507.035156 723.027344 474.753906 742.816406 445.597656 755.316406 L 550.773438 755.316406 C 555.976562 755.316406 643.449219 754.273438 695.515625 695.949219 C 725.710938 662.617188 737.167969 616.789062 729.878906 561.589844 C 710.09375 407.4375 587.21875 277.246094 520.574219 223.085938 Z M 366.457031 444.933594 L 403.945312 452.226562 L 450.804688 461.597656 L 453.929688 462.640625 L 456.011719 463.683594 C 489.335938 480.347656 496.625 500.136719 496.625 513.675781 L 496.625 515.761719 C 496.625 549.089844 465.382812 576.171875 425.8125 576.171875 L 425.8125 606.375 L 390.410156 606.375 L 390.410156 576.171875 L 383.121094 576.171875 C 344.589844 576.171875 312.3125 549.089844 312.3125 515.761719 L 312.3125 502.21875 L 347.714844 502.21875 L 347.714844 515.761719 C 347.714844 529.300781 364.375 540.757812 383.121094 540.757812 L 425.8125 540.757812 C 444.558594 540.757812 461.21875 529.300781 461.21875 515.761719 L 461.21875 513.675781 C 461.21875 510.550781 456.011719 504.304688 442.476562 495.96875 L 360.210938 479.304688 L 355.003906 478.265625 L 352.921875 477.222656 C 326.890625 463.683594 313.351562 447.019531 313.351562 428.269531 L 313.351562 426.1875 C 313.351562 392.855469 344.589844 365.777344 384.160156 365.777344 L 391.449219 365.777344 L 391.449219 337.65625 L 425.8125 337.65625 L 425.8125 365.777344 C 464.34375 365.777344 496.625 392.855469 496.625 426.1875 L 461.21875 426.1875 C 461.21875 412.648438 444.558594 401.191406 425.8125 401.191406 L 383.121094 401.191406 C 364.375 401.191406 347.714844 412.648438 347.714844 426.1875 L 347.714844 428.269531 C 347.714844 431.394531 351.878906 437.644531 366.457031 444.933594 Z M 366.457031 444.933594 " fill-opacity="1" fill-rule="nonzero"/></g></svg>