<svg width="585" height="87" viewBox="0 0 585 87" fill="none" xmlns="http://www.w3.org/2000/svg">
<rect width="585" height="87" fill="white"/>
<path d="M428.93 7.97998H399.868C390.607 7.97998 383.101 15.9549 383.101 25.7925V56.6675C383.101 66.5051 390.607 74.48 399.868 74.48H428.93C438.19 74.48 445.697 66.5051 445.697 56.6675V25.7925C445.697 15.9549 438.19 7.97998 428.93 7.97998Z" fill="#FFC200"/>
<path d="M395.725 66.3456H422.049V76.855H382.144V67.2362L408.3 25.1987H382.144V14.6893H422.049V24.3081L395.725 66.3456Z" fill="white"/>
<path d="M46.5 28.12C45.0692 25.3329 43.1019 23.2121 40.5981 21.755C38.0942 20.2979 35.1723 19.57 31.8346 19.57C28.1381 19.57 24.8596 20.4571 21.9981 22.23C19.1365 24.0029 16.901 26.5371 15.2914 29.83C13.6817 33.1229 12.8769 36.9229 12.8769 41.23C12.8769 45.6629 13.6817 49.5271 15.2914 52.82C16.9602 56.1129 19.255 58.6471 22.1769 60.42C25.0977 62.1929 28.4958 63.08 32.3712 63.08C37.1396 63.08 41.0452 61.75 44.0856 59.09C47.126 56.3671 49.1223 52.5979 50.0769 47.785H28.6154V37.62H62.4173V49.21C61.5823 53.8329 59.7939 58.1079 57.0519 62.035C54.3089 65.9621 50.7621 69.1279 46.4106 71.535C42.1183 73.8779 37.2894 75.05 31.924 75.05C25.9025 75.05 20.4477 73.625 15.5596 70.775C10.7308 67.8621 6.91465 63.84 4.11347 58.71C1.37042 53.58 0 47.7529 0 41.23C0 34.7071 1.37042 28.88 4.11347 23.75C6.91465 18.5571 10.7308 14.535 15.5596 11.685C20.4477 8.77206 25.8723 7.315 31.8346 7.315C38.8689 7.315 44.9798 9.15207 50.1664 12.825C55.3529 16.435 58.9298 21.5329 60.8971 28.12H46.5ZM84.1985 4.18V74.48H71.6793V4.18H84.1985ZM118.566 75.335C113.796 75.335 109.504 74.2271 105.689 72.01C101.873 69.73 98.8628 66.5321 96.6574 62.415C94.5112 58.2979 93.4382 53.5479 93.4382 48.165C93.4382 42.7821 94.5403 38.0321 96.7468 33.915C99.0115 29.7979 102.082 26.6321 105.957 24.415C109.832 22.135 114.154 20.995 118.924 20.995C123.692 20.995 128.015 22.135 131.89 24.415C135.764 26.6321 138.805 29.7979 141.011 33.915C143.276 38.0321 144.409 42.7821 144.409 48.165C144.409 53.5479 143.247 58.2979 140.922 62.415C138.656 66.5321 135.556 69.73 131.622 72.01C127.746 74.2271 123.395 75.335 118.566 75.335ZM118.566 63.745C120.831 63.745 122.948 63.175 124.915 62.035C126.942 60.8321 128.551 59.0579 129.744 56.715C130.936 54.3721 131.532 51.5221 131.532 48.165C131.532 43.1621 130.28 39.33 127.777 36.67C125.332 33.9471 122.322 32.585 118.745 32.585C115.168 32.585 112.157 33.9471 109.713 36.67C107.328 39.33 106.136 43.1621 106.136 48.165C106.136 53.1679 107.299 57.0321 109.624 59.755C112.008 62.415 114.989 63.745 118.566 63.745ZM166.111 29.545C167.721 27.0121 169.927 24.9529 172.728 23.37C175.59 21.7871 178.839 20.995 182.476 20.995C186.709 20.995 190.524 22.1029 193.922 24.32C197.38 26.5371 200.092 29.7029 202.059 33.82C204.087 37.8729 205.1 42.5921 205.1 47.975C205.1 53.3579 204.087 58.14 202.059 62.32C200.092 66.437 197.38 69.635 193.922 71.915C190.524 74.195 186.709 75.335 182.476 75.335C178.78 75.335 175.531 74.575 172.728 73.055C169.987 71.4721 167.781 69.445 166.111 66.975V74.48H153.592V4.18H166.111V29.545ZM192.312 47.975C192.312 44.8079 191.686 42.085 190.434 39.805C189.243 37.4621 187.633 35.6879 185.605 34.485C183.638 33.2821 181.492 32.68 179.167 32.68C176.902 32.68 174.756 33.3129 172.728 34.58C170.761 35.7829 169.152 37.5571 167.9 39.9C166.708 42.2429 166.111 44.9979 166.111 48.165C166.111 51.3321 166.708 54.0871 167.9 56.43C169.152 58.7729 170.761 60.5779 172.728 61.845C174.756 63.0479 176.902 63.65 179.167 63.65C181.492 63.65 183.638 63.0171 185.605 61.75C187.633 60.4829 189.243 58.6779 190.434 56.335C191.686 53.9921 192.312 51.205 192.312 47.975ZM210.978 47.975C210.978 42.655 211.962 37.9371 213.929 33.82C215.956 29.7029 218.668 26.5371 222.067 24.32C225.524 22.1029 229.369 20.995 233.602 20.995C237.299 20.995 240.518 21.7871 243.26 23.37C246.062 24.9529 248.298 26.9479 249.967 29.355V21.85H262.575V74.48H249.967V66.785C248.357 69.255 246.121 71.3129 243.26 72.96C240.458 74.5429 237.209 75.335 233.513 75.335C229.34 75.335 225.524 74.195 222.067 71.915C218.668 69.635 215.956 66.437 213.929 62.32C211.962 58.14 210.978 53.3579 210.978 47.975ZM249.967 48.165C249.967 44.935 249.371 42.18 248.178 39.9C246.985 37.5571 245.376 35.7829 243.349 34.58C241.323 33.3129 239.146 32.68 236.821 32.68C234.496 32.68 232.35 33.2821 230.383 34.485C228.416 35.6879 226.806 37.4621 225.554 39.805C224.361 42.085 223.766 44.8079 223.766 47.975C223.766 51.1421 224.361 53.9279 225.554 56.335C226.806 58.6779 228.416 60.4829 230.383 61.75C232.409 63.0171 234.556 63.65 236.821 63.65C239.146 63.65 241.323 63.0479 243.349 61.845C245.376 60.5779 246.985 58.805 248.178 56.525C249.371 54.1821 249.967 51.395 249.967 48.165ZM287.322 4.18V74.48H274.803V4.18H287.322ZM335.102 40.47C338.619 41.1671 341.511 43.035 343.776 46.075C346.042 49.115 347.174 52.5979 347.174 56.525C347.174 60.0721 346.34 63.2071 344.67 65.93C343.06 68.59 340.706 70.68 337.606 72.2C334.506 73.72 330.84 74.48 326.607 74.48H299.69V8.17H325.444C329.677 8.17 333.313 8.89794 336.354 10.355C339.454 11.8121 341.779 13.8379 343.329 16.435C344.938 19.0321 345.743 21.9771 345.743 25.27C345.743 29.1329 344.759 32.3629 342.792 34.96C340.885 37.5571 338.321 39.3929 335.102 40.47ZM312.209 35.53H323.656C326.637 35.53 328.932 34.8329 330.541 33.44C332.151 31.9829 332.956 29.925 332.956 27.265C332.956 24.605 332.151 22.5471 330.541 21.09C328.932 19.6329 326.637 18.905 323.656 18.905H312.209V35.53ZM324.818 63.65C327.859 63.65 330.214 62.89 331.883 61.37C333.612 59.85 334.476 57.6971 334.476 54.91C334.476 52.06 333.582 49.8429 331.793 48.26C330.005 46.6129 327.59 45.79 324.55 45.79H312.209V63.65H324.818ZM363.501 15.58C361.295 15.58 359.447 14.8521 357.957 13.395C356.526 11.875 355.811 10.0071 355.811 7.79C355.811 5.57293 356.526 3.73706 357.957 2.28C359.447 0.759998 361.295 0 363.501 0C365.707 0 367.526 0.759998 368.956 2.28C370.446 3.73706 371.192 5.57293 371.192 7.79C371.192 10.0071 370.446 11.875 368.956 13.395C367.526 14.8521 365.707 15.58 363.501 15.58ZM369.672 21.85V74.48H357.152V21.85H369.672Z" fill="black"/>
<path d="M510.176 8.16997V74.48H497.656V46.265H470.919V74.48H458.4V8.16997H470.919V35.435H497.656V8.16997H510.176ZM568.998 86.165L559.519 74.1C556.896 74.797 554.213 75.145 551.471 75.145C545.628 75.145 540.263 73.6879 535.375 70.775C530.486 67.862 526.611 63.84 523.75 58.71C520.888 53.517 519.458 47.6579 519.458 41.135C519.458 34.675 520.888 28.88 523.75 23.75C526.611 18.557 530.486 14.5029 535.375 11.59C540.263 8.67702 545.628 7.21997 551.471 7.21997C557.373 7.21997 562.738 8.67702 567.567 11.59C572.455 14.5029 576.301 18.557 579.103 23.75C581.964 28.88 583.395 34.675 583.395 41.135C583.395 47.025 582.202 52.4079 579.818 57.285C577.493 62.0979 574.303 66.025 570.25 69.065L584.558 86.165H568.998ZM532.335 41.135C532.335 45.5679 533.139 49.4629 534.749 52.82C536.359 56.177 538.594 58.7729 541.456 60.61C544.376 62.3829 547.715 63.27 551.471 63.27C555.227 63.27 558.535 62.3829 561.397 60.61C564.259 58.7729 566.494 56.177 568.104 52.82C569.713 49.4629 570.518 45.5679 570.518 41.135C570.518 36.702 569.713 32.8379 568.104 29.545C566.494 26.1879 564.259 23.6229 561.397 21.85C558.535 20.077 555.227 19.19 551.471 19.19C547.715 19.19 544.376 20.077 541.456 21.85C538.594 23.6229 536.359 26.1879 534.749 29.545C533.139 32.8379 532.335 36.702 532.335 41.135Z" fill="black"/>
</svg>
