<svg width="586" height="110" viewBox="0 0 586 110" fill="none" xmlns="http://www.w3.org/2000/svg">
<path d="M429.663 8.375H400.601C391.341 8.375 383.834 16.3499 383.834 26.1875V57.0625C383.834 66.9001 391.341 74.875 400.601 74.875H429.663C438.924 74.875 446.43 66.9001 446.43 57.0625V26.1875C446.43 16.3499 438.924 8.375 429.663 8.375Z" fill="#FFC200"/>
<path d="M396.458 66.7406H422.782V77.25H382.877V67.6313L409.034 25.5938H382.877V15.0844H422.782V24.7031L396.458 66.7406Z" fill="white"/>
<path d="M47.2334 28.515C45.8026 25.7279 43.8353 23.6071 41.3315 22.15C38.8276 20.6929 35.9057 19.965 32.568 19.965C28.8715 19.965 25.593 20.8521 22.7315 22.625C19.8699 24.3979 17.6343 26.932 16.0247 30.225C14.4151 33.5179 13.6103 37.3179 13.6103 41.625C13.6103 46.0579 14.4151 49.922 16.0247 53.215C17.6936 56.5079 19.9884 59.0421 22.9103 60.815C25.8311 62.5879 29.2292 63.475 33.1045 63.475C37.873 63.475 41.7786 62.145 44.8189 59.485C47.8593 56.762 49.8557 52.9929 50.8103 48.18H29.3488V38.015H63.1507V49.605C62.3157 54.2279 60.5272 58.5029 57.7853 62.43C55.0422 66.3571 51.4955 69.5229 47.1439 71.93C42.8516 74.2729 38.0228 75.445 32.6574 75.445C26.6359 75.445 21.1811 74.02 16.293 71.17C11.4641 68.2571 7.64802 64.235 4.84684 59.105C2.10379 53.975 0.733368 48.1479 0.733368 41.625C0.733368 35.102 2.10379 29.275 4.84684 24.145C7.64802 18.952 11.4641 14.93 16.293 12.08C21.1811 9.16705 26.6057 7.70999 32.568 7.70999C39.6022 7.70999 45.7132 9.54705 50.8997 13.22C56.0863 16.83 59.6632 21.9279 61.6305 28.515H47.2334ZM84.9319 4.57499V74.875H72.4127V4.57499H84.9319ZM119.299 75.73C114.53 75.73 110.238 74.622 106.423 72.405C102.606 70.125 99.5962 66.927 97.3908 62.81C95.2446 58.6929 94.1715 53.9429 94.1715 48.56C94.1715 43.177 95.2737 38.427 97.4802 34.31C99.7448 30.1929 102.815 27.027 106.691 24.81C110.565 22.53 114.888 21.39 119.657 21.39C124.426 21.39 128.748 22.53 132.623 24.81C136.498 27.027 139.538 30.1929 141.745 34.31C144.009 38.427 145.143 43.177 145.143 48.56C145.143 53.9429 143.98 58.6929 141.655 62.81C139.389 66.927 136.29 70.125 132.355 72.405C128.48 74.622 124.128 75.73 119.299 75.73ZM119.299 64.14C121.564 64.14 123.681 63.57 125.648 62.43C127.675 61.2271 129.285 59.4529 130.477 57.11C131.669 54.767 132.266 51.917 132.266 48.56C132.266 43.557 131.014 39.725 128.51 37.065C126.065 34.3421 123.055 32.98 119.478 32.98C115.901 32.98 112.89 34.3421 110.447 37.065C108.061 39.725 106.87 43.557 106.87 48.56C106.87 53.5629 108.032 57.4271 110.357 60.15C112.741 62.81 115.723 64.14 119.299 64.14ZM166.845 29.94C168.454 27.4071 170.661 25.3479 173.462 23.765C176.323 22.1821 179.573 21.39 183.209 21.39C187.442 21.39 191.257 22.4979 194.655 24.715C198.114 26.932 200.825 30.0979 202.793 34.215C204.82 38.2679 205.833 42.987 205.833 48.37C205.833 53.7529 204.82 58.535 202.793 62.715C200.825 66.832 198.114 70.03 194.655 72.31C191.257 74.59 187.442 75.73 183.209 75.73C179.514 75.73 176.264 74.97 173.462 73.45C170.72 71.867 168.515 69.84 166.845 67.37V74.875H154.325V4.57499H166.845V29.94ZM193.046 48.37C193.046 45.2029 192.42 42.48 191.168 40.2C189.976 37.8571 188.366 36.0829 186.339 34.88C184.371 33.6771 182.225 33.075 179.9 33.075C177.636 33.075 175.49 33.7079 173.462 34.975C171.495 36.1779 169.885 37.9521 168.633 40.295C167.441 42.6379 166.845 45.3929 166.845 48.56C166.845 51.727 167.441 54.4821 168.633 56.825C169.885 59.1679 171.495 60.9729 173.462 62.24C175.49 63.4429 177.636 64.045 179.9 64.045C182.225 64.045 184.371 63.412 186.339 62.145C188.366 60.8779 189.976 59.0729 191.168 56.73C192.42 54.387 193.046 51.6 193.046 48.37ZM211.711 48.37C211.711 43.05 212.695 38.332 214.662 34.215C216.689 30.0979 219.402 26.932 222.8 24.715C226.257 22.4979 230.102 21.39 234.336 21.39C238.032 21.39 241.251 22.1821 243.993 23.765C246.795 25.3479 249.031 27.3429 250.7 29.75V22.245H263.309V74.875H250.7V67.18C249.09 69.65 246.855 71.7079 243.993 73.355C241.191 74.9379 237.943 75.73 234.246 75.73C230.073 75.73 226.257 74.59 222.8 72.31C219.402 70.03 216.689 66.832 214.662 62.715C212.695 58.535 211.711 53.7529 211.711 48.37ZM250.7 48.56C250.7 45.33 250.104 42.575 248.911 40.295C247.719 37.9521 246.109 36.1779 244.083 34.975C242.056 33.7079 239.88 33.075 237.555 33.075C235.23 33.075 233.084 33.6771 231.116 34.88C229.149 36.0829 227.539 37.8571 226.287 40.2C225.095 42.48 224.499 45.2029 224.499 48.37C224.499 51.537 225.095 54.3229 226.287 56.73C227.539 59.0729 229.149 60.8779 231.116 62.145C233.143 63.412 235.289 64.045 237.555 64.045C239.88 64.045 242.056 63.4429 244.083 62.24C246.109 60.9729 247.719 59.2 248.911 56.92C250.104 54.5771 250.7 51.79 250.7 48.56ZM288.055 4.57499V74.875H275.536V4.57499H288.055ZM335.835 40.865C339.353 41.562 342.245 43.43 344.509 46.47C346.775 49.51 347.907 52.9929 347.907 56.92C347.907 60.4671 347.073 63.6021 345.403 66.325C343.794 68.985 341.44 71.075 338.339 72.595C335.239 74.115 331.573 74.875 327.34 74.875H300.424V8.56499H326.177C330.411 8.56499 334.047 9.29293 337.087 10.75C340.188 12.2071 342.513 14.2329 344.062 16.83C345.672 19.427 346.477 22.372 346.477 25.665C346.477 29.5279 345.493 32.7579 343.526 35.355C341.619 37.9521 339.054 39.7879 335.835 40.865ZM312.943 35.925H324.389C327.37 35.925 329.665 35.2279 331.275 33.835C332.884 32.3779 333.689 30.32 333.689 27.66C333.689 25 332.884 22.942 331.275 21.485C329.665 20.0279 327.37 19.3 324.389 19.3H312.943V35.925ZM325.552 64.045C328.592 64.045 330.947 63.285 332.616 61.765C334.345 60.245 335.209 58.0921 335.209 55.305C335.209 52.455 334.315 50.2379 332.527 48.655C330.738 47.0079 328.324 46.185 325.283 46.185H312.943V64.045H325.552ZM364.235 15.975C362.028 15.975 360.181 15.247 358.691 13.79C357.26 12.27 356.544 10.402 356.544 8.18499C356.544 5.96792 357.26 4.13205 358.691 2.67499C360.181 1.15499 362.028 0.394989 364.235 0.394989C366.44 0.394989 368.259 1.15499 369.69 2.67499C371.18 4.13205 371.925 5.96792 371.925 8.18499C371.925 10.402 371.18 12.27 369.69 13.79C368.259 15.247 366.44 15.975 364.235 15.975ZM370.405 22.245V74.875H357.886V22.245H370.405Z" fill="black"/>
<path d="M510.909 8.56499V74.875H498.39V46.66H471.652V74.875H459.133V8.56499H471.652V35.83H498.39V8.56499H510.909ZM569.731 86.56L560.252 74.495C557.629 75.1921 554.946 75.54 552.204 75.54C546.362 75.54 540.996 74.0829 536.108 71.17C531.219 68.2571 527.345 64.235 524.483 59.105C521.622 53.9121 520.191 48.0529 520.191 41.53C520.191 35.07 521.622 29.275 524.483 24.145C527.345 18.9521 531.219 14.8979 536.108 11.985C540.996 9.07204 546.362 7.61499 552.204 7.61499C558.106 7.61499 563.472 9.07204 568.301 11.985C573.189 14.8979 577.034 18.9521 579.836 24.145C582.698 29.275 584.128 35.07 584.128 41.53C584.128 47.42 582.936 52.8029 580.551 57.68C578.226 62.4929 575.036 66.42 570.983 69.46L585.291 86.56H569.731ZM533.068 41.53C533.068 45.9629 533.873 49.8579 535.482 53.215C537.092 56.5721 539.328 59.1679 542.189 61.005C545.11 62.7779 548.449 63.665 552.204 63.665C555.96 63.665 559.269 62.7779 562.13 61.005C564.992 59.1679 567.227 56.5721 568.837 53.215C570.447 49.8579 571.252 45.9629 571.252 41.53C571.252 37.0971 570.447 33.2329 568.837 29.94C567.227 26.5829 564.992 24.0179 562.13 22.245C559.269 20.472 555.96 19.585 552.204 19.585C548.449 19.585 545.11 20.472 542.189 22.245C539.328 24.0179 537.092 26.5829 535.482 29.94C533.873 33.2329 533.068 37.0971 533.068 41.53Z" fill="black"/>
<path d="M27.9169 100.786C28.4836 100.881 28.9978 101.127 29.4594 101.522C29.9367 101.918 30.3089 102.41 30.5772 102.995C30.8611 103.58 31.002 104.206 31.002 104.871C31.002 105.711 30.8008 106.471 30.3984 107.151C29.996 107.816 29.408 108.347 28.6323 108.742C27.8722 109.122 26.9712 109.312 25.9272 109.312H20.1147V92.7587H25.7037C26.7622 92.7587 27.6643 92.9487 28.4087 93.3287C29.1543 93.6933 29.7132 94.1921 30.0854 94.825C30.4587 95.4579 30.6443 96.1704 30.6443 96.9625C30.6443 97.9446 30.3917 98.7592 29.8842 99.4087C29.3924 100.042 28.7373 100.501 27.9169 100.786ZM22.1491 99.9075H25.5695C26.5241 99.9075 27.2619 99.67 27.7827 99.195C28.3048 98.72 28.5652 98.0633 28.5652 97.2237C28.5652 96.3842 28.3048 95.7275 27.7827 95.2525C27.2619 94.7775 26.5085 94.54 25.5248 94.54H22.1491V99.9075ZM25.7484 107.531C26.7622 107.531 27.5525 107.278 28.1181 106.771C28.6848 106.264 28.9676 105.56 28.9676 104.657C28.9676 103.74 28.6703 103.019 28.0734 102.496C27.4776 101.958 26.6806 101.689 25.6813 101.689H22.1491V107.531H25.7484ZM35.8152 92.7587V103.232C35.8152 104.705 36.1505 105.797 36.8212 106.51C37.5064 107.222 38.4531 107.579 39.6604 107.579C40.853 107.579 41.7842 107.222 42.4548 106.51C43.14 105.797 43.4832 104.705 43.4832 103.232V92.7587H45.5176V103.209C45.5176 104.586 45.2571 105.75 44.7351 106.7C44.2131 107.635 43.5055 108.33 42.6113 108.79C41.7316 109.25 40.7413 109.479 39.638 109.479C38.5348 109.479 37.5366 109.25 36.6423 108.79C35.7626 108.33 35.0629 107.635 34.5409 106.7C34.0345 105.75 33.7808 104.586 33.7808 103.209V92.7587H35.8152ZM53.8518 109.479C52.8234 109.479 51.899 109.289 51.0797 108.909C50.2749 108.513 49.6411 107.974 49.1794 107.294C48.7178 106.597 48.4786 105.797 48.4641 104.895H50.6326C50.7075 105.67 51.0048 106.328 51.5268 106.866C52.0634 107.389 52.838 107.65 53.8518 107.65C54.8209 107.65 55.581 107.397 56.1321 106.89C56.6988 106.367 56.9816 105.702 56.9816 104.895C56.9816 104.262 56.8173 103.747 56.4898 103.351C56.1623 102.956 55.752 102.654 55.2602 102.449C54.7684 102.243 54.1055 102.021 53.2706 101.784C52.2422 101.499 51.415 101.214 50.7891 100.929C50.1776 100.644 49.6489 100.201 49.2018 99.5987C48.7692 98.9812 48.5535 98.1583 48.5535 97.1287C48.5535 96.2262 48.7692 95.4271 49.2018 94.73C49.6344 94.0329 50.238 93.495 51.0126 93.115C51.8029 92.735 52.7038 92.545 53.7177 92.545C55.1786 92.545 56.3702 92.9333 57.2946 93.7087C58.2335 94.4842 58.7622 95.5137 58.8818 96.7962H56.6463C56.5714 96.1633 56.2584 95.6087 55.7073 95.1337C55.1563 94.6433 54.4252 94.3975 53.5165 94.3975C52.667 94.3975 51.9739 94.635 51.4374 95.11C50.9008 95.5695 50.6326 96.2179 50.6326 97.0575C50.6326 97.6595 50.7891 98.15 51.102 98.53C51.4296 98.91 51.8253 99.2033 52.2869 99.4087C52.7642 99.5987 53.427 99.8208 54.2766 100.074C55.3049 100.374 56.1321 100.676 56.7581 100.976C57.384 101.261 57.9206 101.712 58.3677 102.33C58.8148 102.932 59.0383 103.755 59.0383 104.8C59.0383 105.607 58.8371 106.367 58.4347 107.08C58.0323 107.792 57.4365 108.371 56.6463 108.814C55.856 109.257 54.9249 109.479 53.8518 109.479ZM64.0661 92.7587V109.312H62.0318V92.7587H64.0661ZM79.7845 109.312H77.7501L69.5679 96.1312V109.312H67.5335V92.735H69.5679L77.7501 105.892V92.735H79.7845V109.312ZM85.2874 94.5162V100.05H90.9657V101.831H85.2874V107.531H91.6364V109.312H83.253V92.735H91.6364V94.5162H85.2874ZM99.6554 109.479C98.6271 109.479 97.7026 109.289 96.8833 108.909C96.0785 108.513 95.4447 107.974 94.9831 107.294C94.5203 106.597 94.2822 105.797 94.2677 104.895H96.4362C96.51 105.67 96.8084 106.328 97.3304 106.866C97.867 107.389 98.6416 107.65 99.6554 107.65C100.623 107.65 101.384 107.397 101.936 106.89C102.501 106.367 102.785 105.702 102.785 104.895C102.785 104.262 102.621 103.747 102.293 103.351C101.965 102.956 101.556 102.654 101.064 102.449C100.572 102.243 99.908 102.021 99.0742 101.784C98.0458 101.499 97.2186 101.214 96.5927 100.929C95.9812 100.644 95.4525 100.201 95.0054 99.5987C94.5728 98.9812 94.3571 98.1583 94.3571 97.1287C94.3571 96.2262 94.5728 95.4271 95.0054 94.73C95.4369 94.0329 96.0405 93.495 96.8162 93.115C97.6054 92.735 98.5075 92.545 99.5213 92.545C100.981 92.545 102.174 92.9333 103.098 93.7087C104.037 94.4842 104.566 95.5137 104.685 96.7962H102.45C102.375 96.1633 102.062 95.6087 101.511 95.1337C100.959 94.6433 100.229 94.3975 99.3201 94.3975C98.4706 94.3975 97.7775 94.635 97.241 95.11C96.7045 95.5695 96.4362 96.2179 96.4362 97.0575C96.4362 97.6595 96.5927 98.15 96.9057 98.53C97.2332 98.91 97.6278 99.2033 98.0905 99.4087C98.5667 99.5987 99.2307 99.8208 100.08 100.074C101.109 100.374 101.936 100.676 102.562 100.976C103.188 101.261 103.724 101.712 104.171 102.33C104.618 102.932 104.842 103.755 104.842 104.8C104.842 105.607 104.641 106.367 104.238 107.08C103.836 107.792 103.239 108.371 102.45 108.814C101.66 109.257 100.728 109.479 99.6554 109.479ZM112.776 109.479C111.748 109.479 110.823 109.289 110.004 108.909C109.199 108.513 108.565 107.974 108.104 107.294C107.642 106.597 107.403 105.797 107.388 104.895H109.557C109.632 105.67 109.929 106.328 110.451 106.866C110.988 107.389 111.762 107.65 112.776 107.65C113.745 107.65 114.505 107.397 115.056 106.89C115.623 106.367 115.906 105.702 115.906 104.895C115.906 104.262 115.742 103.747 115.414 103.351C115.086 102.956 114.676 102.654 114.184 102.449C113.693 102.243 113.03 102.021 112.195 101.784C111.166 101.499 110.339 101.214 109.713 100.929C109.102 100.644 108.573 100.201 108.126 99.5987C107.693 98.9812 107.478 98.1583 107.478 97.1287C107.478 96.2262 107.693 95.4271 108.126 94.73C108.559 94.0329 109.162 93.495 109.937 93.115C110.727 92.735 111.628 92.545 112.642 92.545C114.103 92.545 115.294 92.9333 116.219 93.7087C117.158 94.4842 117.686 95.5137 117.806 96.7962H115.57C115.496 96.1633 115.183 95.6087 114.632 95.1337C114.08 94.6433 113.349 94.3975 112.441 94.3975C111.591 94.3975 110.898 94.635 110.362 95.11C109.825 95.5695 109.557 96.2179 109.557 97.0575C109.557 97.6595 109.713 98.15 110.026 98.53C110.354 98.91 110.749 99.2033 111.211 99.4087C111.688 99.5987 112.351 99.8208 113.201 100.074C114.229 100.374 115.056 100.676 115.682 100.976C116.308 101.261 116.845 101.712 117.292 102.33C117.739 102.932 117.963 103.755 117.963 104.8C117.963 105.607 117.761 106.367 117.359 107.08C116.957 107.792 116.361 108.371 115.57 108.814C114.78 109.257 113.849 109.479 112.776 109.479ZM131.857 109.479C130.828 109.479 129.905 109.289 129.085 108.909C128.28 108.513 127.647 107.974 127.184 107.294C126.723 106.597 126.485 105.797 126.469 104.895H128.637C128.712 105.67 129.011 106.328 129.532 106.866C130.068 107.389 130.844 107.65 131.857 107.65C132.826 107.65 133.586 107.397 134.137 106.89C134.704 106.367 134.986 105.702 134.986 104.895C134.986 104.262 134.823 103.747 134.495 103.351C134.167 102.956 133.757 102.654 133.265 102.449C132.773 102.243 132.11 102.021 131.275 101.784C130.247 101.499 129.42 101.214 128.794 100.929C128.184 100.644 127.654 100.201 127.207 99.5987C126.775 98.9812 126.558 98.1583 126.558 97.1287C126.558 96.2262 126.775 95.4271 127.207 94.73C127.639 94.0329 128.243 93.495 129.017 93.115C129.808 92.735 130.71 92.545 131.723 92.545C133.183 92.545 134.376 92.9333 135.299 93.7087C136.238 94.4842 136.768 95.5137 136.887 96.7962H134.651C134.577 96.1633 134.264 95.6087 133.712 95.1337C133.161 94.6433 132.431 94.3975 131.521 94.3975C130.672 94.3975 129.979 94.635 129.442 95.11C128.906 95.5695 128.637 96.2179 128.637 97.0575C128.637 97.6595 128.794 98.15 129.107 98.53C129.436 98.91 129.83 99.2033 130.292 99.4087C130.769 99.5987 131.432 99.8208 132.281 100.074C133.31 100.374 134.137 100.676 134.763 100.976C135.389 101.261 135.925 101.712 136.373 102.33C136.82 102.932 137.043 103.755 137.043 104.8C137.043 105.607 136.842 106.367 136.44 107.08C136.037 107.792 135.441 108.371 134.651 108.814C133.862 109.257 132.93 109.479 131.857 109.479ZM142.072 94.5162V100.05H147.751V101.831H142.072V107.531H148.421V109.312H140.038V92.735H148.421V94.5162H142.072ZM161.089 92.7587V94.5162H156.841V109.312H154.807V94.5162H150.537V92.7587H161.089ZM165.584 92.7587V103.232C165.584 104.705 165.919 105.797 166.59 106.51C167.275 107.222 168.222 107.579 169.429 107.579C170.62 107.579 171.553 107.222 172.223 106.51C172.909 105.797 173.252 104.705 173.252 103.232V92.7587H175.286V103.209C175.286 104.586 175.025 105.75 174.504 106.7C173.982 107.635 173.274 108.33 172.38 108.79C171.5 109.25 170.509 109.479 169.407 109.479C168.303 109.479 167.305 109.25 166.411 108.79C165.531 108.33 164.83 107.635 164.309 106.7C163.802 105.75 163.549 104.586 163.549 103.209V92.7587H165.584ZM189.097 97.6037C189.097 98.9812 188.65 100.13 187.756 101.047C186.876 101.95 185.527 102.401 183.71 102.401H180.714V109.312H178.68V92.7587H183.71C185.468 92.7587 186.802 93.21 187.711 94.1125C188.635 95.015 189.097 96.1787 189.097 97.6037ZM183.71 100.62C184.842 100.62 185.677 100.359 186.214 99.8362C186.75 99.3137 187.018 98.5692 187.018 97.6037C187.018 95.5612 185.915 94.54 183.71 94.54H180.714V100.62H183.71ZM209.546 109.312L207.512 107.127C206.752 107.967 205.939 108.592 205.075 109.004C204.211 109.399 203.234 109.597 202.147 109.597C201.073 109.597 200.12 109.392 199.285 108.98C198.466 108.568 197.824 107.982 197.362 107.222C196.915 106.462 196.692 105.575 196.692 104.562C196.692 103.407 196.997 102.393 197.608 101.522C198.234 100.635 199.151 99.9395 200.358 99.4325C199.881 98.8304 199.539 98.2771 199.33 97.77C199.121 97.2629 199.017 96.7096 199.017 96.1075C199.017 95.4104 199.181 94.7858 199.509 94.2312C199.852 93.6612 200.336 93.2183 200.962 92.9012C201.588 92.5842 202.311 92.4262 203.13 92.4262C203.935 92.4262 204.636 92.5925 205.232 92.925C205.827 93.2575 206.275 93.7242 206.573 94.3262C206.871 94.9117 207.006 95.5695 206.975 96.2975H204.941C204.956 95.6479 204.785 95.142 204.427 94.7775C204.069 94.3975 203.608 94.2075 203.041 94.2075C202.445 94.2075 201.96 94.3892 201.588 94.7537C201.23 95.1017 201.051 95.5529 201.051 96.1075C201.051 96.5825 201.171 97.042 201.409 97.485C201.663 97.9279 202.079 98.4742 202.661 99.1237L207.311 104.087L207.713 103.422L209.233 100.715H211.424L209.591 104.087C209.337 104.562 209.04 105.061 208.697 105.584L212.207 109.312H209.546ZM202.147 107.745C202.951 107.745 203.675 107.579 204.315 107.246C204.971 106.914 205.589 106.4 206.171 105.702L201.588 100.81C199.68 101.585 198.726 102.813 198.726 104.491C198.726 105.426 199.039 106.201 199.665 106.819C200.306 107.436 201.133 107.745 202.147 107.745ZM229.663 92.7587V94.5162H225.416V109.312H223.381V94.5162H219.111V92.7587H229.663ZM241.378 105.631H234.581L233.33 109.312H231.183L236.817 92.8537H239.164L244.776 109.312H242.629L241.378 105.631ZM240.796 103.874L237.98 95.5137L235.163 103.874H240.796ZM253.603 101.047L258.387 109.312H256.084L252.351 102.852L248.796 109.312H246.538L251.3 101.047L246.516 92.7587H248.796L252.552 99.2425L256.129 92.7587H258.409L253.603 101.047ZM266.317 101.024C266.317 99.4087 266.66 97.96 267.345 96.6775C268.03 95.3796 268.962 94.3654 270.139 93.6375C271.332 92.9096 272.651 92.545 274.096 92.545C275.795 92.545 277.279 92.9808 278.545 93.8512C279.812 94.7217 280.736 95.9567 281.317 97.5562H278.88C278.448 96.5587 277.822 95.7904 277.003 95.2525C276.198 94.7146 275.229 94.445 274.096 94.445C273.009 94.445 272.032 94.7146 271.168 95.2525C270.304 95.7904 269.625 96.5587 269.133 97.5562C268.642 98.5383 268.396 99.6937 268.396 101.024C268.396 102.338 268.642 103.494 269.133 104.491C269.625 105.473 270.304 106.233 271.168 106.771C272.032 107.309 273.009 107.579 274.096 107.579C275.229 107.579 276.198 107.317 277.003 106.795C277.822 106.257 278.448 105.489 278.88 104.491H281.317C280.736 106.074 279.812 107.302 278.545 108.172C277.279 109.027 275.795 109.455 274.096 109.455C272.651 109.455 271.332 109.099 270.139 108.386C268.962 107.658 268.03 106.652 267.345 105.37C266.66 104.087 266.317 102.639 266.317 101.024ZM291.41 109.479C289.964 109.479 288.645 109.122 287.453 108.41C286.26 107.682 285.314 106.676 284.614 105.394C283.928 104.096 283.585 102.639 283.585 101.024C283.585 99.4087 283.928 97.96 284.614 96.6775C285.314 95.3796 286.26 94.3737 287.453 93.6612C288.645 92.9333 289.964 92.5687 291.41 92.5687C292.871 92.5687 294.196 92.9333 295.389 93.6612C296.582 94.3737 297.521 95.3712 298.206 96.6537C298.891 97.9362 299.234 99.3933 299.234 101.024C299.234 102.654 298.891 104.111 298.206 105.394C297.521 106.676 296.582 107.682 295.389 108.41C294.196 109.122 292.871 109.479 291.41 109.479ZM291.41 107.602C292.497 107.602 293.474 107.333 294.338 106.795C295.218 106.257 295.903 105.489 296.395 104.491C296.901 103.494 297.155 102.338 297.155 101.024C297.155 99.6937 296.901 98.5383 296.395 97.5562C295.903 96.5587 295.225 95.7904 294.361 95.2525C293.497 94.7146 292.513 94.445 291.41 94.445C290.307 94.445 289.323 94.7146 288.459 95.2525C287.595 95.7904 286.908 96.5587 286.402 97.5562C285.91 98.5383 285.664 99.6937 285.664 101.024C285.664 102.338 285.91 103.494 286.402 104.491C286.908 105.489 287.595 106.257 288.459 106.795C289.339 107.333 290.322 107.602 291.41 107.602ZM314.171 109.312H312.137L303.955 96.1312V109.312H301.92V92.735H303.955L312.137 105.892V92.735H314.171V109.312ZM322.579 109.479C321.551 109.479 320.628 109.289 319.807 108.909C319.002 108.513 318.37 107.974 317.907 107.294C317.445 106.597 317.207 105.797 317.192 104.895H319.36C319.435 105.67 319.733 106.328 320.254 106.866C320.791 107.389 321.567 107.65 322.579 107.65C323.548 107.65 324.309 107.397 324.86 106.89C325.426 106.367 325.709 105.702 325.709 104.895C325.709 104.262 325.546 103.747 325.217 103.351C324.89 102.956 324.48 102.654 323.988 102.449C323.496 102.243 322.833 102.021 321.998 101.784C320.97 101.499 320.143 101.214 319.517 100.929C318.906 100.644 318.376 100.201 317.929 99.5987C317.498 98.9812 317.281 98.1583 317.281 97.1287C317.281 96.2262 317.498 95.4271 317.929 94.73C318.362 94.0329 318.966 93.495 319.74 93.115C320.53 92.735 321.432 92.545 322.445 92.545C323.906 92.545 325.099 92.9333 326.022 93.7087C326.961 94.4842 327.491 95.5137 327.609 96.7962H325.374C325.3 96.1633 324.987 95.6087 324.435 95.1337C323.884 94.6433 323.154 94.3975 322.244 94.3975C321.394 94.3975 320.701 94.635 320.165 95.11C319.628 95.5695 319.36 96.2179 319.36 97.0575C319.36 97.6595 319.517 98.15 319.83 98.53C320.158 98.91 320.553 99.2033 321.014 99.4087C321.492 99.5987 322.155 99.8208 323.004 100.074C324.032 100.374 324.86 100.676 325.486 100.976C326.112 101.261 326.648 101.712 327.095 102.33C327.542 102.932 327.766 103.755 327.766 104.8C327.766 105.607 327.565 106.367 327.162 107.08C326.76 107.792 326.164 108.371 325.374 108.814C324.585 109.257 323.652 109.479 322.579 109.479ZM332.75 92.7587V103.232C332.75 104.705 333.085 105.797 333.756 106.51C334.441 107.222 335.388 107.579 336.595 107.579C337.787 107.579 338.719 107.222 339.39 106.51C340.075 105.797 340.418 104.705 340.418 103.232V92.7587H342.452V103.209C342.452 104.586 342.191 105.75 341.67 106.7C341.148 107.635 340.44 108.33 339.546 108.79C338.667 109.25 337.675 109.479 336.573 109.479C335.47 109.479 334.471 109.25 333.577 108.79C332.698 108.33 331.997 107.635 331.476 106.7C330.968 105.75 330.716 104.586 330.716 103.209V92.7587H332.75ZM347.88 107.555H353.335V109.312H345.846V92.7587H347.88V107.555ZM365.085 92.7587V94.5162H360.838V109.312H358.803V94.5162H354.534V92.7587H365.085ZM376.801 105.631H370.005L368.753 109.312H366.607L372.24 92.8537H374.588L380.199 109.312H378.053L376.801 105.631ZM376.22 103.874L373.403 95.5137L370.586 103.874H376.22ZM394.905 109.312H392.87L384.688 96.1312V109.312H382.654V92.735H384.688L392.87 105.892V92.735H394.905V109.312ZM397.613 101.024C397.613 99.4087 397.955 97.96 398.641 96.6775C399.327 95.3796 400.258 94.3654 401.436 93.6375C402.628 92.9096 403.946 92.545 405.393 92.545C407.092 92.545 408.574 92.9808 409.842 93.8512C411.108 94.7217 412.033 95.9567 412.614 97.5562H410.177C409.744 96.5587 409.119 95.7904 408.299 95.2525C407.494 94.7146 406.525 94.445 405.393 94.445C404.304 94.445 403.328 94.7146 402.464 95.2525C401.599 95.7904 400.922 96.5587 400.43 97.5562C399.938 98.5383 399.692 99.6937 399.692 101.024C399.692 102.338 399.938 103.494 400.43 104.491C400.922 105.473 401.599 106.233 402.464 106.771C403.328 107.309 404.304 107.579 405.393 107.579C406.525 107.579 407.494 107.317 408.299 106.795C409.119 106.257 409.744 105.489 410.177 104.491H412.614C412.033 106.074 411.108 107.302 409.842 108.172C408.574 109.027 407.092 109.455 405.393 109.455C403.946 109.455 402.628 109.099 401.436 108.386C400.258 107.658 399.327 106.652 398.641 105.37C397.955 104.087 397.613 102.639 397.613 101.024ZM426.552 92.7587L421.477 103.066V109.312H419.442V103.066L414.345 92.7587H416.603L420.448 101.142L424.294 92.7587H426.552ZM454.241 92.7587L449.726 109.312H447.445L443.824 95.9887L440.068 109.312L437.81 109.336L433.451 92.7587H435.619L439.017 106.795L442.773 92.7587H445.053L448.63 106.747L452.051 92.7587H454.241ZM463.531 109.479C462.086 109.479 460.767 109.122 459.574 108.41C458.383 107.682 457.436 106.676 456.735 105.394C456.05 104.096 455.707 102.639 455.707 101.024C455.707 99.4087 456.05 97.96 456.735 96.6775C457.436 95.3796 458.383 94.3737 459.574 93.6612C460.767 92.9333 462.086 92.5687 463.531 92.5687C464.992 92.5687 466.319 92.9333 467.511 93.6612C468.703 94.3737 469.642 95.3712 470.328 96.6537C471.014 97.9362 471.356 99.3933 471.356 101.024C471.356 102.654 471.014 104.111 470.328 105.394C469.642 106.676 468.703 107.682 467.511 108.41C466.319 109.122 464.992 109.479 463.531 109.479ZM463.531 107.602C464.62 107.602 465.596 107.333 466.46 106.795C467.34 106.257 468.025 105.489 468.517 104.491C469.024 103.494 469.277 102.338 469.277 101.024C469.277 99.6937 469.024 98.5383 468.517 97.5562C468.025 96.5587 467.347 95.7904 466.482 95.2525C465.618 94.7146 464.635 94.445 463.531 94.445C462.429 94.445 461.446 94.7146 460.58 95.2525C459.716 95.7904 459.031 96.5587 458.524 97.5562C458.032 98.5383 457.786 99.6937 457.786 101.024C457.786 102.338 458.032 103.494 458.524 104.491C459.031 105.489 459.716 106.257 460.58 106.795C461.46 107.333 462.444 107.602 463.531 107.602ZM482.246 109.312L478.535 102.544H476.076V109.312H474.042V92.7587H479.072C480.249 92.7587 481.24 92.9725 482.045 93.4C482.865 93.8275 483.476 94.4058 483.878 95.1337C484.281 95.8617 484.482 96.6929 484.482 97.6275C484.482 98.7675 484.169 99.7733 483.543 100.644C482.932 101.514 482.008 102.092 480.771 102.377L484.683 109.312H482.246ZM476.076 100.81H479.072C480.175 100.81 481.002 100.525 481.553 99.955C482.104 99.3695 482.381 98.5929 482.381 97.6275C482.381 96.6454 482.104 95.8854 481.553 95.3475C481.017 94.8096 480.19 94.54 479.072 94.54H476.076V100.81ZM489.678 107.555H495.132V109.312H487.643V92.7587H489.678V107.555ZM502.144 92.7587C503.843 92.7587 505.311 93.0996 506.548 93.78C507.8 94.445 508.754 95.4033 509.41 96.6537C510.081 97.9042 510.416 99.3767 510.416 101.071C510.416 102.766 510.081 104.238 509.41 105.489C508.754 106.724 507.8 107.674 506.548 108.339C505.311 108.988 503.843 109.312 502.144 109.312H497.293V92.7587H502.144ZM502.144 107.531C504.156 107.531 505.691 106.97 506.75 105.845C507.808 104.705 508.337 103.114 508.337 101.071C508.337 99.0133 507.8 97.4054 506.727 96.25C505.669 95.0946 504.142 94.5162 502.144 94.5162H499.327V107.531H502.144ZM532.683 92.7587L528.167 109.312H525.887L522.266 95.9887L518.51 109.312L516.252 109.336L511.892 92.7587H514.061L517.459 106.795L521.215 92.7587H523.495L527.072 106.747L530.492 92.7587H532.683ZM536.943 92.7587V109.312H534.909V92.7587H536.943ZM545.262 92.7587C546.961 92.7587 548.428 93.0996 549.666 93.78C550.918 94.445 551.871 95.4033 552.527 96.6537C553.198 97.9042 553.533 99.3767 553.533 101.071C553.533 102.766 553.198 104.238 552.527 105.489C551.871 106.724 550.918 107.674 549.666 108.339C548.428 108.988 546.961 109.312 545.262 109.312H540.411V92.7587H545.262ZM545.262 107.531C547.274 107.531 548.809 106.97 549.867 105.845C550.926 104.705 551.454 103.114 551.454 101.071C551.454 99.0133 550.918 97.4054 549.845 96.25C548.786 95.0946 547.259 94.5162 545.262 94.5162H542.445V107.531H545.262ZM558.252 94.5162V100.05H563.93V101.831H558.252V107.531H564.601V109.312H556.217V92.735H564.601V94.5162H558.252Z" fill="black"/>
</svg>
