<svg width="585" height="110" viewBox="0 0 585 110" fill="none" xmlns="http://www.w3.org/2000/svg">
<rect width="585" height="110" fill="#1C1D20"/>
<path d="M428.93 7.97998H399.868C390.607 7.97998 383.101 15.9549 383.101 25.7925V56.6675C383.101 66.5051 390.607 74.48 399.868 74.48H428.93C438.19 74.48 445.697 66.5051 445.697 56.6675V25.7925C445.697 15.9549 438.19 7.97998 428.93 7.97998Z" fill="#FFC200"/>
<path d="M395.725 66.3456H422.049V76.855H382.144V67.2362L408.3 25.1987H382.144V14.6893H422.049V24.3081L395.725 66.3456Z" fill="white"/>
<path d="M46.5 28.12C45.0692 25.3329 43.1019 23.2121 40.5981 21.755C38.0942 20.2979 35.1723 19.57 31.8346 19.57C28.1381 19.57 24.8596 20.4571 21.9981 22.23C19.1365 24.0029 16.901 26.5371 15.2914 29.83C13.6817 33.1229 12.8769 36.9229 12.8769 41.23C12.8769 45.6629 13.6817 49.5271 15.2914 52.82C16.9602 56.1129 19.255 58.6471 22.1769 60.42C25.0977 62.1929 28.4958 63.08 32.3712 63.08C37.1396 63.08 41.0452 61.75 44.0856 59.09C47.126 56.3671 49.1223 52.5979 50.0769 47.785H28.6154V37.62H62.4173V49.21C61.5823 53.8329 59.7939 58.1079 57.0519 62.035C54.3089 65.9621 50.7621 69.1279 46.4106 71.535C42.1183 73.8779 37.2894 75.05 31.924 75.05C25.9025 75.05 20.4477 73.625 15.5596 70.775C10.7308 67.8621 6.91465 63.84 4.11347 58.71C1.37042 53.58 0 47.7529 0 41.23C0 34.7071 1.37042 28.88 4.11347 23.75C6.91465 18.5571 10.7308 14.535 15.5596 11.685C20.4477 8.77206 25.8723 7.315 31.8346 7.315C38.8689 7.315 44.9798 9.15207 50.1664 12.825C55.3529 16.435 58.9298 21.5329 60.8971 28.12H46.5ZM84.1985 4.18V74.48H71.6793V4.18H84.1985ZM118.566 75.335C113.796 75.335 109.504 74.2271 105.689 72.01C101.873 69.73 98.8628 66.5321 96.6574 62.415C94.5112 58.2979 93.4382 53.5479 93.4382 48.165C93.4382 42.7821 94.5403 38.0321 96.7468 33.915C99.0115 29.7979 102.082 26.6321 105.957 24.415C109.832 22.135 114.154 20.995 118.924 20.995C123.692 20.995 128.015 22.135 131.89 24.415C135.764 26.6321 138.805 29.7979 141.011 33.915C143.276 38.0321 144.409 42.7821 144.409 48.165C144.409 53.5479 143.247 58.2979 140.922 62.415C138.656 66.5321 135.556 69.73 131.622 72.01C127.746 74.2271 123.395 75.335 118.566 75.335ZM118.566 63.745C120.831 63.745 122.948 63.175 124.915 62.035C126.942 60.8321 128.551 59.0579 129.744 56.715C130.936 54.3721 131.532 51.5221 131.532 48.165C131.532 43.1621 130.28 39.33 127.777 36.67C125.332 33.9471 122.322 32.585 118.745 32.585C115.168 32.585 112.157 33.9471 109.713 36.67C107.328 39.33 106.136 43.1621 106.136 48.165C106.136 53.1679 107.299 57.0321 109.624 59.755C112.008 62.415 114.989 63.745 118.566 63.745ZM166.111 29.545C167.721 27.0121 169.927 24.9529 172.728 23.37C175.59 21.7871 178.839 20.995 182.476 20.995C186.709 20.995 190.524 22.1029 193.922 24.32C197.38 26.5371 200.092 29.7029 202.059 33.82C204.087 37.8729 205.1 42.5921 205.1 47.975C205.1 53.3579 204.087 58.14 202.059 62.32C200.092 66.4371 197.38 69.635 193.922 71.915C190.524 74.195 186.709 75.335 182.476 75.335C178.78 75.335 175.531 74.575 172.728 73.055C169.987 71.4721 167.781 69.445 166.111 66.975V74.48H153.592V4.18H166.111V29.545ZM192.312 47.975C192.312 44.8079 191.686 42.085 190.434 39.805C189.243 37.4621 187.633 35.6879 185.605 34.485C183.638 33.2821 181.492 32.68 179.167 32.68C176.902 32.68 174.756 33.3129 172.728 34.58C170.761 35.7829 169.152 37.5571 167.9 39.9C166.708 42.2429 166.111 44.9979 166.111 48.165C166.111 51.3321 166.708 54.0871 167.9 56.43C169.152 58.7729 170.761 60.5779 172.728 61.845C174.756 63.0479 176.902 63.65 179.167 63.65C181.492 63.65 183.638 63.0171 185.605 61.75C187.633 60.4829 189.243 58.6779 190.434 56.335C191.686 53.9921 192.312 51.205 192.312 47.975ZM210.978 47.975C210.978 42.655 211.962 37.9371 213.929 33.82C215.956 29.7029 218.668 26.5371 222.067 24.32C225.524 22.1029 229.369 20.995 233.602 20.995C237.299 20.995 240.518 21.7871 243.26 23.37C246.062 24.9529 248.298 26.9479 249.967 29.355V21.85H262.575V74.48H249.967V66.785C248.357 69.255 246.121 71.3129 243.26 72.96C240.458 74.5429 237.209 75.335 233.513 75.335C229.34 75.335 225.524 74.195 222.067 71.915C218.668 69.635 215.956 66.4371 213.929 62.32C211.962 58.14 210.978 53.3579 210.978 47.975ZM249.967 48.165C249.967 44.935 249.371 42.18 248.178 39.9C246.985 37.5571 245.376 35.7829 243.349 34.58C241.323 33.3129 239.146 32.68 236.821 32.68C234.496 32.68 232.35 33.2821 230.383 34.485C228.416 35.6879 226.806 37.4621 225.554 39.805C224.361 42.085 223.766 44.8079 223.766 47.975C223.766 51.1421 224.361 53.9279 225.554 56.335C226.806 58.6779 228.416 60.4829 230.383 61.75C232.409 63.0171 234.556 63.65 236.821 63.65C239.146 63.65 241.323 63.0479 243.349 61.845C245.376 60.5779 246.985 58.805 248.178 56.525C249.371 54.1821 249.967 51.395 249.967 48.165ZM287.322 4.18V74.48H274.803V4.18H287.322ZM335.102 40.47C338.619 41.1671 341.511 43.035 343.776 46.075C346.042 49.115 347.174 52.5979 347.174 56.525C347.174 60.0721 346.34 63.2071 344.67 65.93C343.06 68.59 340.706 70.68 337.606 72.2C334.506 73.72 330.84 74.48 326.607 74.48H299.69V8.17H325.444C329.677 8.17 333.313 8.89794 336.354 10.355C339.454 11.8121 341.779 13.8379 343.329 16.435C344.938 19.0321 345.743 21.9771 345.743 25.27C345.743 29.1329 344.759 32.3629 342.792 34.96C340.885 37.5571 338.321 39.3929 335.102 40.47ZM312.209 35.53H323.656C326.637 35.53 328.932 34.8329 330.541 33.44C332.151 31.9829 332.956 29.925 332.956 27.265C332.956 24.605 332.151 22.5471 330.541 21.09C328.932 19.6329 326.637 18.905 323.656 18.905H312.209V35.53ZM324.818 63.65C327.859 63.65 330.214 62.89 331.883 61.37C333.612 59.85 334.476 57.6971 334.476 54.91C334.476 52.06 333.582 49.8429 331.793 48.26C330.005 46.6129 327.59 45.79 324.55 45.79H312.209V63.65H324.818ZM363.501 15.58C361.295 15.58 359.447 14.8521 357.957 13.395C356.526 11.875 355.811 10.0071 355.811 7.79C355.811 5.57293 356.526 3.73706 357.957 2.28C359.447 0.759998 361.295 0 363.501 0C365.707 0 367.526 0.759998 368.956 2.28C370.446 3.73706 371.192 5.57293 371.192 7.79C371.192 10.0071 370.446 11.875 368.956 13.395C367.526 14.8521 365.707 15.58 363.501 15.58ZM369.672 21.85V74.48H357.152V21.85H369.672Z" fill="white"/>
<path d="M510.176 8.16997V74.48H497.656V46.265H470.919V74.48H458.4V8.16997H470.919V35.435H497.656V8.16997H510.176ZM568.998 86.165L559.519 74.1C556.896 74.797 554.213 75.145 551.471 75.145C545.628 75.145 540.263 73.6879 535.375 70.775C530.486 67.862 526.611 63.84 523.75 58.71C520.888 53.517 519.458 47.6579 519.458 41.135C519.458 34.675 520.888 28.88 523.75 23.75C526.611 18.557 530.486 14.5029 535.375 11.59C540.263 8.67702 545.628 7.21997 551.471 7.21997C557.373 7.21997 562.738 8.67702 567.567 11.59C572.455 14.5029 576.301 18.557 579.103 23.75C581.964 28.88 583.395 34.675 583.395 41.135C583.395 47.025 582.202 52.4079 579.818 57.285C577.493 62.0979 574.303 66.025 570.25 69.065L584.558 86.165H568.998ZM532.335 41.135C532.335 45.5679 533.139 49.4629 534.749 52.82C536.359 56.177 538.594 58.7729 541.456 60.61C544.376 62.3829 547.715 63.27 551.471 63.27C555.227 63.27 558.535 62.3829 561.397 60.61C564.259 58.7729 566.494 56.177 568.104 52.82C569.713 49.4629 570.518 45.5679 570.518 41.135C570.518 36.702 569.713 32.8379 568.104 29.545C566.494 26.1879 564.259 23.6229 561.397 21.85C558.535 20.077 555.227 19.19 551.471 19.19C547.715 19.19 544.376 20.077 541.456 21.85C538.594 23.6229 536.359 26.1879 534.749 29.545C533.139 32.8379 532.335 36.702 532.335 41.135Z" fill="white"/>
<path d="M27.1835 100.391C27.7502 100.486 28.2644 100.732 28.7261 101.128C29.2034 101.523 29.5756 102.015 29.8438 102.6C30.1278 103.185 30.2686 103.811 30.2686 104.476C30.2686 105.316 30.0674 106.076 29.665 106.756C29.2626 107.421 28.6746 107.952 27.8989 108.348C27.1388 108.728 26.2379 108.918 25.1938 108.918H19.3813V92.3637H24.9703C26.0288 92.3637 26.9309 92.5537 27.6753 92.9337C28.4209 93.2983 28.9798 93.7971 29.352 94.43C29.7254 95.0629 29.9109 95.7754 29.9109 96.5675C29.9109 97.5496 29.6583 98.3642 29.1508 99.0138C28.659 99.6467 28.004 100.106 27.1835 100.391ZM21.4157 99.5125H24.8362C25.7908 99.5125 26.5285 99.275 27.0494 98.8C27.5714 98.325 27.8318 97.6683 27.8318 96.8288C27.8318 95.9892 27.5714 95.3325 27.0494 94.8575C26.5285 94.3825 25.7751 94.145 24.7914 94.145H21.4157V99.5125ZM25.015 107.136C26.0288 107.136 26.8191 106.883 27.3847 106.376C27.9514 105.869 28.2342 105.165 28.2342 104.263C28.2342 103.345 27.9369 102.624 27.34 102.101C26.7442 101.563 25.9472 101.294 24.9479 101.294H21.4157V107.136H25.015ZM35.0818 92.3637V102.838C35.0818 104.31 35.4171 105.403 36.0878 106.115C36.773 106.828 37.7198 107.184 38.927 107.184C40.1197 107.184 41.0508 106.828 41.7215 106.115C42.4067 105.403 42.7498 104.31 42.7498 102.838V92.3637H44.7842V102.814C44.7842 104.191 44.5238 105.355 44.0018 106.305C43.4797 107.24 42.7722 107.935 41.8779 108.395C40.9982 108.855 40.0079 109.084 38.9046 109.084C37.8014 109.084 36.8032 108.855 35.909 108.395C35.0293 107.935 34.3295 107.24 33.8075 106.305C33.3012 105.355 33.0474 104.191 33.0474 102.814V92.3637H35.0818ZM53.1184 109.084C52.0901 109.084 51.1657 108.894 50.3463 108.514C49.5415 108.118 48.9077 107.579 48.4461 106.899C47.9844 106.202 47.7452 105.403 47.7307 104.5H49.8992C49.9741 105.275 50.2714 105.933 50.7934 106.471C51.33 106.994 52.1046 107.255 53.1184 107.255C54.0876 107.255 54.8477 107.002 55.3987 106.495C55.9654 105.973 56.2482 105.308 56.2482 104.5C56.2482 103.867 56.0839 103.352 55.7564 102.956C55.4289 102.561 55.0187 102.259 54.5269 102.054C54.035 101.848 53.3722 101.626 52.5372 101.389C51.5088 101.104 50.6817 100.819 50.0557 100.534C49.4443 100.249 48.9156 99.8058 48.4684 99.2038C48.0359 98.5863 47.8201 97.7633 47.8201 96.7338C47.8201 95.8313 48.0359 95.0321 48.4684 94.335C48.901 93.6379 49.5046 93.1 50.2793 92.72C51.0695 92.34 51.9705 92.15 52.9843 92.15C54.4452 92.15 55.6368 92.5383 56.5612 93.3138C57.5002 94.0892 58.0289 95.1188 58.1485 96.4013H55.9129C55.838 95.7683 55.525 95.2137 54.974 94.7387C54.4229 94.2483 53.6919 94.0025 52.7831 94.0025C51.9336 94.0025 51.2406 94.24 50.704 94.715C50.1675 95.1746 49.8992 95.8229 49.8992 96.6625C49.8992 97.2646 50.0557 97.755 50.3687 98.135C50.6962 98.515 51.0919 98.8083 51.5535 99.0138C52.0308 99.2038 52.6937 99.4258 53.5432 99.6788C54.5716 99.9792 55.3987 100.281 56.0247 100.581C56.6506 100.866 57.1872 101.317 57.6343 101.935C58.0814 102.537 58.305 103.36 58.305 104.405C58.305 105.212 58.1038 105.972 57.7014 106.685C57.299 107.397 56.7032 107.976 55.9129 108.419C55.1226 108.862 54.1915 109.084 53.1184 109.084ZM63.3328 92.3637V108.918H61.2984V92.3637H63.3328ZM79.0511 108.918H77.0168L68.8345 95.7362V108.918H66.8002V92.34H68.8345L77.0168 105.497V92.34H79.0511V108.918ZM84.554 94.1212V99.655H90.2324V101.436H84.554V107.136H90.903V108.918H82.5196V92.34H90.903V94.1212H84.554ZM98.9221 109.084C97.8937 109.084 96.9693 108.894 96.1499 108.514C95.3451 108.118 94.7114 107.579 94.2497 106.899C93.7869 106.202 93.5489 105.403 93.5343 104.5H95.7028C95.7766 105.275 96.075 105.933 96.597 106.471C97.1336 106.994 97.9082 107.255 98.9221 107.255C99.8901 107.255 100.65 107.002 101.202 106.495C101.768 105.973 102.052 105.308 102.052 104.5C102.052 103.867 101.888 103.352 101.56 102.956C101.231 102.561 100.822 102.259 100.33 102.054C99.8386 101.848 99.1747 101.626 98.3408 101.389C97.3124 101.104 96.4853 100.819 95.8593 100.534C95.2479 100.249 94.7192 99.8058 94.272 99.2038C93.8395 98.5863 93.6237 97.7633 93.6237 96.7338C93.6237 95.8313 93.8395 95.0321 94.272 94.335C94.7035 93.6379 95.3071 93.1 96.0829 92.72C96.872 92.34 97.7741 92.15 98.7879 92.15C100.248 92.15 101.44 92.5383 102.365 93.3138C103.304 94.0892 103.832 95.1188 103.952 96.4013H101.717C101.642 95.7683 101.329 95.2137 100.778 94.7387C100.225 94.2483 99.4955 94.0025 98.5867 94.0025C97.7372 94.0025 97.0442 94.24 96.5076 94.715C95.9711 95.1746 95.7028 95.8229 95.7028 96.6625C95.7028 97.2646 95.8593 97.755 96.1723 98.135C96.4998 98.515 96.8944 98.8083 97.3572 99.0138C97.8333 99.2038 98.4973 99.4258 99.3468 99.6788C100.375 99.9792 101.202 100.281 101.828 100.581C102.454 100.866 102.991 101.317 103.438 101.935C103.885 102.537 104.109 103.36 104.109 104.405C104.109 105.212 103.907 105.972 103.505 106.685C103.103 107.397 102.506 107.976 101.717 108.419C100.926 108.862 99.9951 109.084 98.9221 109.084ZM112.043 109.084C111.014 109.084 110.09 108.894 109.271 108.514C108.466 108.118 107.832 107.579 107.37 106.899C106.909 106.202 106.669 105.403 106.655 104.5H108.823C108.898 105.275 109.196 105.933 109.718 106.471C110.254 106.994 111.029 107.255 112.043 107.255C113.012 107.255 113.772 107.002 114.323 106.495C114.89 105.973 115.172 105.308 115.172 104.5C115.172 103.867 115.008 103.352 114.681 102.956C114.353 102.561 113.943 102.259 113.451 102.054C112.959 101.848 112.296 101.626 111.461 101.389C110.433 101.104 109.606 100.819 108.98 100.534C108.368 100.249 107.84 99.8058 107.393 99.2038C106.96 98.5863 106.744 97.7633 106.744 96.7338C106.744 95.8313 106.96 95.0321 107.393 94.335C107.825 93.6379 108.429 93.1 109.203 92.72C109.994 92.34 110.895 92.15 111.909 92.15C113.369 92.15 114.561 92.5383 115.485 93.3138C116.424 94.0892 116.953 95.1188 117.073 96.4013H114.837C114.762 95.7683 114.449 95.2137 113.898 94.7387C113.347 94.2483 112.616 94.0025 111.707 94.0025C110.858 94.0025 110.165 94.24 109.628 94.715C109.092 95.1746 108.823 95.8229 108.823 96.6625C108.823 97.2646 108.98 97.755 109.293 98.135C109.62 98.515 110.016 98.8083 110.478 99.0138C110.955 99.2038 111.618 99.4258 112.467 99.6788C113.496 99.9792 114.323 100.281 114.949 100.581C115.575 100.866 116.111 101.317 116.559 101.935C117.006 102.537 117.229 103.36 117.229 104.405C117.229 105.212 117.028 105.972 116.626 106.685C116.223 107.397 115.627 107.976 114.837 108.419C114.047 108.862 113.116 109.084 112.043 109.084ZM131.123 109.084C130.095 109.084 129.172 108.894 128.351 108.514C127.546 108.118 126.914 107.579 126.451 106.899C125.989 106.202 125.751 105.403 125.736 104.5H127.904C127.979 105.275 128.277 105.933 128.798 106.471C129.335 106.994 130.111 107.255 131.123 107.255C132.092 107.255 132.853 107.002 133.404 106.495C133.97 105.973 134.253 105.308 134.253 104.5C134.253 103.867 134.09 103.352 133.761 102.956C133.434 102.561 133.024 102.259 132.532 102.054C132.04 101.848 131.377 101.626 130.542 101.389C129.514 101.104 128.687 100.819 128.061 100.534C127.45 100.249 126.92 99.8058 126.473 99.2038C126.042 98.5863 125.825 97.7633 125.825 96.7338C125.825 95.8313 126.042 95.0321 126.473 94.335C126.906 93.6379 127.509 93.1 128.284 92.72C129.074 92.34 129.976 92.15 130.989 92.15C132.45 92.15 133.643 92.5383 134.566 93.3138C135.505 94.0892 136.035 95.1188 136.153 96.4013H133.918C133.844 95.7683 133.531 95.2137 132.979 94.7387C132.428 94.2483 131.698 94.0025 130.788 94.0025C129.938 94.0025 129.245 94.24 128.709 94.715C128.172 95.1746 127.904 95.8229 127.904 96.6625C127.904 97.2646 128.061 97.755 128.374 98.135C128.702 98.515 129.097 98.8083 129.558 99.0138C130.036 99.2038 130.699 99.4258 131.548 99.6788C132.576 99.9792 133.404 100.281 134.03 100.581C134.655 100.866 135.192 101.317 135.639 101.935C136.086 102.537 136.31 103.36 136.31 104.405C136.31 105.212 136.109 105.972 135.706 106.685C135.304 107.397 134.708 107.976 133.918 108.419C133.129 108.862 132.196 109.084 131.123 109.084ZM141.339 94.1212V99.655H147.017V101.436H141.339V107.136H147.688V108.918H139.304V92.34H147.688V94.1212H141.339ZM160.356 92.3637V94.1212H156.108V108.918H154.074V94.1212H149.804V92.3637H160.356ZM164.85 92.3637V102.838C164.85 104.31 165.186 105.403 165.856 106.115C166.542 106.828 167.488 107.184 168.696 107.184C169.887 107.184 170.819 106.828 171.49 106.115C172.175 105.403 172.518 104.31 172.518 102.838V92.3637H174.553V102.814C174.553 104.191 174.291 105.355 173.77 106.305C173.248 107.24 172.541 107.935 171.646 108.395C170.767 108.855 169.775 109.084 168.673 109.084C167.57 109.084 166.572 108.855 165.678 108.395C164.798 107.935 164.097 107.24 163.576 106.305C163.069 105.355 162.816 104.191 162.816 102.814V92.3637H164.85ZM188.364 97.2088C188.364 98.5863 187.917 99.7346 187.023 100.652C186.143 101.555 184.794 102.006 182.976 102.006H179.981V108.918H177.946V92.3637H182.976C184.735 92.3637 186.068 92.815 186.978 93.7175C187.901 94.62 188.364 95.7838 188.364 97.2088ZM182.976 100.225C184.109 100.225 184.944 99.9638 185.48 99.4413C186.017 98.9188 186.285 98.1742 186.285 97.2088C186.285 95.1663 185.182 94.145 182.976 94.145H179.981V100.225H182.976ZM208.813 108.918L206.779 106.733C206.018 107.572 205.206 108.197 204.342 108.609C203.478 109.004 202.501 109.203 201.413 109.203C200.34 109.203 199.387 108.997 198.552 108.585C197.732 108.173 197.091 107.588 196.629 106.828C196.182 106.068 195.958 105.18 195.958 104.168C195.958 103.012 196.264 101.998 196.875 101.128C197.501 100.24 198.418 99.5446 199.625 99.0375C199.147 98.4354 198.805 97.8821 198.596 97.375C198.387 96.8679 198.283 96.3146 198.283 95.7125C198.283 95.0154 198.448 94.3908 198.775 93.8363C199.118 93.2663 199.602 92.8233 200.228 92.5062C200.854 92.1892 201.578 92.0312 202.397 92.0312C203.202 92.0312 203.902 92.1975 204.498 92.53C205.094 92.8625 205.541 93.3292 205.84 93.9313C206.138 94.5167 206.272 95.1746 206.242 95.9025H204.208C204.222 95.2529 204.051 94.7471 203.693 94.3825C203.336 94.0025 202.874 93.8125 202.307 93.8125C201.712 93.8125 201.227 93.9942 200.854 94.3588C200.497 94.7067 200.318 95.1579 200.318 95.7125C200.318 96.1875 200.437 96.6471 200.675 97.09C200.929 97.5329 201.346 98.0792 201.927 98.7287L206.577 103.693L206.98 103.027L208.5 100.32H210.691L208.858 103.693C208.604 104.168 208.307 104.666 207.963 105.189L211.473 108.918H208.813ZM201.413 107.35C202.218 107.35 202.941 107.184 203.582 106.851C204.238 106.519 204.856 106.005 205.437 105.308L200.854 100.415C198.946 101.19 197.993 102.418 197.993 104.096C197.993 105.031 198.306 105.806 198.932 106.424C199.572 107.041 200.399 107.35 201.413 107.35ZM228.93 92.3637V94.1212H224.682V108.918H222.648V94.1212H218.378V92.3637H228.93ZM240.644 105.236H233.848L232.596 108.918H230.45L236.084 92.4588H238.431L244.042 108.918H241.896L240.644 105.236ZM240.063 103.479L237.246 95.1188L234.429 103.479H240.063ZM252.869 100.652L257.654 108.918H255.351L251.618 102.457L248.063 108.918H245.805L250.567 100.652L245.783 92.3637H248.063L251.819 98.8475L255.396 92.3637H257.676L252.869 100.652ZM265.583 100.629C265.583 99.0138 265.926 97.565 266.612 96.2825C267.297 94.9846 268.229 93.9704 269.406 93.2425C270.599 92.5146 271.918 92.15 273.363 92.15C275.062 92.15 276.545 92.5858 277.812 93.4562C279.078 94.3267 280.003 95.5617 280.584 97.1613H278.147C277.715 96.1638 277.089 95.3954 276.269 94.8575C275.464 94.3196 274.495 94.05 273.363 94.05C272.275 94.05 271.298 94.3196 270.434 94.8575C269.57 95.3954 268.892 96.1638 268.4 97.1613C267.908 98.1433 267.662 99.2988 267.662 100.629C267.662 101.943 267.908 103.099 268.4 104.096C268.892 105.078 269.57 105.838 270.434 106.376C271.298 106.914 272.275 107.184 273.363 107.184C274.495 107.184 275.464 106.923 276.269 106.4C277.089 105.862 277.715 105.094 278.147 104.096H280.584C280.003 105.679 279.078 106.907 277.812 107.777C276.545 108.632 275.062 109.06 273.363 109.06C271.918 109.06 270.599 108.704 269.406 107.991C268.229 107.263 267.297 106.257 266.612 104.975C265.926 103.692 265.583 102.244 265.583 100.629ZM290.676 109.084C289.231 109.084 287.912 108.728 286.719 108.015C285.527 107.287 284.581 106.281 283.88 104.999C283.195 103.701 282.852 102.244 282.852 100.629C282.852 99.0138 283.195 97.565 283.88 96.2825C284.581 94.9846 285.527 93.9788 286.719 93.2663C287.912 92.5383 289.231 92.1737 290.676 92.1737C292.137 92.1737 293.463 92.5383 294.656 93.2663C295.848 93.9788 296.787 94.9762 297.473 96.2587C298.158 97.5412 298.501 98.9983 298.501 100.629C298.501 102.259 298.158 103.716 297.473 104.999C296.787 106.281 295.848 107.287 294.656 108.015C293.463 108.728 292.137 109.084 290.676 109.084ZM290.676 107.208C291.764 107.208 292.741 106.938 293.605 106.4C294.485 105.862 295.17 105.094 295.662 104.096C296.168 103.099 296.422 101.943 296.422 100.629C296.422 99.2988 296.168 98.1433 295.662 97.1613C295.17 96.1638 294.491 95.3954 293.627 94.8575C292.763 94.3196 291.78 94.05 290.676 94.05C289.573 94.05 288.589 94.3196 287.725 94.8575C286.861 95.3954 286.175 96.1638 285.669 97.1613C285.177 98.1433 284.931 99.2988 284.931 100.629C284.931 101.943 285.177 103.099 285.669 104.096C286.175 105.094 286.861 105.862 287.725 106.4C288.605 106.938 289.589 107.208 290.676 107.208ZM313.438 108.918H311.404L303.221 95.7362V108.918H301.187V92.34H303.221L311.404 105.497V92.34H313.438V108.918ZM321.846 109.084C320.818 109.084 319.894 108.894 319.074 108.514C318.269 108.118 317.636 107.579 317.174 106.899C316.712 106.202 316.474 105.403 316.458 104.5H318.627C318.702 105.275 319 105.933 319.521 106.471C320.057 106.994 320.833 107.255 321.846 107.255C322.815 107.255 323.575 107.002 324.126 106.495C324.693 105.973 324.976 105.308 324.976 104.5C324.976 103.867 324.813 103.352 324.484 102.956C324.156 102.561 323.746 102.259 323.254 102.054C322.763 101.848 322.1 101.626 321.265 101.389C320.236 101.104 319.409 100.819 318.783 100.534C318.173 100.249 317.643 99.8058 317.196 99.2038C316.764 98.5863 316.548 97.7633 316.548 96.7338C316.548 95.8313 316.764 95.0321 317.196 94.335C317.629 93.6379 318.232 93.1 319.007 92.72C319.797 92.34 320.699 92.15 321.712 92.15C323.173 92.15 324.365 92.5383 325.289 93.3138C326.228 94.0892 326.758 95.1188 326.876 96.4013H324.64C324.567 95.7683 324.254 95.2137 323.701 94.7387C323.15 94.2483 322.42 94.0025 321.511 94.0025C320.661 94.0025 319.968 94.24 319.432 94.715C318.895 95.1746 318.627 95.8229 318.627 96.6625C318.627 97.2646 318.783 97.755 319.096 98.135C319.425 98.515 319.819 98.8083 320.281 99.0138C320.758 99.2038 321.421 99.4258 322.271 99.6788C323.299 99.9792 324.126 100.281 324.752 100.581C325.378 100.866 325.915 101.317 326.362 101.935C326.809 102.537 327.032 103.36 327.032 104.405C327.032 105.212 326.831 105.972 326.429 106.685C326.026 107.397 325.431 107.976 324.64 108.419C323.851 108.862 322.919 109.084 321.846 109.084ZM332.017 92.3637V102.838C332.017 104.31 332.352 105.403 333.023 106.115C333.708 106.828 334.655 107.184 335.862 107.184C337.053 107.184 337.986 106.828 338.656 106.115C339.342 105.403 339.685 104.31 339.685 102.838V92.3637H341.719V102.814C341.719 104.191 341.458 105.355 340.937 106.305C340.415 107.24 339.707 107.935 338.813 108.395C337.933 108.855 336.942 109.084 335.84 109.084C334.736 109.084 333.738 108.855 332.844 108.395C331.964 107.935 331.263 107.24 330.742 106.305C330.235 105.355 329.982 104.191 329.982 102.814V92.3637H332.017ZM347.147 107.16H352.602V108.918H345.113V92.3637H347.147V107.16ZM364.352 92.3637V94.1212H360.105V108.918H358.07V94.1212H353.8V92.3637H364.352ZM376.068 105.236H369.271L368.02 108.918H365.873L371.507 92.4588H373.854L379.466 108.918H377.32L376.068 105.236ZM375.486 103.479L372.67 95.1188L369.853 103.479H375.486ZM394.171 108.918H392.137L383.955 95.7362V108.918H381.92V92.34H383.955L392.137 105.497V92.34H394.171V108.918ZM396.88 100.629C396.88 99.0138 397.222 97.565 397.908 96.2825C398.593 94.9846 399.524 93.9704 400.703 93.2425C401.894 92.5146 403.213 92.15 404.66 92.15C406.359 92.15 407.841 92.5858 409.108 93.4562C410.375 94.3267 411.299 95.5617 411.88 97.1613H409.444C409.011 96.1638 408.385 95.3954 407.566 94.8575C406.761 94.3196 405.792 94.05 404.66 94.05C403.571 94.05 402.595 94.3196 401.731 94.8575C400.866 95.3954 400.188 96.1638 399.697 97.1613C399.205 98.1433 398.959 99.2988 398.959 100.629C398.959 101.943 399.205 103.099 399.697 104.096C400.188 105.078 400.866 105.838 401.731 106.376C402.595 106.914 403.571 107.184 404.66 107.184C405.792 107.184 406.761 106.923 407.566 106.4C408.385 105.862 409.011 105.094 409.444 104.096H411.88C411.299 105.679 410.375 106.907 409.108 107.777C407.841 108.632 406.359 109.06 404.66 109.06C403.213 109.06 401.894 108.704 400.703 107.991C399.524 107.263 398.593 106.257 397.908 104.975C397.222 103.692 396.88 102.244 396.88 100.629ZM425.818 92.3637L420.743 102.671V108.918H418.709V102.671L413.612 92.3637H415.87L419.715 100.747L423.56 92.3637H425.818ZM453.508 92.3637L448.992 108.918H446.712L443.09 95.5938L439.334 108.918L437.077 108.941L432.717 92.3637H434.886L438.284 106.4L442.04 92.3637H444.32L447.897 106.352L451.317 92.3637H453.508ZM462.798 109.084C461.353 109.084 460.034 108.728 458.841 108.015C457.649 107.287 456.703 106.281 456.002 104.999C455.317 103.701 454.973 102.244 454.973 100.629C454.973 99.0138 455.317 97.565 456.002 96.2825C456.703 94.9846 457.649 93.9788 458.841 93.2663C460.034 92.5383 461.353 92.1737 462.798 92.1737C464.259 92.1737 465.586 92.5383 466.777 93.2663C467.97 93.9788 468.909 94.9762 469.594 96.2587C470.28 97.5412 470.622 98.9983 470.622 100.629C470.622 102.259 470.28 103.716 469.594 104.999C468.909 106.281 467.97 107.287 466.777 108.015C465.586 108.728 464.259 109.084 462.798 109.084ZM462.798 107.208C463.887 107.208 464.863 106.938 465.727 106.4C466.606 105.862 467.291 105.094 467.783 104.096C468.291 103.099 468.543 101.943 468.543 100.629C468.543 99.2988 468.291 98.1433 467.783 97.1613C467.291 96.1638 466.614 95.3954 465.749 94.8575C464.885 94.3196 463.901 94.05 462.798 94.05C461.696 94.05 460.712 94.3196 459.847 94.8575C458.983 95.3954 458.298 96.1638 457.79 97.1613C457.298 98.1433 457.053 99.2988 457.053 100.629C457.053 101.943 457.298 103.099 457.79 104.096C458.298 105.094 458.983 105.862 459.847 106.4C460.727 106.938 461.71 107.208 462.798 107.208ZM481.513 108.918L477.802 102.149H475.343V108.918H473.309V92.3637H478.339C479.516 92.3637 480.507 92.5775 481.312 93.005C482.131 93.4325 482.743 94.0108 483.145 94.7387C483.547 95.4667 483.749 96.2979 483.749 97.2325C483.749 98.3725 483.436 99.3783 482.81 100.249C482.198 101.119 481.275 101.698 480.038 101.983L483.95 108.918H481.513ZM475.343 100.415H478.339C479.442 100.415 480.269 100.13 480.82 99.56C481.371 98.9746 481.647 98.1979 481.647 97.2325C481.647 96.2504 481.371 95.4904 480.82 94.9525C480.284 94.4146 479.456 94.145 478.339 94.145H475.343V100.415ZM488.944 107.16H494.399V108.918H486.91V92.3637H488.944V107.16ZM501.411 92.3637C503.11 92.3637 504.578 92.7046 505.815 93.385C507.067 94.05 508.02 95.0083 508.676 96.2587C509.347 97.5092 509.682 98.9817 509.682 100.676C509.682 102.371 509.347 103.843 508.676 105.094C508.02 106.329 507.067 107.279 505.815 107.944C504.578 108.593 503.11 108.918 501.411 108.918H496.56V92.3637H501.411ZM501.411 107.136C503.423 107.136 504.958 106.575 506.016 105.45C507.075 104.31 507.603 102.719 507.603 100.676C507.603 98.6183 507.067 97.0104 505.994 95.855C504.935 94.6996 503.408 94.1212 501.411 94.1212H498.594V107.136H501.411ZM531.95 92.3637L527.434 108.918H525.154L521.532 95.5938L517.776 108.918L515.518 108.941L511.159 92.3637H513.328L516.726 106.4L520.481 92.3637H522.762L526.339 106.352L529.759 92.3637H531.95ZM536.21 92.3637V108.918H534.175V92.3637H536.21ZM544.528 92.3637C546.227 92.3637 547.695 92.7046 548.932 93.385C550.184 94.05 551.138 95.0083 551.794 96.2587C552.465 97.5092 552.8 98.9817 552.8 100.676C552.8 102.371 552.465 103.843 551.794 105.094C551.138 106.329 550.184 107.279 548.932 107.944C547.695 108.593 546.227 108.918 544.528 108.918H539.677V92.3637H544.528ZM544.528 107.136C546.54 107.136 548.075 106.575 549.134 105.45C550.192 104.31 550.721 102.719 550.721 100.676C550.721 98.6183 550.184 97.0104 549.111 95.855C548.053 94.6996 546.526 94.1212 544.528 94.1212H541.712V107.136H544.528ZM557.518 94.1212V99.655H563.197V101.436H557.518V107.136H563.867V108.918H555.484V92.34H563.867V94.1212H557.518Z" fill="white"/>
</svg>
