<svg xmlns="http://www.w3.org/2000/svg" xmlns:xlink="http://www.w3.org/1999/xlink" width="1080" zoomAndPan="magnify" viewBox="0 0 810 809.999993" height="1080" preserveAspectRatio="xMidYMid meet" version="1.0"><path fill="#ffffff" d="M 27.546875 639.035156 C 49.910156 693.195312 102.113281 718.839844 135.476562 735.230469 C 266.988281 799.84375 466.710938 792.402344 610.414062 674.800781 C 644.042969 647.28125 809.789062 503.101562 771.0625 307.691406 C 736.824219 134.945312 565.078125 34.636719 420.480469 21.222656 C 300.6875 10.109375 144.28125 53.609375 89.058594 158.941406 C 54.335938 225.179688 96.117188 246.25 67.78125 396.359375 C 43.25 526.289062 0.191406 572.785156 27.546875 639.035156 " fill-opacity="1" fill-rule="nonzero"/><path fill="#000000" d="M 650.347656 714.546875 L 159.398438 714.546875 C 150.15625 714.546875 142.371094 706.691406 142.414062 697.410156 L 145.332031 65.816406 C 145.367188 57.335938 151.976562 50.734375 160.421875 50.734375 L 651.375 50.734375 C 660.621094 50.734375 668.402344 58.589844 668.359375 67.871094 L 665.441406 699.460938 C 665.402344 707.945312 658.792969 714.546875 650.347656 714.546875 " fill-opacity="1" fill-rule="nonzero"/><path fill="#ffffff" d="M 630.957031 717.320312 L 140.007812 717.320312 C 130.765625 717.320312 122.980469 709.433594 123.023438 700.109375 L 125.941406 65.902344 C 125.980469 57.382812 132.585938 50.753906 141.035156 50.753906 L 631.984375 50.753906 C 641.226562 50.753906 649.011719 58.640625 648.96875 67.960938 L 646.050781 702.167969 C 646.011719 710.6875 639.40625 717.320312 630.957031 717.320312 " fill-opacity="1" fill-rule="nonzero"/><path fill="#000000" d="M 647.480469 537.195312 C 647.472656 537.195312 647.460938 537.195312 647.457031 537.195312 C 646.699219 537.183594 646.097656 536.5625 646.109375 535.804688 L 649.78125 290.710938 C 649.792969 289.964844 650.40625 289.363281 651.148438 289.363281 C 651.160156 289.363281 651.164062 289.363281 651.167969 289.363281 C 651.929688 289.375 652.535156 289.996094 652.519531 290.753906 L 648.847656 535.847656 C 648.835938 536.59375 648.222656 537.195312 647.480469 537.195312 " fill-opacity="1" fill-rule="nonzero"/><path fill="#000000" d="M 328.269531 719.222656 L 250.042969 719.222656 C 249.285156 719.222656 248.671875 718.609375 248.671875 717.855469 C 248.671875 717.101562 249.285156 716.480469 250.042969 716.480469 L 328.269531 716.480469 C 329.027344 716.480469 329.640625 717.101562 329.640625 717.855469 C 329.640625 718.609375 329.027344 719.222656 328.269531 719.222656 " fill-opacity="1" fill-rule="nonzero"/><path fill="#000000" d="M 615.527344 213.851562 L 158.746094 213.851562 C 157.988281 213.851562 157.375 213.234375 157.375 212.480469 C 157.375 211.722656 157.988281 211.105469 158.746094 211.105469 L 615.527344 211.105469 C 616.28125 211.105469 616.894531 211.722656 616.894531 212.480469 C 616.894531 213.234375 616.28125 213.851562 615.527344 213.851562 " fill-opacity="1" fill-rule="nonzero"/><path fill="#000000" d="M 168.285156 255.585938 C 163.496094 255.585938 159.40625 259.648438 159.355469 264.449219 L 158.929688 304.222656 C 158.910156 306.265625 159.648438 308.148438 161.015625 309.527344 C 162.375 310.902344 164.238281 311.660156 166.261719 311.660156 L 205.769531 311.660156 C 210.5625 311.660156 214.652344 307.597656 214.703125 302.789062 L 215.128906 263.023438 C 215.148438 260.980469 214.410156 259.097656 213.042969 257.714844 C 211.683594 256.34375 209.820312 255.585938 207.792969 255.585938 Z M 205.769531 314.402344 L 166.261719 314.402344 C 163.5 314.402344 160.941406 313.351562 159.066406 311.457031 C 157.179688 309.550781 156.160156 306.972656 156.191406 304.195312 L 156.613281 264.421875 C 156.679688 258.144531 162.027344 252.84375 168.285156 252.84375 L 207.792969 252.84375 C 210.558594 252.84375 213.113281 253.890625 214.992188 255.789062 C 216.875 257.695312 217.898438 260.273438 217.871094 263.050781 L 217.445312 302.820312 C 217.378906 309.097656 212.03125 314.402344 205.769531 314.402344 " fill-opacity="1" fill-rule="nonzero"/><path fill="#000000" d="M 190.339844 303.511719 C 188.214844 303.511719 186.191406 302.507812 184.925781 300.785156 L 184.71875 300.503906 L 170.195312 273.5625 C 168.875 271.117188 169.789062 268.070312 172.234375 266.753906 C 174.675781 265.433594 177.722656 266.351562 179.042969 268.792969 L 190.21875 289.53125 L 194.964844 279.339844 C 196.132812 276.820312 199.121094 275.730469 201.640625 276.902344 C 204.15625 278.070312 205.25 281.058594 204.078125 283.578125 L 196.777344 299.261719 C 195.78125 301.554688 193.644531 303.15625 191.171875 303.460938 C 190.894531 303.496094 190.617188 303.511719 190.339844 303.511719 " fill-opacity="1" fill-rule="nonzero"/><path fill="#ffffff" d="M 207.621094 478.578125 L 168.113281 478.578125 C 163.15625 478.578125 159.359375 474.730469 159.410156 469.757812 L 159.835938 429.984375 C 159.894531 424.46875 164.632812 419.765625 170.136719 419.765625 L 209.644531 419.765625 C 214.605469 419.765625 218.402344 423.613281 218.351562 428.585938 L 217.925781 468.355469 C 217.867188 473.875 213.125 478.578125 207.621094 478.578125 " fill-opacity="1" fill-rule="nonzero"/><path fill="#000000" d="M 167.058594 337.71875 C 162.269531 337.71875 158.175781 341.777344 158.128906 346.585938 L 157.703125 386.359375 C 157.683594 388.398438 158.421875 390.28125 159.785156 391.660156 C 161.144531 393.035156 163.011719 393.789062 165.035156 393.789062 L 204.542969 393.789062 C 209.335938 393.789062 213.425781 389.730469 213.476562 384.925781 L 213.902344 345.15625 C 213.921875 343.117188 213.183594 341.230469 211.816406 339.847656 C 210.457031 338.480469 208.59375 337.71875 206.570312 337.71875 Z M 204.542969 396.53125 L 165.035156 396.53125 C 162.273438 396.53125 159.71875 395.488281 157.839844 393.589844 C 155.953125 391.6875 154.933594 389.105469 154.960938 386.328125 L 155.386719 346.554688 C 155.453125 340.277344 160.796875 334.980469 167.058594 334.980469 L 206.570312 334.980469 C 209.332031 334.980469 211.886719 336.023438 213.765625 337.921875 C 215.652344 339.828125 216.671875 342.40625 216.640625 345.183594 L 216.21875 384.953125 C 216.152344 391.230469 210.804688 396.53125 204.542969 396.53125 " fill-opacity="1" fill-rule="nonzero"/><path fill="#000000" d="M 189.117188 385.644531 C 186.988281 385.644531 184.964844 384.644531 183.699219 382.921875 L 183.492188 382.640625 L 168.96875 355.691406 C 167.648438 353.25 168.5625 350.203125 171.007812 348.886719 C 173.449219 347.570312 176.5 348.480469 177.816406 350.921875 L 188.996094 371.664062 L 193.738281 361.472656 C 194.90625 358.953125 197.894531 357.859375 200.414062 359.035156 C 202.929688 360.203125 204.023438 363.195312 202.851562 365.710938 L 195.550781 381.398438 C 194.554688 383.6875 192.417969 385.289062 189.945312 385.589844 C 189.667969 385.628906 189.390625 385.644531 189.117188 385.644531 " fill-opacity="1" fill-rule="nonzero"/><path fill="#ffffff" d="M 617.972656 128.308594 C 617.914062 132.78125 614.410156 136.253906 609.945312 136.253906 L 381.53125 136.253906 C 376.59375 136.253906 372.441406 132.035156 372.503906 127.085938 C 372.5625 122.605469 376.070312 119.140625 380.53125 119.140625 L 608.945312 119.140625 C 613.878906 119.140625 618.03125 123.351562 617.972656 128.308594 " fill-opacity="1" fill-rule="nonzero"/><path fill="#ffffff" d="M 617.730469 159.1875 C 617.667969 163.664062 614.171875 167.132812 609.710938 167.132812 L 381.289062 167.132812 C 376.351562 167.132812 372.203125 162.917969 372.269531 157.960938 C 372.324219 153.488281 375.832031 150.019531 380.292969 150.019531 L 608.703125 150.019531 C 613.648438 150.019531 617.796875 154.234375 617.730469 159.1875 " fill-opacity="1" fill-rule="nonzero"/><path fill="#ffffff" d="M 618.214844 97.421875 C 618.15625 101.894531 614.65625 105.363281 610.191406 105.363281 L 381.777344 105.363281 C 376.835938 105.363281 372.6875 101.152344 372.75 96.195312 C 372.808594 91.722656 376.3125 88.253906 380.773438 88.253906 L 609.191406 88.253906 C 614.128906 88.253906 618.277344 92.46875 618.214844 97.421875 " fill-opacity="1" fill-rule="nonzero"/><path fill="#ffffff" d="M 166.414062 602.324219 C 166.328125 606.796875 171.589844 610.269531 178.464844 610.269531 L 600.609375 610.269531 C 608.222656 610.269531 614.785156 606.054688 614.882812 601.097656 C 614.96875 596.621094 609.703125 593.15625 602.828125 593.15625 L 180.683594 593.15625 C 173.070312 593.15625 166.511719 597.371094 166.414062 602.324219 " fill-opacity="1" fill-rule="nonzero"/><path fill="#ffffff" d="M 165.570312 633.207031 C 165.484375 637.683594 170.746094 641.148438 177.621094 641.148438 L 599.773438 641.148438 C 607.378906 641.148438 613.9375 636.933594 614.035156 631.976562 C 614.121094 627.503906 608.863281 624.035156 601.984375 624.035156 L 179.839844 624.035156 C 172.226562 624.035156 165.667969 628.25 165.570312 633.207031 " fill-opacity="1" fill-rule="nonzero"/><path fill="#ffffff" d="M 164.726562 664.085938 C 164.640625 668.5625 169.898438 672.027344 176.777344 672.027344 L 598.925781 672.027344 C 606.535156 672.027344 613.09375 667.8125 613.195312 662.859375 C 613.277344 658.386719 608.015625 654.921875 601.140625 654.921875 L 178.992188 654.921875 C 171.382812 654.921875 164.824219 659.136719 164.726562 664.085938 " fill-opacity="1" fill-rule="nonzero"/><path fill="#000000" d="M 324.367188 314.402344 L 268.574219 314.402344 C 265.808594 314.402344 263.253906 313.351562 261.375 311.457031 C 259.492188 309.550781 258.46875 306.972656 258.5 304.195312 L 258.921875 264.421875 C 258.988281 258.144531 264.335938 252.84375 270.597656 252.84375 L 435.664062 252.84375 C 436.421875 252.84375 437.035156 253.457031 437.035156 254.214844 C 437.035156 254.972656 436.421875 255.585938 435.664062 255.585938 L 270.597656 255.585938 C 265.804688 255.585938 261.714844 259.648438 261.664062 264.449219 L 261.238281 304.222656 C 261.21875 306.265625 261.960938 308.148438 263.324219 309.527344 C 264.683594 310.902344 266.546875 311.660156 268.574219 311.660156 L 324.367188 311.660156 C 325.121094 311.660156 325.738281 312.273438 325.738281 313.027344 C 325.738281 313.789062 325.121094 314.402344 324.367188 314.402344 " fill-opacity="1" fill-rule="nonzero"/><path fill="#000000" d="M 444.820312 314.402344 L 379.007812 314.402344 C 378.25 314.402344 377.640625 313.789062 377.640625 313.027344 C 377.640625 312.273438 378.25 311.660156 379.007812 311.660156 L 444.820312 311.660156 C 445.578125 311.660156 446.1875 312.273438 446.1875 313.027344 C 446.1875 313.789062 445.578125 314.402344 444.820312 314.402344 " fill-opacity="1" fill-rule="nonzero"/><path fill="#000000" d="M 607.070312 314.398438 L 478.132812 314.304688 C 477.371094 314.304688 476.757812 313.6875 476.757812 312.933594 C 476.757812 312.179688 477.371094 311.5625 478.132812 311.5625 L 607.070312 311.65625 C 611.859375 311.65625 615.957031 307.597656 616.007812 302.789062 L 616.429688 263.019531 C 616.445312 260.980469 615.710938 259.097656 614.34375 257.714844 C 612.988281 256.339844 611.121094 255.582031 609.097656 255.582031 L 535.785156 255.582031 C 535.023438 255.582031 534.414062 254.972656 534.414062 254.214844 C 534.414062 253.457031 535.023438 252.84375 535.785156 252.84375 L 609.097656 252.84375 C 611.855469 252.84375 614.417969 253.886719 616.296875 255.789062 C 618.179688 257.691406 619.199219 260.269531 619.171875 263.050781 L 618.746094 302.820312 C 618.679688 309.097656 613.328125 314.398438 607.070312 314.398438 " fill-opacity="1" fill-rule="nonzero"/><path fill="#ffffff" d="M 285.15625 284.445312 C 285.101562 288.921875 288.511719 292.390625 292.976562 292.390625 L 586.023438 292.390625 C 590.960938 292.390625 595.222656 288.175781 595.28125 283.21875 C 595.335938 278.742188 591.921875 275.277344 587.460938 275.277344 L 294.414062 275.277344 C 289.472656 275.277344 285.21875 279.492188 285.15625 284.445312 " fill-opacity="1" fill-rule="nonzero"/><path fill="#ffffff" d="M 348.371094 398 L 267.976562 398 C 265.214844 398 262.65625 396.957031 260.78125 395.054688 C 258.894531 393.152344 257.875 390.570312 257.902344 387.792969 L 258.328125 348.023438 C 258.394531 341.75 263.742188 336.445312 270.003906 336.445312 L 338.03125 336.445312 C 338.789062 336.445312 339.402344 337.058594 339.402344 337.816406 C 339.402344 338.574219 338.789062 339.1875 338.03125 339.1875 L 270.003906 339.1875 C 265.210938 339.1875 261.121094 343.25 261.070312 348.054688 L 260.644531 387.824219 C 260.625 389.863281 261.363281 391.746094 262.730469 393.128906 C 264.089844 394.5 265.953125 395.257812 267.976562 395.257812 L 348.371094 395.257812 C 349.128906 395.257812 349.746094 395.871094 349.746094 396.628906 C 349.746094 397.386719 349.128906 398 348.371094 398 " fill-opacity="1" fill-rule="nonzero"/><path fill="#000000" d="M 606.472656 398 L 508.792969 398 C 508.039062 398 507.421875 397.386719 507.421875 396.628906 C 507.421875 395.871094 508.039062 395.261719 508.792969 395.261719 L 606.472656 395.261719 C 611.269531 395.261719 615.355469 391.199219 615.40625 386.394531 L 615.828125 346.621094 C 615.855469 344.582031 615.113281 342.695312 613.746094 341.320312 C 612.390625 339.945312 610.519531 339.1875 608.5 339.1875 L 357.632812 340.625 C 357.632812 340.625 357.628906 340.625 357.621094 340.625 C 356.871094 340.625 356.253906 340.015625 356.25 339.261719 C 356.246094 338.503906 356.859375 337.886719 357.613281 337.882812 L 608.488281 336.449219 C 611.261719 336.449219 613.816406 337.492188 615.695312 339.390625 C 617.582031 341.292969 618.605469 343.875 618.578125 346.648438 L 618.144531 386.425781 C 618.082031 392.703125 612.734375 398 606.472656 398 " fill-opacity="1" fill-rule="nonzero"/><path fill="#ffffff" d="M 282.800781 368.097656 C 282.746094 372.566406 286.15625 376.039062 290.621094 376.039062 L 583.667969 376.039062 C 588.605469 376.039062 592.863281 371.824219 592.925781 366.867188 C 592.980469 362.394531 589.566406 358.925781 585.101562 358.925781 L 292.058594 358.925781 C 287.117188 358.925781 282.863281 363.140625 282.800781 368.097656 " fill-opacity="1" fill-rule="nonzero"/><path fill="#ffffff" d="M 399.21875 481.601562 L 267.382812 481.601562 C 264.621094 481.601562 262.0625 480.554688 260.183594 478.660156 C 258.300781 476.753906 257.277344 474.175781 257.308594 471.398438 L 257.730469 431.625 C 257.800781 425.347656 263.144531 420.046875 269.40625 420.046875 L 485.972656 419.601562 C 486.722656 419.609375 487.347656 420.214844 487.347656 420.972656 C 487.347656 421.726562 486.734375 422.34375 485.984375 422.34375 L 269.410156 422.789062 C 264.617188 422.789062 260.523438 426.851562 260.472656 431.652344 L 260.050781 471.425781 C 260.027344 473.46875 260.765625 475.351562 262.132812 476.730469 C 263.492188 478.105469 265.355469 478.863281 267.382812 478.863281 L 399.21875 478.863281 C 399.972656 478.863281 400.585938 479.472656 400.585938 480.234375 C 400.585938 480.988281 399.972656 481.601562 399.21875 481.601562 " fill-opacity="1" fill-rule="nonzero"/><path fill="#000000" d="M 605.878906 481.601562 L 503.515625 481.601562 C 502.757812 481.601562 502.144531 480.988281 502.144531 480.230469 C 502.144531 479.472656 502.757812 478.859375 503.515625 478.859375 L 605.878906 478.859375 C 610.671875 478.859375 614.765625 474.800781 614.816406 469.992188 L 615.238281 430.226562 C 615.257812 428.179688 614.523438 426.300781 613.15625 424.914062 C 611.792969 423.546875 609.933594 422.789062 607.902344 422.789062 L 503.203125 422.789062 C 502.445312 422.789062 501.832031 422.175781 501.832031 421.417969 C 501.832031 420.660156 502.445312 420.046875 503.203125 420.046875 L 607.902344 420.046875 C 610.671875 420.046875 613.222656 421.089844 615.105469 422.992188 C 616.988281 424.898438 618.011719 427.476562 617.984375 430.253906 L 617.558594 470.023438 C 617.488281 476.296875 612.140625 481.601562 605.878906 481.601562 " fill-opacity="1" fill-rule="nonzero"/><path fill="#ffffff" d="M 280.441406 451.746094 C 280.386719 456.222656 283.800781 459.6875 288.261719 459.6875 L 581.308594 459.6875 C 586.246094 459.6875 590.5 455.472656 590.566406 450.519531 C 590.617188 446.042969 587.207031 442.578125 582.742188 442.578125 L 289.699219 442.578125 C 284.761719 442.578125 280.503906 446.789062 280.441406 451.746094 " fill-opacity="1" fill-rule="nonzero"/><path fill="#ffffff" d="M 267.386719 563.324219 C 264.621094 563.324219 262.0625 562.28125 260.183594 560.378906 C 258.300781 558.472656 257.277344 555.894531 257.308594 553.117188 L 257.730469 513.347656 C 257.800781 507.070312 263.144531 501.769531 269.40625 501.769531 L 412.246094 501.769531 C 413 501.769531 413.613281 502.386719 413.613281 503.136719 C 413.613281 503.898438 413 504.511719 412.246094 504.511719 L 269.40625 504.511719 C 264.617188 504.511719 260.523438 508.570312 260.472656 513.378906 L 260.050781 553.148438 C 260.027344 555.1875 260.765625 557.070312 262.132812 558.453125 C 263.492188 559.824219 265.355469 560.582031 267.382812 560.582031 L 461.960938 559.960938 C 461.96875 559.960938 461.96875 559.960938 461.96875 559.960938 C 462.722656 559.960938 463.335938 560.574219 463.34375 561.328125 C 463.34375 562.085938 462.730469 562.703125 461.976562 562.703125 L 267.386719 563.324219 " fill-opacity="1" fill-rule="nonzero"/><path fill="#000000" d="M 605.878906 563.320312 L 534.917969 563.164062 C 534.164062 563.160156 533.546875 562.546875 533.546875 561.789062 C 533.550781 561.03125 534.167969 560.425781 534.917969 560.425781 C 534.921875 560.425781 534.921875 560.425781 534.921875 560.425781 L 605.882812 560.582031 C 610.671875 560.582031 614.765625 556.519531 614.816406 551.71875 L 615.238281 511.945312 C 615.257812 509.902344 614.523438 508.019531 613.15625 506.640625 C 611.792969 505.265625 609.933594 504.507812 607.902344 504.507812 L 433.347656 504.988281 L 433.34375 504.988281 C 432.589844 504.988281 431.976562 504.375 431.976562 503.621094 C 431.976562 502.867188 432.578125 502.25 433.339844 502.25 L 607.902344 501.765625 C 610.671875 501.765625 613.222656 502.816406 615.105469 504.710938 C 616.988281 506.617188 618.011719 509.195312 617.984375 511.972656 L 617.558594 551.746094 C 617.488281 558.023438 612.140625 563.320312 605.878906 563.320312 " fill-opacity="1" fill-rule="nonzero"/><path fill="#ffffff" d="M 280.441406 533.46875 C 280.386719 537.945312 283.800781 541.410156 288.261719 541.410156 L 581.308594 541.410156 C 586.246094 541.410156 590.5 537.195312 590.566406 532.242188 C 590.617188 527.769531 587.207031 524.304688 582.742188 524.304688 L 289.699219 524.304688 C 284.761719 524.304688 280.503906 528.515625 280.441406 533.46875 " fill-opacity="1" fill-rule="nonzero"/><path fill="#000000" d="M 340.375 88.152344 L 319.222656 127.324219 L 339.878906 167.132812 L 322.894531 167.132812 L 309.625 139.476562 L 295.636719 167.132812 L 278.648438 167.132812 L 300.339844 127.324219 L 280.210938 88.152344 L 297.007812 88.152344 L 309.933594 115.386719 L 323.585938 88.152344 L 340.375 88.152344 " fill-opacity="1" fill-rule="nonzero"/><path fill="#000000" d="M 235.558594 137.679688 L 253.28125 137.679688 L 244.757812 108.121094 Z M 251.785156 88.152344 L 277.28125 167.132812 L 261.753906 167.132812 L 257.050781 150.863281 L 231.449219 150.863281 L 226.371094 167.132812 L 210.84375 167.132812 L 238.253906 88.152344 L 251.785156 88.152344 " fill-opacity="1" fill-rule="nonzero"/><path fill="#000000" d="M 215.378906 88.152344 L 215.207031 101.335938 L 193.492188 101.335938 L 192.636719 167.132812 L 178.03125 167.132812 L 178.890625 101.335938 L 157.472656 101.335938 L 157.644531 88.152344 L 215.378906 88.152344 " fill-opacity="1" fill-rule="nonzero"/><path fill="#000000" d="M 124.277344 427.984375 C 124.277344 427.984375 124.277344 427.984375 124.273438 427.984375 C 123.515625 427.984375 122.90625 427.363281 122.910156 426.609375 L 124.570312 65.894531 C 124.609375 56.640625 131.84375 49.382812 141.03125 49.382812 L 631.984375 49.382812 C 636.796875 49.382812 641.371094 51.324219 644.878906 54.84375 C 648.421875 58.40625 650.359375 63.066406 650.339844 67.96875 L 650.3125 74.007812 C 650.308594 74.761719 649.652344 75.398438 648.9375 75.371094 C 648.175781 75.367188 647.566406 74.75 647.570312 73.996094 L 647.597656 67.957031 C 647.613281 63.789062 645.960938 59.820312 642.933594 56.777344 C 639.949219 53.773438 636.0625 52.128906 631.984375 52.128906 L 141.03125 52.128906 C 133.371094 52.128906 127.34375 58.183594 127.308594 65.910156 L 125.652344 426.621094 C 125.648438 427.375 125.035156 427.984375 124.277344 427.984375 " fill-opacity="1" fill-rule="nonzero"/><path fill="#000000" d="M 752.628906 383.628906 C 752.28125 383.628906 751.929688 383.492188 751.660156 383.222656 C 751.125 382.683594 751.125 381.820312 751.667969 381.285156 L 756.695312 376.292969 C 757.234375 375.757812 758.109375 375.761719 758.636719 376.300781 C 759.167969 376.839844 759.164062 377.707031 758.628906 378.238281 L 753.597656 383.230469 C 753.332031 383.496094 752.980469 383.628906 752.628906 383.628906 " fill-opacity="1" fill-rule="nonzero"/><path fill="#000000" d="M 740.910156 395.261719 C 740.558594 395.261719 740.207031 395.128906 739.9375 394.859375 C 739.40625 394.320312 739.40625 393.449219 739.945312 392.921875 L 744.976562 387.929688 C 745.511719 387.394531 746.382812 387.398438 746.914062 387.929688 C 747.449219 388.46875 747.441406 389.339844 746.910156 389.875 L 741.875 394.867188 C 741.609375 395.132812 741.257812 395.261719 740.910156 395.261719 " fill-opacity="1" fill-rule="nonzero"/><path fill="#000000" d="M 745.96875 383.605469 C 745.617188 383.605469 745.261719 383.46875 744.996094 383.199219 L 740.003906 378.171875 C 739.46875 377.628906 739.46875 376.769531 740.011719 376.230469 C 740.550781 375.699219 741.414062 375.703125 741.949219 376.234375 L 746.941406 381.273438 C 747.476562 381.804688 747.46875 382.671875 746.9375 383.207031 C 746.667969 383.472656 746.320312 383.605469 745.96875 383.605469 " fill-opacity="1" fill-rule="nonzero"/><path fill="#000000" d="M 757.597656 395.324219 C 757.25 395.324219 756.898438 395.1875 756.628906 394.917969 L 751.636719 389.890625 C 751.097656 389.351562 751.105469 388.480469 751.644531 387.949219 C 752.183594 387.417969 753.042969 387.421875 753.582031 387.957031 L 758.574219 392.988281 C 759.109375 393.523438 759.101562 394.394531 758.5625 394.925781 C 758.300781 395.191406 757.949219 395.324219 757.597656 395.324219 " fill-opacity="1" fill-rule="nonzero"/><path fill="#000000" d="M 57.800781 604.476562 C 57.449219 604.476562 57.097656 604.335938 56.828125 604.070312 C 56.296875 603.53125 56.300781 602.660156 56.835938 602.132812 L 61.867188 597.136719 C 62.40625 596.605469 63.273438 596.609375 63.804688 597.144531 C 64.339844 597.679688 64.335938 598.550781 63.800781 599.082031 L 58.765625 604.078125 C 58.5 604.34375 58.152344 604.476562 57.800781 604.476562 " fill-opacity="1" fill-rule="nonzero"/><path fill="#000000" d="M 46.082031 616.105469 C 45.730469 616.105469 45.375 615.972656 45.109375 615.699219 C 44.574219 615.164062 44.578125 614.292969 45.117188 613.761719 L 50.148438 608.765625 C 50.6875 608.234375 51.550781 608.238281 52.085938 608.773438 C 52.621094 609.3125 52.613281 610.179688 52.078125 610.710938 L 47.046875 615.707031 C 46.78125 615.972656 46.429688 616.105469 46.082031 616.105469 " fill-opacity="1" fill-rule="nonzero"/><path fill="#000000" d="M 51.136719 604.449219 C 50.785156 604.449219 50.433594 604.3125 50.164062 604.042969 L 45.171875 599.007812 C 44.640625 598.476562 44.640625 597.605469 45.179688 597.070312 C 45.71875 596.539062 46.585938 596.542969 47.117188 597.078125 L 52.109375 602.109375 C 52.644531 602.648438 52.640625 603.519531 52.105469 604.046875 C 51.835938 604.316406 51.484375 604.449219 51.136719 604.449219 " fill-opacity="1" fill-rule="nonzero"/><path fill="#000000" d="M 62.769531 616.171875 C 62.417969 616.171875 62.0625 616.035156 61.796875 615.765625 L 56.804688 610.730469 C 56.269531 610.195312 56.273438 609.328125 56.8125 608.792969 C 57.347656 608.257812 58.21875 608.261719 58.75 608.800781 L 63.742188 613.832031 C 64.277344 614.371094 64.273438 615.238281 63.734375 615.773438 C 63.46875 616.039062 63.117188 616.171875 62.769531 616.171875 " fill-opacity="1" fill-rule="nonzero"/><path fill="#000000" d="M 748.882812 338.652344 C 745.589844 340.136719 744.097656 344.078125 745.546875 347.441406 C 746.257812 349.085938 747.546875 350.339844 749.183594 350.972656 C 750.78125 351.59375 752.53125 351.550781 754.097656 350.847656 C 757.386719 349.371094 758.882812 345.429688 757.425781 342.066406 C 756.71875 340.421875 755.425781 339.167969 753.792969 338.527344 C 752.195312 337.90625 750.449219 337.949219 748.882812 338.652344 Z M 751.488281 354.152344 C 750.375 354.152344 749.265625 353.945312 748.191406 353.523438 C 745.863281 352.625 744.03125 350.847656 743.03125 348.527344 C 740.988281 343.796875 743.113281 338.242188 747.761719 336.15625 C 750 335.148438 752.496094 335.085938 754.789062 335.972656 C 757.113281 336.878906 758.945312 338.652344 759.945312 340.972656 C 761.988281 345.710938 759.871094 351.257812 755.214844 353.351562 C 754.023438 353.882812 752.761719 354.152344 751.488281 354.152344 " fill-opacity="1" fill-rule="nonzero"/><path fill="#000000" d="M 701 474.855469 C 705.347656 474.863281 709.042969 468.410156 709.058594 460.757812 C 709.074219 453.109375 705.410156 446.640625 701.058594 446.632812 C 696.703125 446.625 693.007812 453.078125 693 460.722656 C 692.976562 468.375 696.640625 474.84375 701 474.855469 Z M 701.078125 436.695312 C 710.152344 436.71875 717.234375 447.296875 717.203125 460.78125 C 717.179688 474.257812 710.050781 484.808594 700.980469 484.785156 C 691.90625 484.769531 684.816406 474.191406 684.847656 460.707031 C 684.871094 447.222656 692.003906 436.679688 701.078125 436.695312 " fill-opacity="1" fill-rule="nonzero"/><path fill="#000000" d="M 747.1875 513.921875 C 751.542969 513.929688 755.234375 507.472656 755.25 499.828125 C 755.265625 492.179688 751.605469 485.707031 747.25 485.699219 C 742.894531 485.691406 739.207031 492.144531 739.1875 499.789062 C 739.171875 507.441406 742.835938 513.914062 747.1875 513.921875 Z M 747.269531 475.765625 C 756.34375 475.785156 763.425781 486.359375 763.402344 499.84375 C 763.375 513.328125 756.238281 523.875 747.167969 523.855469 C 738.09375 523.835938 731.011719 513.257812 731.039062 499.773438 C 731.066406 486.296875 738.199219 475.746094 747.269531 475.765625 " fill-opacity="1" fill-rule="nonzero"/><path fill="#000000" d="M 744.382812 439.574219 L 695.980469 517.488281 C 694.296875 520.203125 696.242188 523.710938 699.433594 523.714844 L 699.449219 523.714844 C 700.863281 523.71875 702.175781 522.992188 702.921875 521.792969 L 751.308594 443.875 C 752.996094 441.164062 751.046875 437.660156 747.855469 437.648438 C 746.441406 437.644531 745.125 438.375 744.382812 439.574219 " fill-opacity="1" fill-rule="nonzero"/><path fill="#000000" d="M 600.402344 724.585938 L 600.421875 744.761719 C 600.429688 750.875 593.359375 757.003906 579.15625 761.746094 C 550.742188 771.230469 504.378906 771.628906 474.683594 762.765625 C 474.191406 762.617188 473.710938 762.46875 473.234375 762.316406 C 458.183594 757.582031 450.628906 751.285156 450.613281 744.96875 L 450.605469 724.796875 C 450.613281 731.109375 458.171875 737.40625 473.214844 742.144531 C 473.699219 742.296875 474.175781 742.441406 474.664062 742.585938 C 504.367188 751.453125 550.730469 751.054688 579.140625 741.570312 C 593.339844 736.832031 600.414062 730.699219 600.402344 724.585938 " fill-opacity="1" fill-rule="nonzero"/><path fill="#ffffff" d="M 576.339844 706.796875 C 576.824219 706.941406 577.304688 707.085938 577.785156 707.238281 C 607.414062 716.5625 608.015625 731.933594 579.140625 741.570312 C 550.730469 751.054688 504.367188 751.453125 474.664062 742.585938 C 474.175781 742.441406 473.695312 742.296875 473.21875 742.144531 C 443.597656 732.820312 442.996094 717.449219 471.871094 707.8125 C 500.277344 698.328125 546.636719 697.929688 576.339844 706.796875 " fill-opacity="1" fill-rule="nonzero"/><path fill="#000000" d="M 584.296875 700.753906 L 584.316406 720.929688 C 584.324219 727.042969 577.25 733.175781 563.046875 737.917969 C 534.640625 747.394531 488.273438 747.796875 458.574219 738.929688 C 458.085938 738.785156 457.605469 738.640625 457.128906 738.488281 C 442.082031 733.75 434.523438 727.453125 434.511719 721.140625 L 434.496094 700.964844 C 434.503906 707.28125 442.066406 713.578125 457.113281 718.3125 C 457.589844 718.460938 458.074219 718.613281 458.5625 718.757812 C 488.257812 727.625 534.625 727.222656 563.027344 717.742188 C 577.238281 712.996094 584.304688 706.871094 584.296875 700.753906 " fill-opacity="1" fill-rule="nonzero"/><path fill="#ffffff" d="M 560.226562 682.960938 C 560.722656 683.109375 561.203125 683.253906 561.683594 683.410156 C 591.304688 692.730469 591.90625 708.101562 563.03125 717.742188 C 534.621094 727.222656 488.257812 727.625 458.5625 718.757812 C 458.074219 718.609375 457.589844 718.460938 457.113281 718.3125 C 427.492188 708.988281 426.894531 693.617188 455.761719 683.980469 C 484.171875 674.5 530.53125 674.097656 560.226562 682.960938 " fill-opacity="1" fill-rule="nonzero"/><path fill="#000000" d="M 597.785156 671.675781 L 597.796875 691.847656 C 597.804688 697.964844 590.738281 704.089844 576.535156 708.835938 C 548.121094 718.316406 501.757812 718.71875 472.058594 709.851562 C 471.570312 709.703125 471.085938 709.554688 470.609375 709.40625 C 455.5625 704.671875 448.003906 698.375 447.996094 692.0625 L 447.976562 671.886719 C 447.988281 678.199219 455.546875 684.496094 470.59375 689.230469 C 471.074219 689.382812 471.558594 689.53125 472.046875 689.675781 C 501.738281 698.542969 548.105469 698.140625 576.515625 688.660156 C 590.722656 683.917969 597.792969 677.789062 597.785156 671.675781 " fill-opacity="1" fill-rule="nonzero"/><path fill="#000000" d="M 449.355469 678.886719 L 449.367188 692.054688 C 449.375 697.921875 457.269531 703.769531 471.019531 708.097656 C 471.496094 708.246094 471.972656 708.394531 472.449219 708.535156 C 501.742188 717.28125 548.238281 716.832031 576.101562 707.535156 C 589.023438 703.21875 596.433594 697.503906 596.429688 691.851562 L 596.421875 678.679688 C 592.976562 682.949219 586.347656 686.824219 576.949219 689.960938 C 548.160156 699.570312 501.910156 700.019531 471.652344 690.988281 C 471.15625 690.84375 470.671875 690.691406 470.1875 690.539062 C 460.066406 687.351562 452.96875 683.347656 449.355469 678.886719 Z M 522.605469 717.648438 C 504.410156 717.648438 486.195312 715.5 471.667969 711.160156 C 471.175781 711.019531 470.6875 710.867188 470.207031 710.714844 C 455.007812 705.933594 446.636719 699.308594 446.628906 692.058594 L 446.609375 671.882812 C 446.609375 671.128906 447.222656 670.515625 447.980469 670.511719 C 448.742188 670.511719 449.347656 671.125 449.351562 671.882812 C 449.355469 677.746094 457.253906 683.59375 471.007812 687.925781 C 471.484375 688.074219 471.957031 688.21875 472.4375 688.363281 C 501.734375 697.105469 548.222656 696.660156 576.085938 687.359375 C 589.011719 683.042969 596.421875 677.328125 596.417969 671.675781 C 596.414062 670.921875 597.027344 670.304688 597.785156 670.304688 L 597.789062 670.304688 C 598.539062 670.304688 599.152344 670.917969 599.15625 671.675781 C 599.15625 671.675781 599.15625 671.679688 599.15625 671.683594 L 599.167969 691.847656 C 599.179688 698.859375 591.292969 705.347656 576.964844 710.132812 C 562 715.132812 542.3125 717.648438 522.605469 717.648438 " fill-opacity="1" fill-rule="nonzero"/><path fill="#ffffff" d="M 573.710938 653.878906 C 574.207031 654.03125 574.6875 654.175781 575.167969 654.328125 C 604.785156 663.648438 605.390625 679.019531 576.519531 688.660156 C 548.105469 698.140625 501.742188 698.542969 472.042969 689.675781 C 471.554688 689.53125 471.074219 689.382812 470.59375 689.230469 C 440.980469 679.910156 440.375 664.539062 469.246094 654.898438 C 497.652344 645.417969 544.015625 645.015625 573.710938 653.878906 " fill-opacity="1" fill-rule="nonzero"/><path fill="#000000" d="M 523.226562 648.921875 C 503.699219 648.921875 484.167969 651.367188 469.675781 656.203125 C 456.710938 660.53125 449.296875 666.265625 449.351562 671.933594 C 449.398438 677.78125 457.292969 683.609375 471.003906 687.925781 C 471.480469 688.074219 471.953125 688.21875 472.433594 688.363281 C 501.722656 697.109375 548.214844 696.660156 576.078125 687.363281 C 589.046875 683.03125 596.457031 677.300781 596.40625 671.628906 C 596.355469 665.78125 588.460938 659.953125 574.75 655.632812 C 574.273438 655.484375 573.800781 655.339844 573.316406 655.195312 C 559.261719 651 541.246094 648.921875 523.226562 648.921875 Z M 522.589844 697.476562 C 504.386719 697.476562 486.175781 695.328125 471.648438 690.988281 C 471.148438 690.84375 470.664062 690.691406 470.183594 690.542969 C 455.042969 685.773438 446.667969 679.171875 446.605469 671.953125 C 446.546875 664.917969 454.429688 658.398438 468.8125 653.601562 C 497.597656 643.992188 543.847656 643.535156 574.101562 652.570312 C 574.597656 652.71875 575.082031 652.867188 575.570312 653.023438 C 590.714844 657.785156 599.085938 664.386719 599.148438 671.605469 C 599.207031 678.644531 591.320312 685.160156 576.945312 689.960938 C 561.976562 694.957031 542.289062 697.476562 522.589844 697.476562 " fill-opacity="1" fill-rule="nonzero"/><path fill="#000000" d="M 564.597656 665.449219 L 567.183594 668.566406 L 558.167969 669.828125 C 559.628906 672.003906 559.378906 673.636719 558.617188 674.917969 L 546.28125 675.613281 C 546.71875 674.628906 547.859375 672.835938 545.960938 670.539062 C 545.171875 669.589844 544.027344 669.019531 542.738281 668.722656 C 541.226562 668.371094 539.511719 668.390625 537.957031 668.605469 C 534.578125 669.082031 533.351562 670.5 532.316406 673.660156 C 531.152344 678.050781 526.789062 680.367188 517.578125 681.660156 C 511.535156 682.503906 505.351562 682.390625 500.386719 681.234375 C 497.859375 680.648438 495.648438 679.785156 493.933594 678.644531 L 483.484375 680.113281 L 480.898438 676.988281 L 490.628906 675.628906 C 489.167969 673.453125 489.300781 671.128906 490.550781 669.601562 L 503.320312 668.878906 C 502.074219 670.542969 501.480469 672.726562 503.191406 674.792969 C 503.976562 675.738281 505.246094 676.445312 506.859375 676.820312 C 508.34375 677.164062 510.117188 677.234375 512.074219 676.957031 C 515.96875 676.414062 517.582031 675.054688 518.1875 672.335938 C 519.050781 668.414062 522.246094 665.375 532.179688 663.984375 C 538.140625 663.148438 543.96875 663.296875 548.667969 664.390625 C 551.074219 664.953125 553.183594 665.757812 554.867188 666.808594 L 564.597656 665.449219 " fill-opacity="1" fill-rule="nonzero"/><path fill="#000000" d="M 769.15625 722.5 L 769.171875 743.671875 C 769.183594 750.085938 761.765625 756.515625 746.859375 761.492188 C 717.039062 771.445312 668.386719 771.867188 637.222656 762.5625 C 636.707031 762.40625 636.199219 762.253906 635.699219 762.09375 C 619.90625 757.125 611.972656 750.511719 611.964844 743.890625 L 611.949219 722.714844 C 611.957031 729.34375 619.890625 735.953125 635.683594 740.921875 C 636.183594 741.082031 636.691406 741.234375 637.203125 741.386719 C 668.371094 750.695312 717.023438 750.273438 746.835938 740.320312 C 761.75 735.34375 769.167969 728.914062 769.15625 722.5 " fill-opacity="1" fill-rule="nonzero"/><path fill="#ffffff" d="M 743.894531 703.824219 C 744.40625 703.980469 744.914062 704.132812 745.417969 704.292969 C 776.507812 714.078125 777.140625 730.207031 746.835938 740.320312 C 717.023438 750.273438 668.367188 750.695312 637.203125 741.386719 C 636.691406 741.234375 636.183594 741.082031 635.683594 740.921875 C 604.601562 731.136719 603.96875 715.007812 634.265625 704.894531 C 664.078125 694.941406 712.730469 694.519531 743.894531 703.824219 " fill-opacity="1" fill-rule="nonzero"/><path fill="#000000" d="M 773.503906 693.132812 L 773.519531 714.304688 C 773.53125 720.722656 766.113281 727.15625 751.199219 732.132812 C 721.394531 742.082031 672.734375 742.503906 641.566406 733.195312 C 641.050781 733.042969 640.550781 732.886719 640.042969 732.730469 C 624.257812 727.757812 616.324219 721.152344 616.3125 714.523438 L 616.296875 693.351562 C 616.308594 699.980469 624.238281 706.589844 640.027344 711.558594 C 640.53125 711.714844 641.035156 711.871094 641.550781 712.023438 C 672.71875 721.332031 721.375 720.910156 751.183594 710.960938 C 766.09375 705.984375 773.511719 699.550781 773.503906 693.132812 " fill-opacity="1" fill-rule="nonzero"/><path fill="#ffffff" d="M 748.238281 674.460938 C 748.757812 674.613281 749.261719 674.769531 749.765625 674.929688 C 780.851562 684.710938 781.484375 700.84375 751.1875 710.960938 C 721.371094 720.910156 672.71875 721.332031 641.550781 712.023438 C 641.035156 711.871094 640.53125 711.71875 640.03125 711.558594 C 608.945312 701.777344 608.316406 685.644531 638.613281 675.53125 C 668.429688 665.582031 717.070312 665.160156 748.238281 674.460938 " fill-opacity="1" fill-rule="nonzero"/><path fill="#000000" d="M 761.042969 663.542969 L 761.0625 684.714844 C 761.074219 691.132812 753.65625 697.5625 738.746094 702.539062 C 708.933594 712.492188 660.273438 712.910156 629.109375 703.605469 C 628.597656 703.453125 628.089844 703.296875 627.589844 703.136719 C 611.800781 698.171875 603.867188 691.558594 603.855469 684.933594 L 603.839844 663.761719 C 603.851562 670.386719 611.78125 677 627.574219 681.964844 C 628.074219 682.125 628.582031 682.28125 629.09375 682.433594 C 660.257812 691.742188 708.917969 691.320312 738.730469 681.367188 C 753.640625 676.390625 761.054688 669.960938 761.042969 663.542969 " fill-opacity="1" fill-rule="nonzero"/><path fill="#ffffff" d="M 735.785156 644.871094 C 736.300781 645.027344 736.808594 645.179688 737.304688 645.335938 C 768.398438 655.121094 769.027344 671.253906 738.726562 681.367188 C 708.917969 691.320312 660.257812 691.742188 629.09375 682.433594 C 628.582031 682.28125 628.074219 682.125 627.570312 681.96875 C 596.484375 672.183594 595.851562 656.054688 626.15625 645.9375 C 655.96875 635.988281 704.617188 635.566406 735.785156 644.871094 " fill-opacity="1" fill-rule="nonzero"/><path fill="#000000" d="M 776.484375 639.167969 L 776.503906 660.339844 C 776.511719 666.757812 769.09375 673.1875 754.183594 678.164062 C 724.371094 688.113281 675.714844 688.535156 644.546875 679.230469 C 644.039062 679.078125 643.53125 678.921875 643.03125 678.761719 C 627.238281 673.792969 619.308594 667.183594 619.296875 660.558594 L 619.273438 639.386719 C 619.292969 646.011719 627.222656 652.621094 643.015625 657.589844 C 643.515625 657.75 644.019531 657.90625 644.53125 658.058594 C 675.699219 667.367188 724.355469 666.945312 754.167969 656.992188 C 769.074219 652.015625 776.496094 645.585938 776.484375 639.167969 " fill-opacity="1" fill-rule="nonzero"/><path fill="#ffffff" d="M 751.230469 620.496094 C 751.746094 620.648438 752.25 620.800781 752.753906 620.960938 C 783.835938 630.746094 784.476562 646.875 754.167969 656.992188 C 724.355469 666.941406 675.699219 667.363281 644.535156 658.058594 C 644.019531 657.90625 643.519531 657.746094 643.015625 657.589844 C 611.933594 647.808594 611.296875 631.679688 641.601562 621.558594 C 671.410156 611.613281 720.058594 611.191406 751.230469 620.496094 " fill-opacity="1" fill-rule="nonzero"/><path fill="#000000" d="M 758.21875 615.019531 L 758.234375 636.191406 C 758.246094 642.609375 750.824219 649.042969 735.921875 654.019531 C 706.101562 663.96875 657.445312 664.390625 626.28125 655.082031 C 625.769531 654.929688 625.261719 654.777344 624.761719 654.621094 C 608.96875 649.648438 601.039062 643.039062 601.027344 636.410156 L 601.011719 615.238281 C 601.023438 621.867188 608.953125 628.472656 624.746094 633.445312 C 625.246094 633.605469 625.753906 633.757812 626.265625 633.910156 C 657.429688 643.214844 706.085938 642.792969 735.898438 632.847656 C 750.808594 627.871094 758.230469 621.4375 758.21875 615.019531 " fill-opacity="1" fill-rule="nonzero"/><path fill="#ffffff" d="M 732.953125 596.347656 C 733.476562 596.503906 733.976562 596.660156 734.480469 596.816406 C 765.566406 606.601562 766.199219 622.726562 735.898438 632.847656 C 706.085938 642.792969 657.429688 643.21875 626.265625 633.910156 C 625.753906 633.757812 625.25 633.605469 624.742188 633.445312 C 593.664062 623.664062 593.03125 607.53125 623.332031 597.417969 C 653.144531 587.464844 701.789062 587.046875 732.953125 596.347656 " fill-opacity="1" fill-rule="nonzero"/><path fill="#000000" d="M 771.523438 587.804688 L 771.542969 608.976562 C 771.550781 615.390625 764.136719 621.824219 749.222656 626.800781 C 719.410156 636.753906 670.753906 637.171875 639.585938 627.867188 C 639.074219 627.714844 638.570312 627.558594 638.070312 627.402344 C 622.28125 622.429688 614.34375 615.820312 614.332031 609.199219 L 614.316406 588.023438 C 614.328125 594.648438 622.265625 601.261719 638.050781 606.226562 C 638.554688 606.386719 639.058594 606.542969 639.570312 606.695312 C 670.738281 616 719.394531 615.582031 749.207031 605.628906 C 764.117188 600.652344 771.535156 594.21875 771.523438 587.804688 " fill-opacity="1" fill-rule="nonzero"/><path fill="#000000" d="M 615.699219 595.183594 L 615.703125 609.191406 C 615.714844 615.382812 624.011719 621.542969 638.476562 626.09375 C 638.976562 626.25 639.472656 626.402344 639.984375 626.550781 C 670.726562 635.734375 719.539062 635.261719 748.789062 625.5 C 762.382812 620.960938 770.179688 614.941406 770.175781 608.976562 L 770.164062 594.964844 C 766.59375 599.492188 759.601562 603.605469 749.644531 606.929688 C 719.441406 617.011719 670.914062 617.484375 639.179688 608.007812 C 638.664062 607.851562 638.148438 607.699219 637.640625 607.535156 C 626.914062 604.164062 619.4375 599.910156 615.699219 595.183594 Z M 692.636719 635.988281 C 673.542969 635.988281 654.4375 633.730469 639.195312 629.179688 C 638.679688 629.023438 638.164062 628.871094 637.65625 628.707031 C 621.746094 623.699219 612.976562 616.773438 612.964844 609.199219 L 612.949219 588.023438 C 612.949219 587.265625 613.5625 586.65625 614.320312 586.65625 C 615.074219 586.65625 615.6875 587.265625 615.6875 588.019531 C 615.699219 594.210938 624.003906 600.371094 638.460938 604.921875 C 638.960938 605.078125 639.460938 605.230469 639.964844 605.378906 C 670.710938 614.5625 719.527344 614.089844 748.773438 604.328125 C 762.367188 599.789062 770.164062 593.769531 770.15625 587.804688 C 770.15625 587.046875 770.769531 586.433594 771.519531 586.433594 C 771.527344 586.433594 771.527344 586.433594 771.527344 586.433594 C 772.28125 586.433594 772.894531 587.046875 772.894531 587.800781 C 772.894531 587.804688 772.894531 587.808594 772.894531 587.8125 L 772.910156 608.972656 C 772.921875 616.296875 764.664062 623.089844 749.660156 628.101562 C 733.953125 633.34375 713.304688 635.988281 692.636719 635.988281 " fill-opacity="1" fill-rule="nonzero"/><path fill="#ffffff" d="M 746.265625 569.128906 C 746.78125 569.285156 747.285156 569.441406 747.785156 569.597656 C 778.875 579.382812 779.507812 595.515625 749.207031 605.628906 C 719.394531 615.582031 670.734375 616 639.570312 606.695312 C 639.058594 606.542969 638.550781 606.386719 638.054688 606.230469 C 606.964844 596.445312 606.335938 580.316406 636.636719 570.199219 C 666.449219 560.25 715.097656 559.828125 746.265625 569.128906 " fill-opacity="1" fill-rule="nonzero"/><path fill="#000000" d="M 693.285156 563.859375 C 672.777344 563.859375 652.28125 566.425781 637.066406 571.5 C 623.429688 576.054688 615.636719 582.09375 615.6875 588.070312 C 615.742188 594.246094 624.039062 600.382812 638.460938 604.921875 C 638.953125 605.078125 639.457031 605.230469 639.960938 605.378906 C 670.707031 614.5625 719.527344 614.09375 748.769531 604.328125 C 762.410156 599.777344 770.203125 593.734375 770.152344 587.757812 C 770.097656 581.589844 761.796875 575.445312 747.371094 570.90625 C 746.878906 570.75 746.375 570.597656 745.871094 570.449219 C 731.117188 566.042969 712.195312 563.859375 693.285156 563.859375 Z M 692.613281 614.816406 C 673.523438 614.816406 654.414062 612.558594 639.171875 608.011719 C 638.660156 607.855469 638.144531 607.699219 637.636719 607.539062 C 621.78125 602.546875 613.011719 595.644531 612.945312 588.097656 C 612.882812 580.746094 621.140625 573.925781 636.199219 568.898438 C 666.398438 558.820312 714.917969 558.347656 746.65625 567.820312 C 747.175781 567.976562 747.683594 568.132812 748.199219 568.289062 C 764.058594 573.28125 772.828125 580.191406 772.894531 587.730469 C 772.957031 595.085938 764.695312 601.902344 749.640625 606.929688 C 733.9375 612.171875 713.285156 614.816406 692.613281 614.816406 " fill-opacity="1" fill-rule="nonzero"/><path fill="#000000" d="M 712.210938 572.921875 L 708.4375 576.222656 C 711.851562 576.664062 714.421875 577.175781 716.414062 577.710938 C 717.789062 578.082031 718.894531 578.460938 719.804688 578.835938 L 712.402344 582.796875 C 711.457031 582.453125 710.164062 581.9375 708.25 581.421875 C 706.492188 580.953125 704.207031 580.480469 701.167969 580.152344 C 695.4375 579.535156 692.390625 580.382812 691.183594 581.433594 C 689.773438 582.671875 691.964844 583.792969 698.085938 585.796875 C 706.769531 588.503906 708.644531 591.023438 704.78125 594.398438 C 700.96875 597.734375 692.164062 599.984375 681.164062 599.636719 L 676.792969 603.464844 L 668.15625 602.53125 L 672.226562 598.972656 C 668.972656 598.550781 665.976562 597.953125 663.550781 597.304688 C 661.671875 596.796875 660.136719 596.261719 659.082031 595.742188 L 666.746094 591.640625 C 668.109375 592.273438 669.863281 592.929688 671.996094 593.5 C 674.128906 594.070312 676.628906 594.5625 679.496094 594.867188 C 684.519531 595.414062 688.898438 594.957031 690.613281 593.457031 C 692.242188 592.035156 690.441406 590.828125 684.996094 589.191406 C 677.109375 586.820312 672.820312 584.253906 676.976562 580.621094 C 680.746094 577.320312 689.167969 575.320312 699.5 575.550781 L 703.574219 571.988281 L 712.210938 572.921875 " fill-opacity="1" fill-rule="nonzero"/><path fill="#ffffff" d="M 63.550781 483.832031 C 66.472656 549.492188 102.070312 579.15625 137.667969 601.191406 L 135.972656 610.515625 C 99.71875 630.597656 63.082031 675.773438 63.929688 735.386719 L 239.695312 733.160156 C 238.523438 687.640625 197.28125 630.238281 167.332031 611.363281 L 166.484375 601.191406 C 213.945312 573.222656 234.289062 535.082031 239.40625 483.992188 L 63.550781 483.832031 " fill-opacity="1" fill-rule="nonzero"/><path fill="#000000" d="M 64.988281 485.203125 C 68.277344 548.179688 102.1875 577.613281 138.386719 600.023438 C 138.867188 600.320312 139.117188 600.878906 139.015625 601.433594 L 137.320312 610.757812 C 137.246094 611.164062 136.996094 611.511719 136.636719 611.714844 C 103.429688 630.105469 65 673.105469 65.289062 734 L 238.273438 731.804688 C 237.390625 711.589844 228.503906 687.226562 213.148438 663 C 199.375 641.28125 181.539062 621.9375 166.601562 612.523438 C 166.234375 612.292969 166 611.90625 165.964844 611.472656 L 165.117188 601.304688 C 165.074219 600.78125 165.335938 600.277344 165.789062 600.011719 C 209.921875 574 232.207031 538.597656 237.886719 485.363281 Z M 63.929688 736.757812 C 63.179688 736.757812 62.570312 736.15625 62.558594 735.40625 C 61.671875 672.925781 100.753906 628.707031 134.738281 609.632812 L 136.152344 601.863281 C 99.335938 578.949219 65.0625 548.664062 62.179688 483.890625 C 62.164062 483.519531 62.300781 483.15625 62.558594 482.886719 C 62.816406 482.613281 63.175781 482.460938 63.550781 482.460938 L 239.40625 482.621094 C 239.796875 482.621094 240.164062 482.785156 240.421875 483.074219 C 240.683594 483.363281 240.808594 483.742188 240.769531 484.128906 C 235.285156 538.863281 212.808594 575.230469 167.921875 601.933594 L 168.640625 610.570312 C 183.996094 620.445312 201.453125 639.4375 215.460938 661.535156 C 231.433594 686.730469 240.523438 712.152344 241.0625 733.125 C 241.074219 733.488281 240.9375 733.847656 240.683594 734.109375 C 240.425781 734.371094 240.078125 734.523438 239.710938 734.527344 L 63.945312 736.757812 C 63.941406 736.757812 63.933594 736.757812 63.929688 736.757812 " fill-opacity="1" fill-rule="nonzero"/><path fill="#000000" d="M 245.839844 483.992188 L 57.460938 483.992188 C 54.949219 483.992188 52.914062 481.953125 52.914062 479.441406 L 52.914062 459.304688 C 52.914062 456.792969 54.949219 454.753906 57.460938 454.753906 L 245.839844 454.753906 C 248.355469 454.753906 250.390625 456.792969 250.390625 459.304688 L 250.390625 479.441406 C 250.390625 481.953125 248.355469 483.992188 245.839844 483.992188 " fill-opacity="1" fill-rule="nonzero"/><path fill="#000000" d="M 64.589844 456.125 C 58.90625 456.125 54.28125 460.75 54.28125 466.429688 L 54.28125 472.316406 C 54.28125 477.996094 58.90625 482.621094 64.589844 482.621094 L 238.714844 482.621094 C 244.394531 482.621094 249.019531 477.996094 249.019531 472.316406 L 249.019531 466.429688 C 249.019531 460.75 244.394531 456.125 238.714844 456.125 Z M 238.714844 485.363281 L 64.589844 485.363281 C 57.394531 485.363281 51.542969 479.511719 51.542969 472.316406 L 51.542969 466.429688 C 51.542969 459.238281 57.394531 453.382812 64.589844 453.382812 L 238.714844 453.382812 C 245.910156 453.382812 251.761719 459.238281 251.761719 466.429688 L 251.761719 472.316406 C 251.761719 479.511719 245.910156 485.363281 238.714844 485.363281 " fill-opacity="1" fill-rule="nonzero"/><path fill="#ffffff" d="M 86.8125 541.867188 L 211.402344 541.867188 C 204.625 564.746094 191.0625 580.851562 157.160156 598.648438 L 156.3125 702.894531 L 230.046875 703.742188 C 232.179688 714.285156 235.953125 725.609375 235.132812 735.953125 L 67.320312 734.253906 C 67.675781 723.976562 68.582031 713.699219 72.40625 702.894531 L 147.835938 702.894531 L 146.140625 596.109375 C 117.761719 589.683594 95.015625 559.714844 86.8125 541.867188 " fill-opacity="1" fill-rule="nonzero"/><path fill="#000000" d="M 243.296875 762.398438 L 59.15625 762.398438 C 56.644531 762.398438 54.605469 760.363281 54.605469 757.84375 L 54.605469 737.707031 C 54.605469 735.195312 56.644531 733.160156 59.15625 733.160156 L 243.296875 733.160156 C 245.808594 733.160156 247.847656 735.195312 247.847656 737.707031 L 247.847656 757.84375 C 247.847656 760.363281 245.808594 762.398438 243.296875 762.398438 " fill-opacity="1" fill-rule="nonzero"/><path fill="#000000" d="M 64.792969 734.527344 C 59.933594 734.527344 55.976562 738.484375 55.976562 743.34375 L 55.976562 752.210938 C 55.976562 757.070312 59.933594 761.03125 64.792969 761.03125 L 237.664062 761.03125 C 242.523438 761.03125 246.476562 757.070312 246.476562 752.210938 L 246.476562 743.34375 C 246.476562 738.484375 242.523438 734.527344 237.664062 734.527344 Z M 237.664062 763.769531 L 64.792969 763.769531 C 58.421875 763.769531 53.234375 758.585938 53.234375 752.210938 L 53.234375 743.34375 C 53.234375 736.972656 58.421875 731.789062 64.792969 731.789062 L 237.664062 731.789062 C 244.035156 731.789062 249.21875 736.972656 249.21875 743.34375 L 249.21875 752.210938 C 249.21875 758.585938 244.035156 763.769531 237.664062 763.769531 " fill-opacity="1" fill-rule="nonzero"/><path fill="#ffffff" d="M 699.757812 256.839844 L 548.324219 256.839844 C 546.449219 256.839844 544.941406 255.324219 544.941406 253.460938 L 544.941406 107.558594 C 544.941406 105.695312 546.449219 104.183594 548.324219 104.183594 L 699.757812 104.183594 C 701.621094 104.183594 703.132812 105.695312 703.132812 107.558594 L 703.132812 253.460938 C 703.132812 255.324219 701.621094 256.839844 699.757812 256.839844 " fill-opacity="1" fill-rule="nonzero"/><path fill="#ffffff" d="M 703.132812 130.621094 L 544.941406 130.621094 L 544.941406 107.558594 C 544.941406 105.695312 546.449219 104.183594 548.324219 104.183594 L 699.757812 104.183594 C 701.621094 104.183594 703.132812 105.695312 703.132812 107.558594 L 703.132812 130.621094 " fill-opacity="1" fill-rule="nonzero"/><path fill="#000000" d="M 552.394531 105.554688 C 549.039062 105.554688 546.308594 108.285156 546.308594 111.644531 L 546.308594 249.382812 C 546.308594 252.738281 549.039062 255.46875 552.394531 255.46875 L 695.675781 255.46875 C 699.03125 255.46875 701.761719 252.738281 701.761719 249.382812 L 701.761719 111.644531 C 701.761719 108.285156 699.03125 105.554688 695.675781 105.554688 Z M 695.675781 258.207031 L 552.394531 258.207031 C 547.527344 258.207031 543.570312 254.25 543.570312 249.382812 L 543.570312 111.644531 C 543.570312 106.773438 547.527344 102.8125 552.394531 102.8125 L 695.675781 102.8125 C 700.542969 102.8125 704.5 106.773438 704.5 111.644531 L 704.5 249.382812 C 704.5 254.25 700.542969 258.207031 695.675781 258.207031 " fill-opacity="1" fill-rule="nonzero"/><path fill="#ffffff" d="M 584.96875 206.15625 L 562.992188 206.15625 C 561.972656 206.15625 561.144531 205.332031 561.144531 204.308594 L 561.144531 182.183594 C 561.144531 181.164062 561.972656 180.332031 562.992188 180.332031 L 584.96875 180.332031 C 585.988281 180.332031 586.816406 181.164062 586.816406 182.183594 L 586.816406 204.308594 C 586.816406 205.332031 585.988281 206.15625 584.96875 206.15625 " fill-opacity="1" fill-rule="nonzero"/><path fill="#ffffff" d="M 618.332031 206.164062 L 596.359375 206.164062 C 595.339844 206.164062 594.507812 205.335938 594.507812 204.3125 L 594.507812 182.1875 C 594.507812 181.167969 595.339844 180.339844 596.359375 180.339844 L 618.332031 180.339844 C 619.359375 180.339844 620.183594 181.167969 620.183594 182.1875 L 620.183594 204.3125 C 620.183594 205.335938 619.359375 206.164062 618.332031 206.164062 " fill-opacity="1" fill-rule="nonzero"/><path fill="#000000" d="M 651.710938 206.160156 L 629.738281 206.160156 C 628.714844 206.160156 627.890625 205.332031 627.890625 204.308594 L 627.890625 182.1875 C 627.890625 181.164062 628.714844 180.339844 629.738281 180.339844 L 651.710938 180.339844 C 652.730469 180.339844 653.558594 181.164062 653.558594 182.1875 L 653.558594 204.308594 C 653.558594 205.332031 652.730469 206.160156 651.710938 206.160156 " fill-opacity="1" fill-rule="nonzero"/><path fill="#ffffff" d="M 685.078125 206.164062 L 663.109375 206.164062 C 662.085938 206.164062 661.257812 205.332031 661.257812 204.308594 L 661.257812 182.1875 C 661.257812 181.167969 662.085938 180.335938 663.109375 180.335938 L 685.078125 180.335938 C 686.105469 180.335938 686.929688 181.167969 686.929688 182.1875 L 686.929688 204.308594 C 686.929688 205.332031 686.105469 206.164062 685.078125 206.164062 " fill-opacity="1" fill-rule="nonzero"/><path fill="#ffffff" d="M 584.964844 239.613281 L 562.992188 239.613281 C 561.96875 239.613281 561.140625 238.78125 561.140625 237.761719 L 561.140625 215.640625 C 561.140625 214.617188 561.96875 213.785156 562.992188 213.785156 L 584.964844 213.785156 C 585.984375 213.785156 586.8125 214.617188 586.8125 215.640625 L 586.8125 237.761719 C 586.8125 238.78125 585.984375 239.613281 584.964844 239.613281 " fill-opacity="1" fill-rule="nonzero"/><path fill="#ffffff" d="M 618.332031 239.617188 L 596.359375 239.617188 C 595.339844 239.617188 594.507812 238.785156 594.507812 237.765625 L 594.507812 215.640625 C 594.507812 214.617188 595.339844 213.789062 596.359375 213.789062 L 618.332031 213.789062 C 619.359375 213.789062 620.183594 214.617188 620.183594 215.640625 L 620.183594 237.765625 C 620.183594 238.785156 619.359375 239.617188 618.332031 239.617188 " fill-opacity="1" fill-rule="nonzero"/><path fill="#ffffff" d="M 651.710938 239.613281 L 629.738281 239.613281 C 628.714844 239.613281 627.890625 238.78125 627.890625 237.761719 L 627.890625 215.636719 C 627.890625 214.613281 628.714844 213.785156 629.738281 213.785156 L 651.710938 213.785156 C 652.730469 213.785156 653.558594 214.613281 653.558594 215.636719 L 653.558594 237.761719 C 653.558594 238.78125 652.730469 239.613281 651.710938 239.613281 " fill-opacity="1" fill-rule="nonzero"/><path fill="#ffffff" d="M 584.960938 172.601562 L 562.988281 172.601562 C 561.964844 172.601562 561.140625 171.777344 561.140625 170.753906 L 561.140625 148.632812 C 561.140625 147.609375 561.964844 146.78125 562.988281 146.78125 L 584.960938 146.78125 C 585.984375 146.78125 586.8125 147.609375 586.8125 148.632812 L 586.8125 170.753906 C 586.8125 171.777344 585.984375 172.601562 584.960938 172.601562 " fill-opacity="1" fill-rule="nonzero"/><path fill="#ffffff" d="M 618.332031 172.601562 L 596.359375 172.601562 C 595.339844 172.601562 594.511719 171.777344 594.511719 170.753906 L 594.511719 148.632812 C 594.511719 147.609375 595.339844 146.78125 596.359375 146.78125 L 618.332031 146.78125 C 619.355469 146.78125 620.183594 147.609375 620.183594 148.632812 L 620.183594 170.753906 C 620.183594 171.777344 619.355469 172.601562 618.332031 172.601562 " fill-opacity="1" fill-rule="nonzero"/><path fill="#ffffff" d="M 651.710938 172.601562 L 629.738281 172.601562 C 628.714844 172.601562 627.890625 171.773438 627.890625 170.753906 L 627.890625 148.632812 C 627.890625 147.605469 628.714844 146.777344 629.738281 146.777344 L 651.710938 146.777344 C 652.730469 146.777344 653.558594 147.605469 653.558594 148.632812 L 653.558594 170.753906 C 653.558594 171.773438 652.730469 172.601562 651.710938 172.601562 " fill-opacity="1" fill-rule="nonzero"/><path fill="#ffffff" d="M 685.078125 172.605469 L 663.109375 172.605469 C 662.085938 172.605469 661.257812 171.777344 661.257812 170.753906 L 661.257812 148.632812 C 661.257812 147.613281 662.085938 146.78125 663.109375 146.78125 L 685.078125 146.78125 C 686.105469 146.78125 686.929688 147.613281 686.929688 148.632812 L 686.929688 170.753906 C 686.929688 171.777344 686.105469 172.605469 685.078125 172.605469 " fill-opacity="1" fill-rule="nonzero"/><path fill="#000000" d="M 566.609375 119.785156 C 558.695312 119.765625 552.253906 113.246094 552.25 105.257812 C 552.25 101.355469 553.757812 97.707031 556.496094 94.96875 C 559.195312 92.277344 562.765625 90.796875 566.566406 90.796875 C 566.847656 90.796875 567.175781 90.808594 567.476562 90.828125 C 568.234375 90.875 568.808594 91.527344 568.761719 92.28125 C 568.710938 93.035156 568.074219 93.613281 567.304688 93.5625 C 567.0625 93.546875 566.824219 93.535156 566.566406 93.542969 C 563.5 93.542969 560.613281 94.734375 558.4375 96.90625 C 556.214844 99.128906 554.988281 102.089844 554.988281 105.253906 C 554.996094 111.738281 560.214844 117.027344 566.617188 117.042969 C 567.375 117.042969 567.988281 117.660156 567.984375 118.417969 C 567.984375 119.171875 567.371094 119.785156 566.609375 119.785156 " fill-opacity="1" fill-rule="nonzero"/><path fill="#000000" d="M 586.265625 119.835938 C 578.355469 119.816406 571.910156 113.300781 571.90625 105.3125 C 571.902344 101.414062 573.410156 97.761719 576.144531 95.023438 C 578.851562 92.335938 582.421875 90.851562 586.214844 90.851562 C 586.507812 90.851562 586.824219 90.863281 587.128906 90.882812 C 587.882812 90.929688 588.460938 91.582031 588.410156 92.335938 C 588.359375 93.089844 587.722656 93.667969 586.957031 93.617188 C 586.710938 93.601562 586.488281 93.59375 586.214844 93.59375 C 583.152344 93.59375 580.261719 94.789062 578.085938 96.964844 C 575.863281 99.183594 574.644531 102.144531 574.644531 105.3125 C 574.648438 111.789062 579.863281 117.082031 586.269531 117.097656 C 587.023438 117.097656 587.636719 117.710938 587.636719 118.472656 C 587.632812 119.226562 587.019531 119.835938 586.265625 119.835938 " fill-opacity="1" fill-rule="nonzero"/><path fill="#000000" d="M 605.921875 119.890625 L 605.914062 119.890625 C 598.003906 119.871094 591.5625 113.355469 591.558594 105.363281 C 591.550781 101.46875 593.058594 97.816406 595.804688 95.078125 C 598.5 92.390625 602.074219 90.90625 605.863281 90.90625 C 606.148438 90.90625 606.480469 90.914062 606.785156 90.9375 C 607.535156 90.980469 608.113281 91.636719 608.0625 92.390625 C 608.015625 93.140625 607.398438 93.71875 606.601562 93.667969 C 606.359375 93.65625 606.128906 93.648438 605.863281 93.648438 C 602.800781 93.648438 599.917969 94.84375 597.742188 97.015625 C 595.519531 99.234375 594.296875 102.195312 594.296875 105.363281 C 594.300781 111.847656 599.511719 117.132812 605.921875 117.152344 C 606.679688 117.152344 607.285156 117.769531 607.285156 118.523438 C 607.285156 119.28125 606.675781 119.890625 605.921875 119.890625 " fill-opacity="1" fill-rule="nonzero"/><path fill="#000000" d="M 625.570312 119.949219 C 625.570312 119.949219 625.570312 119.949219 625.5625 119.949219 C 617.652344 119.921875 611.214844 113.410156 611.207031 105.417969 C 611.203125 101.519531 612.714844 97.867188 615.457031 95.128906 C 618.148438 92.4375 621.722656 90.960938 625.515625 90.960938 C 625.808594 90.960938 626.128906 90.96875 626.433594 90.988281 C 627.1875 91.035156 627.765625 91.6875 627.714844 92.441406 C 627.667969 93.199219 627.027344 93.773438 626.261719 93.722656 C 626.019531 93.707031 625.796875 93.699219 625.515625 93.703125 C 622.457031 93.703125 619.570312 94.898438 617.390625 97.070312 C 615.167969 99.289062 613.949219 102.25 613.949219 105.417969 C 613.953125 111.898438 619.167969 117.1875 625.574219 117.203125 C 626.332031 117.203125 626.945312 117.824219 626.941406 118.582031 C 626.941406 119.335938 626.328125 119.949219 625.570312 119.949219 " fill-opacity="1" fill-rule="nonzero"/><path fill="#000000" d="M 645.230469 119.992188 C 645.226562 119.992188 645.226562 119.992188 645.226562 119.992188 C 637.3125 119.972656 630.867188 113.453125 630.863281 105.46875 C 630.863281 101.566406 632.371094 97.914062 635.117188 95.175781 C 637.8125 92.492188 641.386719 91.007812 645.175781 91.007812 C 645.464844 91.007812 645.789062 91.015625 646.089844 91.039062 C 646.851562 91.082031 647.421875 91.734375 647.375 92.492188 C 647.324219 93.25 646.679688 93.820312 645.917969 93.773438 C 645.671875 93.761719 645.402344 93.75 645.175781 93.75 C 642.113281 93.75 639.226562 94.945312 637.046875 97.121094 C 634.824219 99.335938 633.601562 102.300781 633.601562 105.464844 C 633.605469 111.945312 638.824219 117.234375 645.230469 117.253906 C 645.984375 117.253906 646.601562 117.867188 646.601562 118.625 C 646.597656 119.378906 645.984375 119.992188 645.230469 119.992188 " fill-opacity="1" fill-rule="nonzero"/><path fill="#000000" d="M 664.878906 120.042969 C 656.964844 120.023438 650.523438 113.507812 650.519531 105.523438 C 650.515625 101.621094 652.023438 97.96875 654.769531 95.230469 C 657.460938 92.542969 661.035156 91.0625 664.828125 91.0625 C 665.117188 91.0625 665.441406 91.070312 665.742188 91.09375 C 666.5 91.136719 667.074219 91.789062 667.023438 92.542969 C 666.972656 93.296875 666.332031 93.875 665.570312 93.824219 C 665.324219 93.808594 665.070312 93.804688 664.828125 93.804688 C 661.765625 93.804688 658.882812 94.996094 656.703125 97.175781 C 654.480469 99.390625 653.253906 102.355469 653.261719 105.515625 C 653.265625 112 658.476562 117.289062 664.886719 117.308594 C 665.644531 117.308594 666.25 117.925781 666.25 118.679688 C 666.25 119.4375 665.632812 120.042969 664.878906 120.042969 " fill-opacity="1" fill-rule="nonzero"/><path fill="#000000" d="M 683.417969 120.097656 C 683.417969 120.097656 683.417969 120.097656 683.414062 120.097656 C 675.5 120.074219 669.058594 113.558594 669.054688 105.570312 C 669.054688 101.667969 670.5625 98.015625 673.304688 95.277344 C 676 92.589844 679.574219 91.109375 683.367188 91.109375 C 683.382812 91.109375 683.394531 91.109375 683.402344 91.109375 C 688.417969 91.125 692.980469 93.703125 695.621094 98.019531 C 696.023438 98.664062 695.816406 99.507812 695.171875 99.902344 C 694.523438 100.296875 693.679688 100.09375 693.285156 99.453125 C 691.148438 95.957031 687.453125 93.859375 683.398438 93.851562 C 680.347656 93.851562 677.429688 95.039062 675.242188 97.222656 C 673.019531 99.4375 671.796875 102.402344 671.796875 105.5625 C 671.800781 112.050781 677.019531 117.335938 683.421875 117.351562 C 684.179688 117.351562 684.792969 117.972656 684.789062 118.730469 C 684.789062 119.484375 684.179688 120.097656 683.417969 120.097656 " fill-opacity="1" fill-rule="nonzero"/><path fill="#ffffff" d="M 452.492188 710.671875 L 457.171875 743.550781 L 467.3125 743.550781 L 467.878906 711.210938 L 452.492188 710.671875 " fill-opacity="1" fill-rule="nonzero"/><path fill="#000000" d="M 458.363281 742.179688 L 465.964844 742.179688 L 466.484375 712.53125 L 454.074219 712.097656 Z M 467.3125 744.925781 L 457.171875 744.925781 C 456.492188 744.925781 455.914062 744.417969 455.820312 743.746094 L 451.132812 710.863281 C 451.074219 710.464844 451.199219 710.054688 451.472656 709.753906 C 451.746094 709.453125 452.136719 709.28125 452.539062 709.300781 L 467.921875 709.84375 C 468.675781 709.867188 469.261719 710.488281 469.25 711.238281 L 468.683594 743.574219 C 468.667969 744.324219 468.0625 744.925781 467.3125 744.925781 " fill-opacity="1" fill-rule="nonzero"/><path fill="#ffffff" d="M 456.769531 774.988281 C 461.621094 775.507812 469.554688 775.84375 478.808594 774.253906 C 481.84375 773.730469 483.765625 770.707031 482.929688 767.742188 C 480.609375 759.492188 475.609375 743.863281 469.316406 736.753906 L 467.941406 740.765625 L 465.742188 737.101562 C 465.4375 736.597656 464.917969 736.273438 464.335938 736.21875 L 459.769531 735.792969 C 458.8125 735.699219 457.949219 736.359375 457.785156 737.304688 L 457.171875 740.765625 L 455.4375 736.300781 L 452.1875 769.332031 C 451.910156 772.15625 453.949219 774.6875 456.769531 774.988281 " fill-opacity="1" fill-rule="nonzero"/><path fill="#000000" d="M 456.914062 773.628906 C 461.820312 774.148438 469.5625 774.449219 478.574219 772.898438 C 479.644531 772.71875 480.585938 772.085938 481.167969 771.171875 C 481.746094 770.25 481.90625 769.164062 481.613281 768.117188 C 479.4375 760.398438 475.160156 747.03125 469.800781 739.566406 L 469.238281 741.210938 C 469.0625 741.71875 468.617188 742.074219 468.085938 742.128906 C 467.546875 742.1875 467.039062 741.933594 466.765625 741.472656 L 464.566406 737.808594 C 464.488281 737.679688 464.355469 737.597656 464.207031 737.578125 L 459.640625 737.152344 C 459.398438 737.128906 459.175781 737.304688 459.136719 737.539062 L 458.527344 741.003906 C 458.417969 741.613281 457.921875 742.074219 457.308594 742.128906 C 456.925781 742.171875 456.550781 742.042969 456.273438 741.800781 L 453.554688 769.464844 C 453.351562 771.542969 454.859375 773.402344 456.914062 773.628906 Z M 465.050781 776.789062 C 461.75 776.789062 458.894531 776.597656 456.621094 776.351562 C 453.078125 775.96875 450.472656 772.761719 450.828125 769.199219 L 454.074219 736.167969 C 454.136719 735.539062 454.625 735.03125 455.25 734.945312 C 455.871094 734.859375 456.484375 735.214844 456.71875 735.808594 L 456.808594 736.039062 C 457.417969 734.972656 458.617188 734.304688 459.898438 734.425781 L 464.460938 734.851562 C 465.476562 734.945312 466.390625 735.523438 466.917969 736.394531 L 467.597656 737.535156 L 468.015625 736.308594 C 468.175781 735.84375 468.566406 735.503906 469.046875 735.40625 C 469.523438 735.3125 470.015625 735.476562 470.339844 735.84375 C 476.769531 743.109375 481.8125 758.71875 484.25 767.375 C 484.75 769.15625 484.472656 771.070312 483.484375 772.632812 C 482.492188 774.207031 480.875 775.289062 479.039062 775.601562 C 473.886719 776.488281 469.128906 776.789062 465.050781 776.789062 " fill-opacity="1" fill-rule="nonzero"/><path fill="#000000" d="M 468.289062 771.179688 C 461.289062 771.179688 455.90625 769.863281 455.570312 769.777344 C 454.835938 769.59375 454.390625 768.851562 454.570312 768.117188 C 454.757812 767.378906 455.511719 766.9375 456.238281 767.121094 C 456.355469 767.148438 468.1875 770.035156 479.269531 767.121094 C 479.996094 766.929688 480.746094 767.367188 480.941406 768.101562 C 481.132812 768.832031 480.695312 769.582031 479.964844 769.773438 C 475.957031 770.828125 471.902344 771.179688 468.289062 771.179688 " fill-opacity="1" fill-rule="nonzero"/><path fill="#000000" d="M 472.378906 758.320312 L 461.507812 758.320312 C 460.75 758.320312 460.136719 757.703125 460.136719 756.949219 C 460.136719 756.195312 460.75 755.582031 461.507812 755.582031 L 472.378906 755.582031 C 473.136719 755.582031 473.75 756.195312 473.75 756.949219 C 473.75 757.703125 473.136719 758.320312 472.378906 758.320312 " fill-opacity="1" fill-rule="nonzero"/><path fill="#ffffff" d="M 366.476562 713.605469 L 362.261719 751.929688 L 346.140625 755.304688 L 347.121094 710.367188 L 366.476562 713.605469 " fill-opacity="1" fill-rule="nonzero"/><path fill="#000000" d="M 348.460938 711.984375 L 347.550781 753.609375 L 361.007812 750.789062 L 364.972656 714.742188 Z M 346.140625 756.675781 C 345.828125 756.675781 345.515625 756.566406 345.265625 756.359375 C 344.945312 756.09375 344.761719 755.691406 344.769531 755.277344 L 345.753906 710.339844 C 345.761719 709.941406 345.941406 709.566406 346.25 709.3125 C 346.554688 709.058594 346.957031 708.953125 347.351562 709.015625 L 366.703125 712.25 C 367.421875 712.371094 367.921875 713.035156 367.839844 713.753906 L 363.625 752.078125 C 363.558594 752.671875 363.125 753.152344 362.542969 753.269531 L 346.421875 756.644531 C 346.328125 756.667969 346.234375 756.675781 346.140625 756.675781 " fill-opacity="1" fill-rule="nonzero"/><path fill="#ffffff" d="M 369.070312 772.019531 C 369.070312 772.019531 371.132812 753.582031 365.355469 745.160156 L 352.457031 749.75 L 352.457031 747 C 352.457031 746.109375 351.824219 745.378906 351.019531 745.328125 L 343.824219 744.921875 C 341.140625 744.765625 338.464844 745.320312 336.015625 746.527344 C 327.398438 750.761719 307.574219 761.679688 308.199219 772.144531 C 308.199219 772.144531 323.808594 776.019531 369.070312 772.019531 " fill-opacity="1" fill-rule="nonzero"/><path fill="#000000" d="M 369.070312 772.019531 L 369.078125 772.019531 Z M 309.585938 771.023438 C 313.730469 771.75 330.53125 773.976562 367.804688 770.753906 C 368.113281 766.878906 368.796875 753.84375 364.777344 746.820312 L 352.917969 751.042969 C 352.5 751.191406 352.03125 751.128906 351.667969 750.875 C 351.304688 750.617188 351.089844 750.199219 351.089844 749.75 L 351.089844 747 C 351.089844 746.808594 350.980469 746.703125 350.941406 746.699219 L 343.742188 746.285156 C 341.308594 746.148438 338.855469 746.65625 336.617188 747.757812 C 330.347656 750.839844 310.429688 761.371094 309.585938 771.023438 Z M 332.484375 775.210938 C 315.167969 775.210938 308.292969 773.582031 307.871094 773.472656 C 307.289062 773.332031 306.867188 772.824219 306.832031 772.226562 C 306.179688 761.34375 324.457031 750.683594 335.410156 745.296875 C 338.066406 743.988281 341.003906 743.382812 343.902344 743.550781 L 351.097656 743.964844 C 352.628906 744.050781 353.828125 745.382812 353.828125 747 L 353.828125 747.808594 L 364.894531 743.871094 C 365.480469 743.664062 366.132812 743.871094 366.484375 744.386719 C 372.480469 753.125 370.511719 771.402344 370.429688 772.171875 C 370.355469 772.820312 369.839844 773.328125 369.1875 773.386719 C 353.660156 774.757812 341.617188 775.210938 332.484375 775.210938 " fill-opacity="1" fill-rule="nonzero"/><path fill="#000000" d="M 347.105469 769.53125 C 327.855469 769.53125 313.101562 766.601562 312.910156 766.558594 C 312.167969 766.410156 311.6875 765.6875 311.835938 764.945312 C 311.984375 764.203125 312.707031 763.722656 313.453125 763.875 C 313.699219 763.925781 338.820312 768.902344 366.160156 765.738281 C 366.90625 765.644531 367.59375 766.1875 367.679688 766.9375 C 367.769531 767.691406 367.226562 768.371094 366.476562 768.457031 C 359.777344 769.234375 353.210938 769.53125 347.105469 769.53125 " fill-opacity="1" fill-rule="nonzero"/><path fill="#000000" d="M 331.773438 759.796875 C 331.351562 759.796875 330.929688 759.601562 330.664062 759.226562 C 330.21875 758.613281 330.359375 757.753906 330.976562 757.316406 L 343.386719 748.386719 C 344.007812 747.941406 344.859375 748.082031 345.300781 748.695312 C 345.746094 749.3125 345.605469 750.167969 344.992188 750.609375 L 332.574219 759.539062 C 332.335938 759.714844 332.054688 759.796875 331.773438 759.796875 " fill-opacity="1" fill-rule="nonzero"/><path fill="#000000" d="M 361.449219 464.9375 C 361.449219 464.9375 338.320312 611.945312 343.246094 717.75 L 368.960938 718.417969 C 368.960938 718.417969 396.539062 569.207031 410.292969 542.515625 C 410.292969 542.515625 447.675781 678.550781 449.117188 717.273438 C 449.117188 717.273438 465.75 718.945312 472.378906 716.554688 C 475.941406 679.191406 477.011719 647.402344 477.191406 623.117188 C 477.699219 553.617188 471.058594 522.050781 467.414062 507.070312 C 464.074219 493.324219 460.484375 482.144531 457.863281 474.585938 L 449.117188 449.628906 L 361.449219 464.9375 " fill-opacity="1" fill-rule="nonzero"/><path fill="#000000" d="M 344.554688 716.414062 L 367.828125 717.011719 C 370.605469 702.058594 395.867188 567.511719 409.078125 541.890625 C 409.335938 541.386719 409.878906 541.09375 410.441406 541.152344 C 411 541.210938 411.46875 541.609375 411.621094 542.148438 C 411.988281 543.5 448.300781 676.039062 450.429688 716.015625 C 454.109375 716.316406 465.464844 717.085938 471.101562 715.527344 C 474.003906 684.742188 475.59375 653.652344 475.820312 623.109375 C 476.300781 557.269531 470.496094 525.535156 466.085938 507.394531 C 463.433594 496.484375 460.230469 485.597656 456.574219 475.035156 L 448.203125 451.179688 L 362.65625 466.121094 C 360.679688 479.015625 340.132812 616.527344 344.554688 716.414062 Z M 368.960938 719.785156 C 368.949219 719.785156 368.9375 719.785156 368.921875 719.785156 L 343.210938 719.121094 C 342.492188 719.097656 341.910156 718.53125 341.878906 717.8125 C 337.003906 613.082031 359.867188 466.199219 360.097656 464.730469 C 360.1875 464.148438 360.636719 463.6875 361.214844 463.589844 L 448.878906 448.28125 C 449.535156 448.164062 450.1875 448.539062 450.40625 449.175781 L 459.160156 474.132812 C 462.847656 484.78125 466.074219 495.753906 468.75 506.75 C 473.191406 525.03125 479.042969 556.984375 478.558594 623.128906 C 478.332031 654.050781 476.714844 685.53125 473.742188 716.6875 C 473.691406 717.214844 473.34375 717.671875 472.84375 717.847656 C 466 720.3125 449.671875 718.707031 448.980469 718.636719 C 448.296875 718.570312 447.769531 718.003906 447.746094 717.324219 C 446.457031 682.742188 415.90625 568.449219 409.96875 546.523438 C 396.019531 580.050781 370.570312 717.226562 370.304688 718.664062 C 370.1875 719.3125 369.617188 719.785156 368.960938 719.785156 " fill-opacity="1" fill-rule="nonzero"/><path fill="#000000" d="M 408.933594 540.808594 C 408.324219 540.808594 407.769531 540.398438 407.609375 539.78125 L 403.855469 525.289062 L 394.871094 523.429688 C 394.125 523.277344 393.648438 522.550781 393.800781 521.8125 C 393.953125 521.070312 394.683594 520.59375 395.425781 520.746094 L 405.25 522.773438 C 405.761719 522.882812 406.167969 523.269531 406.300781 523.777344 L 410.261719 539.09375 C 410.453125 539.828125 410.011719 540.574219 409.277344 540.765625 C 409.164062 540.792969 409.050781 540.808594 408.933594 540.808594 " fill-opacity="1" fill-rule="nonzero"/><path fill="#000000" d="M 363.710938 334.554688 C 378.757812 332.855469 410.59375 329.839844 432.988281 331.695312 C 439.871094 332.273438 446.398438 334.960938 451.679688 339.414062 C 467.585938 352.84375 502.046875 386.507812 502.496094 426.339844 L 467.195312 421.222656 C 467.195312 421.222656 479.65625 465.882812 478.808594 473.0625 C 477.960938 480.234375 456.109375 492.449219 428.78125 482.429688 C 401.453125 472.417969 362.121094 473.636719 349.386719 482.429688 L 348.15625 427.328125 L 294.453125 427.328125 C 294.453125 427.328125 312.214844 369.53125 346.671875 341.628906 C 351.546875 337.683594 357.476562 335.257812 363.710938 334.554688 " fill-opacity="1" fill-rule="nonzero"/><path fill="#ffffff" d="M 294.453125 427.328125 C 294.453125 427.328125 290.253906 446.542969 309.351562 452.3125 C 328.460938 458.082031 346.601562 423.308594 346.601562 423.308594 L 333.296875 415.601562 L 294.453125 427.328125 " fill-opacity="1" fill-rule="nonzero"/><path fill="#000000" d="M 295.660156 428.394531 C 295.125 431.941406 294.015625 446.246094 309.75 451 C 325.652344 455.800781 341.441406 429.6875 344.753906 423.820312 L 333.128906 417.085938 Z M 313.75 454.335938 C 312.167969 454.335938 310.570312 454.113281 308.960938 453.625 C 288.875 447.558594 293.074219 427.242188 293.117188 427.035156 C 293.222656 426.546875 293.582031 426.160156 294.058594 426.015625 L 332.90625 414.289062 C 333.265625 414.179688 333.660156 414.222656 333.984375 414.414062 L 347.289062 422.125 C 347.921875 422.492188 348.152344 423.292969 347.8125 423.945312 C 347.113281 425.285156 331.730469 454.335938 313.75 454.335938 " fill-opacity="1" fill-rule="nonzero"/><path fill="#ffffff" d="M 418.355469 471.117188 L 324.46875 471.117188 C 322.089844 471.117188 320.011719 469.496094 319.441406 467.1875 L 300.488281 390.765625 C 299.679688 387.5 302.148438 384.339844 305.515625 384.339844 L 399.402344 384.339844 C 401.785156 384.339844 403.855469 385.964844 404.429688 388.273438 L 423.382812 464.695312 C 424.191406 467.960938 421.722656 471.117188 418.355469 471.117188 " fill-opacity="1" fill-rule="nonzero"/><path fill="#000000" d="M 305.511719 385.710938 C 304.335938 385.710938 303.242188 386.246094 302.519531 387.171875 C 301.789062 388.105469 301.535156 389.292969 301.816406 390.4375 L 320.773438 466.855469 C 321.195312 468.558594 322.710938 469.746094 324.46875 469.746094 L 418.355469 469.746094 C 419.535156 469.746094 420.628906 469.214844 421.351562 468.289062 C 422.082031 467.355469 422.335938 466.167969 422.054688 465.027344 L 403.101562 388.605469 C 402.675781 386.902344 401.15625 385.710938 399.402344 385.710938 Z M 418.355469 472.492188 L 324.46875 472.492188 C 321.449219 472.492188 318.835938 470.445312 318.113281 467.519531 L 299.15625 391.097656 C 298.671875 389.128906 299.105469 387.082031 300.355469 385.484375 C 301.609375 383.890625 303.488281 382.972656 305.511719 382.972656 L 399.402344 382.972656 C 402.417969 382.972656 405.03125 385.015625 405.757812 387.941406 L 424.710938 464.363281 C 425.199219 466.335938 424.765625 468.378906 423.511719 469.976562 C 422.261719 471.570312 420.382812 472.492188 418.355469 472.492188 " fill-opacity="1" fill-rule="nonzero"/><path fill="#ffffff" d="M 307.457031 422.332031 L 310.214844 429.976562 L 332.789062 419.230469 C 332.789062 419.230469 345.207031 429.976562 315.113281 443.75 C 302.570312 449.492188 307.457031 422.332031 307.457031 422.332031 " fill-opacity="1" fill-rule="nonzero"/><path fill="#000000" d="M 308.089844 428.132812 C 307.601562 434.0625 307.886719 440.746094 310.34375 442.644531 C 310.699219 442.921875 311.785156 443.765625 314.539062 442.503906 C 329.527344 435.648438 333.328125 429.8125 333.878906 426.125 C 334.25 423.628906 333.183594 421.804688 332.46875 420.898438 L 310.800781 431.214844 C 310.453125 431.378906 310.046875 431.394531 309.691406 431.246094 C 309.335938 431.097656 309.054688 430.808594 308.921875 430.445312 Z M 311.960938 445.921875 C 310.71875 445.921875 309.617188 445.554688 308.660156 444.8125 C 303 440.417969 305.773438 423.953125 306.105469 422.089844 C 306.214844 421.480469 306.726562 421.015625 307.339844 420.96875 C 307.953125 420.914062 308.53125 421.28125 308.746094 421.867188 L 310.988281 428.089844 L 332.203125 417.992188 C 332.691406 417.753906 333.273438 417.835938 333.6875 418.191406 C 333.835938 418.324219 337.324219 421.40625 336.597656 426.46875 C 335.6875 432.828125 328.648438 439.058594 315.683594 444.996094 C 314.332031 445.617188 313.085938 445.921875 311.960938 445.921875 " fill-opacity="1" fill-rule="nonzero"/><path fill="#ffffff" d="M 440.25 383.425781 C 440.25 383.425781 482.449219 407.121094 491.15625 414.558594 C 499.867188 422 509.308594 427.640625 497.035156 443.90625 C 484.761719 460.179688 432.441406 395.023438 432.441406 395.023438 C 432.441406 395.023438 422.386719 396.6875 418.882812 383 C 418.882812 383 401.910156 383.605469 401.296875 378.28125 L 425.226562 373.996094 C 428.324219 373.445312 431.492188 374.457031 433.6875 376.707031 L 440.25 383.425781 " fill-opacity="1" fill-rule="nonzero"/><path fill="#000000" d="M 432.441406 393.652344 C 432.851562 393.652344 433.242188 393.839844 433.507812 394.164062 C 433.917969 394.675781 474.648438 445.140625 491.585938 445.144531 C 491.628906 445.144531 491.671875 445.144531 491.710938 445.144531 C 493.53125 445.117188 494.914062 444.445312 495.941406 443.085938 C 506.476562 429.121094 500.226562 423.90625 492.304688 417.3125 C 491.628906 416.75 490.949219 416.179688 490.269531 415.601562 C 481.765625 408.332031 440 384.859375 439.578125 384.621094 C 439.460938 384.554688 439.355469 384.476562 439.265625 384.382812 L 432.707031 377.667969 C 430.824219 375.738281 428.121094 374.871094 425.472656 375.34375 L 403.457031 379.28125 C 405.890625 381.09375 413.3125 381.824219 418.832031 381.628906 C 419.496094 381.597656 420.050781 382.035156 420.210938 382.65625 C 423.371094 394.992188 431.855469 393.730469 432.214844 393.671875 C 432.292969 393.660156 432.367188 393.652344 432.441406 393.652344 Z M 491.605469 447.886719 C 474.160156 447.894531 436.613281 402.339844 431.824219 396.4375 C 429.175781 396.503906 421.207031 395.746094 417.847656 384.394531 C 413.285156 384.464844 400.589844 384.148438 399.933594 378.4375 C 399.847656 377.71875 400.335938 377.054688 401.054688 376.929688 L 424.988281 372.648438 C 428.527344 372.015625 432.148438 373.171875 434.667969 375.75 L 441.09375 382.328125 C 444.441406 384.207031 483.535156 406.242188 492.046875 413.515625 C 492.71875 414.085938 493.394531 414.652344 494.0625 415.207031 C 502.011719 421.835938 510.238281 428.683594 498.128906 444.734375 C 496.582031 446.785156 494.4375 447.84375 491.753906 447.886719 C 491.703125 447.886719 491.652344 447.886719 491.605469 447.886719 " fill-opacity="1" fill-rule="nonzero"/><path fill="#000000" d="M 380.695312 307 C 379.933594 308.320312 381.511719 310.890625 381.527344 310.886719 C 381.550781 310.875 380.765625 303.375 376.582031 301.472656 C 374.160156 300.371094 372.902344 302.207031 369.292969 301.710938 C 365.453125 301.179688 361.230469 298.339844 359.644531 294.183594 C 357.734375 289.164062 360.488281 284.375 362.230469 281.359375 C 363.960938 278.355469 366.160156 275.015625 369.980469 273.570312 C 374.957031 271.691406 377.039062 274.582031 382.738281 272.804688 C 387.371094 271.363281 387.03125 269.132812 391.160156 267.957031 C 394.597656 266.980469 404.507812 267.539062 406.726562 272.804688 C 408.132812 276.152344 405.097656 278.183594 406.609375 283.136719 C 407.515625 286.109375 408.949219 286.476562 409.988281 288.773438 C 412.570312 294.46875 409.335938 304.476562 403.167969 307.824219 C 394.796875 312.375 382.507812 303.871094 380.695312 307 " fill-opacity="1" fill-rule="nonzero"/><path fill="#ffffff" d="M 384.277344 311.035156 L 382.332031 327.015625 C 381.964844 330.054688 379.769531 332.5625 376.800781 333.335938 L 368.585938 335.476562 L 393.921875 354.769531 L 422.386719 333.175781 L 412.179688 330.894531 C 409.242188 330.238281 406.992188 327.886719 406.457031 324.929688 L 402.214844 301.386719 L 384.277344 311.035156 " fill-opacity="1" fill-rule="nonzero"/><path fill="#000000" d="M 371.65625 336.09375 L 393.921875 353.050781 L 419.207031 333.867188 L 411.882812 332.230469 C 408.398438 331.453125 405.742188 328.683594 405.109375 325.171875 L 401.199219 303.492188 L 385.554688 311.902344 L 383.695312 327.179688 C 383.253906 330.800781 380.683594 333.742188 377.148438 334.660156 Z M 393.921875 356.140625 C 393.628906 356.140625 393.332031 356.046875 393.089844 355.863281 L 367.753906 336.570312 C 367.339844 336.25 367.136719 335.722656 367.238281 335.207031 C 367.34375 334.695312 367.730469 334.285156 368.238281 334.152344 L 376.457031 332.011719 C 378.898438 331.375 380.667969 329.351562 380.972656 326.84375 L 382.921875 310.867188 C 382.976562 310.425781 383.242188 310.035156 383.628906 309.824219 L 401.5625 300.179688 C 401.949219 299.972656 402.414062 299.964844 402.808594 300.15625 C 403.203125 300.34375 403.484375 300.710938 403.5625 301.144531 L 407.808594 324.6875 C 408.242188 327.109375 410.078125 329.019531 412.476562 329.558594 L 422.691406 331.835938 C 423.207031 331.953125 423.613281 332.359375 423.730469 332.878906 C 423.84375 333.402344 423.644531 333.945312 423.214844 334.269531 L 394.75 355.863281 C 394.503906 356.046875 394.210938 356.140625 393.921875 356.140625 " fill-opacity="1" fill-rule="nonzero"/><path fill="#ffffff" d="M 400.171875 304.632812 C 400.171875 304.632812 406.480469 302.253906 404.109375 297.039062 C 401.742188 291.828125 397.886719 295.679688 397.886719 295.679688 C 397.886719 295.679688 394.300781 282.835938 386.769531 287.898438 C 379.242188 292.964844 372.109375 294.804688 372.109375 294.804688 C 372.109375 294.804688 374.757812 307.730469 379.523438 316.328125 C 382.394531 321.515625 386.035156 325.128906 390.324219 323.386719 C 402.070312 318.613281 400.171875 304.632812 400.171875 304.632812 " fill-opacity="1" fill-rule="nonzero"/><path fill="#000000" d="M 373.722656 295.757812 C 374.507812 299.15625 376.960938 308.871094 380.722656 315.667969 C 383.761719 321.160156 386.824219 323.328125 389.808594 322.117188 C 400.410156 317.8125 398.886719 305.339844 398.8125 304.816406 C 398.730469 304.179688 399.09375 303.578125 399.683594 303.351562 C 399.738281 303.328125 402.273438 302.332031 403.050781 300.429688 C 403.402344 299.574219 403.339844 298.65625 402.863281 297.609375 C 402.507812 296.820312 401.910156 295.851562 401.113281 295.703125 C 400.222656 295.539062 399.152344 296.355469 398.847656 296.652344 C 398.503906 296.992188 398.003906 297.125 397.535156 297 C 397.066406 296.871094 396.699219 296.511719 396.566406 296.046875 C 396.0625 294.242188 394.121094 289.335938 391.277344 288.289062 C 390.132812 287.867188 388.90625 288.113281 387.539062 289.039062 C 381.699219 292.964844 376.152344 294.988281 373.722656 295.757812 Z M 388.171875 325.195312 C 385.347656 325.195312 381.859375 323.378906 378.320312 316.992188 C 373.515625 308.308594 370.875 295.617188 370.761719 295.082031 C 370.617188 294.367188 371.058594 293.664062 371.761719 293.480469 C 371.835938 293.460938 378.777344 291.625 386.007812 286.765625 C 388.132812 285.332031 390.222656 284.980469 392.222656 285.71875 C 395.589844 286.957031 397.648438 291.101562 398.589844 293.519531 C 399.40625 293.105469 400.453125 292.796875 401.597656 293.003906 C 403.179688 293.289062 404.445312 294.457031 405.359375 296.472656 C 406.15625 298.230469 406.230469 299.914062 405.578125 301.480469 C 404.722656 303.558594 402.789062 304.847656 401.613281 305.46875 C 401.785156 308.949219 401.496094 320.328125 390.839844 324.65625 C 390.050781 324.976562 389.148438 325.195312 388.171875 325.195312 " fill-opacity="1" fill-rule="nonzero"/></svg>