<svg xmlns="http://www.w3.org/2000/svg" xmlns:xlink="http://www.w3.org/1999/xlink" width="1080" zoomAndPan="magnify" viewBox="0 0 810 809.999993" height="1080" preserveAspectRatio="xMidYMid meet" version="1.0"><defs><clipPath id="eb5ae424e1"><path d="M 230 15.816406 L 579 15.816406 L 579 194 L 230 194 Z M 230 15.816406 " clip-rule="nonzero"/></clipPath><clipPath id="929e50a506"><path d="M 77 208 L 733 208 L 733 755.316406 L 77 755.316406 Z M 77 208 " clip-rule="nonzero"/></clipPath></defs><rect x="-81" width="972" fill="#ffffff" y="-80.999999" height="971.999992" fill-opacity="1"/><rect x="-81" width="972" fill="#1c1d20" y="-80.999999" height="971.999992" fill-opacity="1"/><g clip-path="url(#eb5ae424e1)"><path fill="#ffc200" d="M 333.144531 144.945312 C 330.023438 145.984375 327.9375 147.027344 324.816406 147.027344 C 318.566406 147.027344 312.320312 143.902344 309.195312 137.65625 L 273.789062 72.050781 L 259.210938 78.296875 C 236.300781 87.667969 224.84375 113.703125 234.21875 137.65625 L 235.257812 140.777344 L 292.535156 193.886719 C 366.46875 178.265625 443.53125 178.265625 516.425781 193.886719 L 573.699219 140.777344 L 574.738281 137.65625 C 584.113281 114.746094 572.65625 87.667969 549.746094 78.296875 L 532.042969 71.007812 L 497.679688 134.53125 C 494.554688 140.777344 488.308594 143.902344 482.058594 143.902344 C 478.933594 143.902344 476.851562 142.859375 473.726562 141.820312 C 465.398438 137.65625 462.273438 126.199219 466.4375 117.867188 L 508.09375 40.808594 C 499.761719 26.230469 484.140625 15.816406 465.398438 15.816406 L 343.558594 15.816406 C 323.773438 15.816406 307.113281 27.269531 298.78125 44.972656 L 340.4375 122.035156 C 344.601562 129.324219 341.476562 140.777344 333.144531 144.945312 Z M 333.144531 144.945312 " fill-opacity="1" fill-rule="nonzero"/></g><g clip-path="url(#929e50a506)"><path fill="#ffc200" d="M 520.589844 223.046875 C 445.613281 204.300781 365.429688 204.300781 289.410156 222.003906 C 222.761719 276.152344 98.84375 406.324219 80.097656 560.441406 C 72.808594 615.632812 84.261719 661.453125 114.460938 694.777344 C 141.539062 724.976562 177.984375 740.597656 208.183594 747.886719 C 380.007812 746.84375 458.109375 703.109375 527.878906 655.207031 C 536.210938 650 546.625 654.164062 551.828125 662.496094 C 555.996094 670.828125 551.828125 679.15625 544.539062 686.445312 C 507.050781 722.894531 474.769531 742.679688 445.613281 755.175781 L 550.789062 755.175781 C 555.996094 755.175781 643.46875 754.132812 695.535156 695.820312 C 725.734375 662.496094 737.191406 616.675781 729.902344 561.484375 C 710.117188 407.363281 587.234375 277.195312 520.589844 223.046875 Z M 366.46875 444.851562 L 403.957031 452.144531 L 450.820312 461.515625 L 453.941406 462.554688 L 456.027344 463.597656 C 489.347656 480.257812 496.636719 500.042969 496.636719 513.582031 L 496.636719 515.664062 C 496.636719 548.988281 465.398438 576.0625 425.828125 576.0625 L 425.828125 606.261719 L 390.421875 606.261719 L 390.421875 576.0625 L 383.132812 576.0625 C 344.601562 576.0625 312.320312 548.988281 312.320312 515.664062 L 312.320312 502.128906 L 347.726562 502.128906 L 347.726562 515.664062 C 347.726562 529.203125 364.386719 540.65625 383.132812 540.65625 L 425.828125 540.65625 C 444.570312 540.65625 461.230469 529.203125 461.230469 515.664062 L 461.230469 513.582031 C 461.230469 510.457031 456.027344 504.210938 442.488281 495.878906 L 360.222656 479.21875 L 355.015625 478.175781 L 352.933594 477.136719 C 326.898438 463.597656 313.359375 446.9375 313.359375 428.191406 L 313.359375 426.109375 C 313.359375 392.785156 344.601562 365.710938 384.171875 365.710938 L 391.460938 365.710938 L 391.460938 337.59375 L 425.828125 337.59375 L 425.828125 365.710938 C 464.355469 365.710938 496.636719 392.785156 496.636719 426.109375 L 461.230469 426.109375 C 461.230469 412.570312 444.570312 401.117188 425.828125 401.117188 L 383.132812 401.117188 C 364.386719 401.117188 347.726562 412.570312 347.726562 426.109375 L 347.726562 428.191406 C 347.726562 431.316406 351.890625 437.5625 366.46875 444.851562 Z M 366.46875 444.851562 " fill-opacity="1" fill-rule="nonzero"/></g></svg>